<svg xmlns="http://www.w3.org/2000/svg" xmlns:xlink="http://www.w3.org/1999/xlink" width="500" zoomAndPan="magnify" viewBox="0 0 375 374.999991" height="500" preserveAspectRatio="xMidYMid meet" version="1.2"><defs><clipPath id="0441e6c4e3"><path d="M 114 5.550781 L 261 5.550781 L 261 345 L 114 345 Z M 114 5.550781 "/></clipPath><clipPath id="364020be3e"><path d="M 191 15.347656 L 262.730469 15.347656 L 262.730469 369.089844 L 191 369.089844 Z M 191 15.347656 "/></clipPath><clipPath id="993631c279"><path d="M 115 352 L 179 352 L 179 369.300781 L 115 369.300781 Z M 115 352 "/></clipPath></defs><g id="7988d0c63c"><g clip-rule="nonzero" clip-path="url(#0441e6c4e3)"><path style=" stroke:none;fill-rule:nonzero;fill:#ffffff;fill-opacity:1;" d="M 244.757812 5.929688 C 202.96875 6.570312 161.160156 6.964844 119.367188 6.4375 C 112.210938 6.078125 114.46875 6.671875 114.089844 13.570312 C 114.644531 49.382812 114.796875 85.199219 115.097656 121.011719 C 115.65625 192.730469 115.941406 264.460938 116.019531 336.175781 C 116.199219 338.871094 116.421875 341.578125 116.847656 344.238281 C 117.136719 342.410156 117.292969 340.5625 117.445312 338.71875 C 118.078125 330.578125 117.523438 322.40625 117.527344 314.257812 C 116.621094 212.574219 116.753906 110.882812 116.914062 9.203125 C 161.859375 7.984375 206.851562 8.84375 251.785156 8.429688 C 254.566406 8.199219 257.332031 7.796875 260.0625 7.230469 C 255.039062 6.21875 249.886719 5.792969 244.757812 5.929688 "/></g><g clip-rule="nonzero" clip-path="url(#364020be3e)"><path style=" stroke:none;fill-rule:nonzero;fill:#ffffff;fill-opacity:1;" d="M 259.847656 15.582031 C 259.128906 19.605469 258.597656 23.660156 258.445312 27.746094 C 258.527344 31.140625 258.625 34.53125 258.628906 37.929688 C 259.136719 59.664062 259.179688 81.410156 259.542969 103.144531 C 259.636719 190.859375 260.398438 278.566406 259.800781 366.277344 C 245.640625 366.4375 231.480469 366.488281 217.320312 366.398438 C 211.355469 366.433594 205.375 366.023438 199.421875 366.5 C 196.597656 366.726562 193.785156 367.179688 191.015625 367.738281 C 194.632812 368.4375 198.292969 368.925781 201.976562 369.046875 C 217.15625 368.980469 232.34375 368.566406 247.523438 368.625 C 251.789062 368.589844 256.054688 368.671875 260.316406 368.644531 C 262.425781 368.96875 262.808594 367.6875 262.71875 365.828125 C 262.738281 364.445312 262.71875 363.0625 262.695312 361.679688 C 261.863281 319.75 261.777344 277.8125 261.636719 235.875 C 261.191406 171.550781 260.570312 107.226562 261.191406 42.90625 C 261.230469 33.75 261.855469 24.59375 259.847656 15.582031 "/></g><g clip-rule="nonzero" clip-path="url(#993631c279)"><path style=" stroke:none;fill-rule:nonzero;fill:#ffffff;fill-opacity:1;" d="M 117.085938 352.113281 C 116.328125 355.929688 115.875 359.800781 115.75 363.691406 C 115.695312 365.011719 115.710938 366.332031 115.707031 367.652344 C 115.699219 368.429688 116.371094 369.101562 117.148438 369.089844 C 121.167969 369.050781 125.183594 368.953125 129.207031 368.894531 C 139.363281 368.734375 149.519531 368.671875 159.679688 368.59375 C 165.996094 368.632812 172.351562 368.445312 178.589844 367.402344 C 170.652344 366.105469 162.597656 366.382812 154.585938 366.363281 C 142.585938 366.425781 130.578125 366.320312 118.578125 366.21875 C 118.539062 361.484375 118.042969 356.742188 117.085938 352.113281 "/></g><path style=" stroke:none;fill-rule:nonzero;fill:#ffffff;fill-opacity:1;" d="M 139.222656 105.199219 C 138.46875 109.011719 138.011719 112.878906 137.910156 116.769531 C 138.105469 134.417969 138.480469 152.078125 138.632812 169.730469 C 139.007812 197.566406 138.878906 225.402344 138.671875 253.238281 C 138.582031 257.6875 138.523438 262.167969 139.191406 266.578125 C 139.390625 267.933594 139.621094 269.285156 139.886719 270.632812 C 140.289062 268.390625 140.6875 266.121094 140.851562 263.84375 C 141.332031 256.125 140.761719 248.378906 140.753906 240.652344 C 140.53125 219.078125 140.195312 197.503906 140.308594 175.929688 C 140.386719 157.046875 140.417969 138.160156 140.667969 119.28125 C 140.6875 114.554688 140.179688 109.820312 139.222656 105.199219 "/><path style=" stroke:none;fill-rule:nonzero;fill:#ffffff;fill-opacity:1;" d="M 140.449219 296.398438 C 138.84375 303.691406 139.050781 311.160156 139.21875 318.574219 C 139.351562 326.5625 139.101562 334.632812 140.636719 342.507812 C 141.945312 335.429688 141.847656 328.207031 141.847656 321.039062 C 141.898438 312.804688 142.304688 304.484375 140.449219 296.398438 "/><path style=" stroke:none;fill-rule:nonzero;fill:#ffffff;fill-opacity:1;" d="M 139.386719 31.386719 C 137.832031 38.636719 138 46.058594 138.171875 53.429688 C 138.171875 60.703125 138.199219 68.03125 139.566406 75.199219 C 140.871094 67.976562 140.839844 60.628906 140.78125 53.316406 C 140.894531 45.984375 141 38.582031 139.386719 31.386719 "/><path style=" stroke:none;fill-rule:nonzero;fill:#ffffff;fill-opacity:1;" d="M 175.621094 33.925781 C 174.535156 39.339844 174.128906 44.875 174.332031 50.394531 C 174.394531 57.554688 174.507812 64.761719 175.777344 71.828125 C 177.023438 64.5625 177.03125 57.183594 177.054688 49.839844 C 177.167969 44.503906 176.722656 39.140625 175.621094 33.925781 "/><path style=" stroke:none;fill-rule:nonzero;fill:#ffffff;fill-opacity:1;" d="M 175.914062 106.898438 C 173.757812 116.8125 174.832031 126.984375 174.84375 137.039062 C 175.179688 157.851562 175.257812 178.667969 175.332031 199.480469 C 175.382812 211.335938 175.207031 223.191406 175.09375 235.042969 C 174.957031 245.152344 174.566406 255.355469 176.550781 265.332031 C 178.164062 256.757812 178.109375 247.980469 177.855469 239.285156 C 177.65625 228.371094 177.394531 217.457031 177.296875 206.539062 C 177.113281 179.515625 177.027344 152.488281 177.339844 125.464844 C 177.550781 119.242188 177.246094 112.988281 175.914062 106.898438 "/><path style=" stroke:none;fill-rule:nonzero;fill:#ffffff;fill-opacity:1;" d="M 176.691406 300.066406 C 175.121094 307.300781 175.300781 314.710938 175.4375 322.066406 C 175.429688 329.085938 175.550781 336.148438 176.867188 343.0625 C 178.183594 335.835938 178.171875 328.492188 178.125 321.171875 C 178.226562 314.113281 178.246094 306.988281 176.691406 300.066406 "/><path style=" stroke:none;fill-rule:nonzero;fill:#ffffff;fill-opacity:1;" d="M 197.691406 31.109375 C 196.078125 38.421875 196.277344 45.902344 196.5 53.335938 C 196.734375 62.898438 196.308594 72.535156 197.894531 82.011719 C 199.078125 74.722656 199.015625 67.3125 199.015625 59.945312 C 198.953125 50.324219 199.867188 40.574219 197.691406 31.109375 "/><path style=" stroke:none;fill-rule:nonzero;fill:#ffffff;fill-opacity:1;" d="M 197.996094 107.179688 C 195.84375 117.011719 196.917969 127.089844 197 137.054688 C 197.195312 147.199219 197.398438 157.34375 197.40625 167.488281 C 197.429688 187.871094 197.847656 208.25 197.601562 228.636719 C 197.65625 237.339844 197.164062 246.0625 197.667969 254.757812 C 197.863281 257.441406 198.070312 260.128906 198.621094 262.765625 C 198.816406 261.738281 199.007812 260.699219 199.101562 259.648438 C 200.269531 248.316406 199.320312 236.890625 199.304688 225.523438 C 198.988281 205.167969 199.214844 184.8125 199.054688 164.457031 C 199.035156 151.0625 199.203125 137.660156 199.417969 124.261719 C 199.636719 118.535156 199.191406 112.78125 197.996094 107.179688 "/><path style=" stroke:none;fill-rule:nonzero;fill:#ffffff;fill-opacity:1;" d="M 198.765625 298.9375 C 197.167969 306.191406 197.371094 313.621094 197.523438 320.996094 C 197.5625 328.183594 197.449219 335.4375 198.941406 342.507812 C 200.34375 335.582031 200.21875 328.480469 200.1875 321.441406 C 200.265625 313.914062 200.464844 306.320312 198.765625 298.9375 "/><path style=" stroke:none;fill-rule:nonzero;fill:#ffffff;fill-opacity:1;" d="M 234.503906 33.632812 C 232.929688 40.9375 233.132812 48.414062 233.328125 55.835938 C 233.589844 64.726562 233.15625 73.65625 234.214844 82.507812 C 234.542969 82.464844 234.871094 82.421875 235.199219 82.378906 C 236.238281 72.527344 235.636719 62.605469 235.890625 52.71875 C 236.070312 46.332031 235.878906 39.890625 234.503906 33.632812 "/><path style=" stroke:none;fill-rule:nonzero;fill:#ffffff;fill-opacity:1;" d="M 234.789062 104.070312 C 233.820312 108.941406 233.367188 113.90625 233.433594 118.867188 C 233.414062 128.84375 233.625 138.820312 233.695312 148.796875 C 233.863281 156.628906 233.535156 164.488281 234.089844 172.308594 C 234.3125 175.023438 234.605469 177.742188 235.09375 180.421875 C 235.230469 179.679688 235.335938 178.914062 235.4375 178.15625 C 235.433594 178.1875 235.433594 178.21875 235.425781 178.25 C 237.140625 163.339844 235.851562 148.25 236.292969 133.269531 C 236.207031 123.53125 236.855469 113.652344 234.789062 104.070312 "/><path style=" stroke:none;fill-rule:nonzero;fill:#ffffff;fill-opacity:1;" d="M 235.1875 203.625 C 233.328125 211.984375 233.910156 220.558594 234 229.046875 C 234.472656 242.148438 233.09375 255.425781 235.449219 268.386719 C 237.628906 255.816406 236.261719 243.003906 236.578125 230.320312 C 236.554688 221.40625 237.207031 212.382812 235.1875 203.625 "/><path style=" stroke:none;fill-rule:nonzero;fill:#ffffff;fill-opacity:1;" d="M 235.5625 297.246094 C 234.46875 302.648438 234.058594 308.179688 234.242188 313.6875 C 234.367188 319.195312 234.257812 324.710938 234.449219 330.21875 C 234.648438 333.957031 235.078125 337.679688 235.742188 341.359375 C 235.929688 340.335938 236.078125 339.289062 236.214844 338.25 C 236.210938 338.292969 236.203125 338.335938 236.199219 338.378906 C 237.292969 331.085938 236.953125 323.707031 237 316.359375 C 237.152344 309.960938 236.953125 303.511719 235.5625 297.246094 "/><path style=" stroke:none;fill-rule:nonzero;fill:#ffffff;fill-opacity:1;" d="M 205.367188 83.152344 C 205.371094 83.152344 205.382812 83.152344 205.386719 83.152344 C 205.378906 83.152344 205.371094 83.152344 205.363281 83.152344 C 205.363281 83.152344 205.367188 83.152344 205.367188 83.152344 Z M 205.460938 83.15625 C 205.480469 83.15625 205.496094 83.160156 205.519531 83.160156 C 205.472656 83.15625 205.429688 83.15625 205.386719 83.152344 C 205.414062 83.15625 205.4375 83.15625 205.460938 83.15625 Z M 205.589844 83.160156 C 205.539062 83.160156 205.488281 83.15625 205.4375 83.15625 C 205.488281 83.160156 205.539062 83.160156 205.589844 83.160156 Z M 221.476562 83.382812 C 221.433594 83.382812 221.386719 83.378906 221.34375 83.378906 C 221.386719 83.378906 221.433594 83.382812 221.476562 83.382812 Z M 221.542969 83.386719 C 221.519531 83.386719 221.496094 83.386719 221.476562 83.382812 C 221.496094 83.386719 221.519531 83.386719 221.542969 83.386719 Z M 221.496094 83.386719 C 221.496094 83.386719 221.492188 83.382812 221.488281 83.382812 C 221.558594 83.390625 221.632812 83.390625 221.703125 83.390625 C 221.667969 83.390625 221.632812 83.390625 221.601562 83.390625 C 221.609375 83.390625 221.613281 83.390625 221.621094 83.390625 C 221.574219 83.390625 221.527344 83.386719 221.484375 83.382812 C 221.488281 83.382812 221.492188 83.382812 221.496094 83.386719 Z M 221.652344 83.390625 C 221.625 83.390625 221.59375 83.390625 221.566406 83.390625 C 221.59375 83.390625 221.625 83.390625 221.652344 83.390625 Z M 221.679688 83.390625 C 221.671875 83.390625 221.664062 83.390625 221.652344 83.390625 C 221.664062 83.390625 221.671875 83.390625 221.679688 83.390625 Z M 222.011719 83.402344 C 221.921875 83.398438 221.839844 83.398438 221.75 83.394531 C 221.839844 83.398438 221.921875 83.398438 222.011719 83.402344 Z M 222.046875 83.40625 C 222.035156 83.402344 222.027344 83.402344 222.011719 83.402344 C 222.027344 83.402344 222.035156 83.402344 222.046875 83.40625 Z M 220.242188 83.339844 C 220.273438 83.339844 220.308594 83.34375 220.339844 83.34375 C 220.308594 83.34375 220.273438 83.339844 220.242188 83.339844 Z M 220.253906 83.339844 C 220.335938 83.34375 220.421875 83.347656 220.511719 83.347656 C 220.421875 83.347656 220.335938 83.34375 220.253906 83.339844 Z M 235.300781 77.15625 C 234.488281 83.164062 233.007812 81.070312 228.164062 81.222656 C 222.753906 81.078125 217.339844 81.023438 211.933594 80.921875 C 209.925781 80.765625 207.902344 80.8125 205.902344 81.023438 C 203.386719 81.105469 200.160156 82.425781 198.144531 80.375 C 199.253906 83.1875 202.96875 83.003906 205.507812 83.160156 C 205.484375 83.15625 205.460938 83.15625 205.433594 83.15625 C 205.4375 83.15625 205.4375 83.15625 205.4375 83.15625 C 205.371094 83.152344 205.308594 83.152344 205.246094 83.148438 C 205.285156 83.152344 205.324219 83.152344 205.363281 83.152344 C 205.351562 83.152344 205.332031 83.152344 205.320312 83.152344 C 205.925781 83.171875 206.535156 83.179688 207.144531 83.203125 C 207.042969 83.195312 206.945312 83.191406 206.847656 83.191406 C 211.417969 83.484375 215.980469 83.378906 220.554688 83.351562 C 220.546875 83.351562 220.542969 83.351562 220.539062 83.347656 C 220.597656 83.351562 220.65625 83.355469 220.71875 83.359375 C 220.679688 83.355469 220.640625 83.355469 220.601562 83.351562 C 220.894531 83.363281 221.195312 83.375 221.488281 83.382812 C 221.484375 83.382812 221.476562 83.382812 221.472656 83.382812 C 221.476562 83.382812 221.476562 83.382812 221.484375 83.382812 C 221.464844 83.382812 221.457031 83.382812 221.441406 83.382812 C 221.507812 83.386719 221.578125 83.390625 221.644531 83.390625 C 221.636719 83.390625 221.628906 83.390625 221.621094 83.390625 C 221.652344 83.390625 221.683594 83.390625 221.714844 83.390625 C 221.710938 83.390625 221.703125 83.390625 221.703125 83.390625 C 221.714844 83.390625 221.726562 83.394531 221.738281 83.394531 C 221.71875 83.394531 221.699219 83.390625 221.679688 83.390625 C 224.851562 83.535156 228.027344 83.484375 231.195312 83.355469 C 235.871094 83.472656 236.140625 81.078125 235.300781 77.15625 "/><path style=" stroke:none;fill-rule:nonzero;fill:#ffffff;fill-opacity:1;" d="M 209.816406 25.910156 C 209.828125 25.910156 209.835938 25.910156 209.84375 25.910156 C 209.816406 25.910156 209.789062 25.910156 209.761719 25.910156 C 209.78125 25.910156 209.800781 25.910156 209.816406 25.910156 Z M 209.851562 25.910156 C 209.863281 25.914062 209.871094 25.914062 209.882812 25.914062 C 209.867188 25.914062 209.851562 25.910156 209.832031 25.910156 C 209.839844 25.910156 209.84375 25.910156 209.851562 25.910156 Z M 209.902344 25.914062 C 209.925781 25.914062 209.957031 25.917969 209.984375 25.917969 C 209.949219 25.914062 209.917969 25.914062 209.882812 25.914062 C 209.890625 25.914062 209.894531 25.914062 209.902344 25.914062 Z M 209.964844 25.917969 C 209.96875 25.917969 209.976562 25.917969 209.980469 25.917969 C 209.949219 25.917969 209.917969 25.914062 209.886719 25.914062 C 209.914062 25.914062 209.9375 25.914062 209.964844 25.917969 Z M 209.972656 25.917969 C 209.980469 25.917969 209.988281 25.917969 210 25.917969 C 209.988281 25.917969 209.980469 25.917969 209.96875 25.917969 C 209.96875 25.917969 209.972656 25.917969 209.972656 25.917969 Z M 209.976562 25.917969 C 209.984375 25.917969 209.988281 25.917969 209.992188 25.917969 C 209.988281 25.917969 209.984375 25.917969 209.980469 25.917969 C 210.007812 25.917969 210.03125 25.921875 210.058594 25.921875 C 210.03125 25.921875 210.007812 25.917969 209.984375 25.917969 C 210.023438 25.921875 210.0625 25.921875 210.105469 25.921875 C 210.101562 25.921875 210.101562 25.921875 210.101562 25.921875 C 210.109375 25.921875 210.121094 25.921875 210.132812 25.921875 C 210.082031 25.921875 210.027344 25.917969 209.976562 25.917969 Z M 209.992188 25.917969 C 209.988281 25.917969 209.984375 25.917969 209.980469 25.917969 C 209.984375 25.917969 209.988281 25.917969 209.992188 25.917969 Z M 211.445312 25.96875 C 211.464844 25.96875 211.484375 25.972656 211.503906 25.972656 C 211.480469 25.972656 211.457031 25.96875 211.433594 25.96875 C 211.4375 25.96875 211.441406 25.96875 211.445312 25.96875 Z M 225.375 26.117188 C 225.390625 26.117188 225.40625 26.121094 225.421875 26.121094 C 225.347656 26.117188 225.273438 26.117188 225.199219 26.113281 C 225.261719 26.117188 225.316406 26.117188 225.375 26.117188 Z M 225.40625 26.121094 C 225.386719 26.117188 225.367188 26.117188 225.347656 26.117188 C 225.367188 26.117188 225.386719 26.117188 225.40625 26.121094 Z M 211.972656 25.988281 C 212.003906 25.988281 212.035156 25.992188 212.066406 25.992188 C 212.035156 25.992188 212.003906 25.988281 211.972656 25.988281 Z M 211.84375 25.984375 C 211.863281 25.984375 211.882812 25.984375 211.90625 25.984375 C 211.882812 25.984375 211.863281 25.984375 211.84375 25.984375 Z M 211.0625 25.957031 C 211.121094 25.957031 211.183594 25.960938 211.246094 25.960938 C 211.183594 25.960938 211.121094 25.957031 211.0625 25.957031 Z M 210.507812 25.933594 C 210.605469 25.941406 210.703125 25.941406 210.804688 25.945312 C 210.796875 25.945312 210.792969 25.945312 210.785156 25.945312 C 210.804688 25.945312 210.824219 25.949219 210.839844 25.949219 C 210.765625 25.945312 210.691406 25.941406 210.621094 25.941406 C 210.691406 25.941406 210.765625 25.945312 210.839844 25.949219 C 210.730469 25.941406 210.621094 25.941406 210.507812 25.933594 Z M 209.722656 25.90625 C 209.734375 25.910156 209.75 25.910156 209.757812 25.910156 C 209.75 25.910156 209.734375 25.910156 209.722656 25.90625 Z M 205.859375 25.851562 C 203.664062 25.9375 201.441406 25.925781 199.289062 26.402344 C 197.570312 26.671875 196.671875 27.789062 197.023438 29.539062 C 197.058594 29.777344 197.105469 30.03125 197.152344 30.257812 C 197.234375 29.875 197.304688 29.488281 197.417969 29.109375 C 197.660156 27.773438 198.796875 27.722656 199.929688 27.800781 C 201.21875 27.855469 202.503906 28.003906 203.792969 28.089844 C 207.496094 28.292969 211.210938 28.234375 214.914062 28.089844 C 222.003906 27.902344 229.105469 27.5 236.167969 27.003906 C 232.578125 26.347656 228.867188 26.277344 225.21875 26.113281 C 225.261719 26.117188 225.304688 26.117188 225.347656 26.117188 C 220.824219 25.992188 216.300781 26.117188 211.777344 25.984375 C 211.792969 25.984375 211.804688 25.984375 211.820312 25.984375 C 211.75 25.980469 211.683594 25.976562 211.617188 25.976562 C 211.679688 25.976562 211.742188 25.980469 211.804688 25.984375 C 211.78125 25.984375 211.761719 25.980469 211.738281 25.980469 C 211.75 25.980469 211.761719 25.980469 211.777344 25.984375 C 211.699219 25.980469 211.621094 25.976562 211.542969 25.972656 C 211.636719 25.976562 211.734375 25.980469 211.832031 25.984375 C 211.722656 25.980469 211.613281 25.976562 211.503906 25.972656 C 211.554688 25.972656 211.605469 25.976562 211.65625 25.976562 C 211.5625 25.972656 211.464844 25.96875 211.367188 25.964844 C 211.390625 25.96875 211.410156 25.96875 211.433594 25.96875 C 210.992188 25.953125 210.546875 25.9375 210.105469 25.921875 C 210.148438 25.921875 210.191406 25.925781 210.234375 25.925781 C 210.082031 25.921875 209.929688 25.914062 209.777344 25.910156 C 209.8125 25.910156 209.851562 25.910156 209.886719 25.914062 C 209.847656 25.910156 209.8125 25.910156 209.773438 25.910156 C 209.839844 25.910156 209.910156 25.914062 209.980469 25.917969 C 209.976562 25.917969 209.96875 25.917969 209.964844 25.917969 C 209.96875 25.917969 209.976562 25.917969 209.976562 25.917969 C 209.992188 25.917969 210.007812 25.917969 210.023438 25.917969 C 209.964844 25.917969 209.902344 25.914062 209.84375 25.910156 C 209.847656 25.910156 209.851562 25.910156 209.859375 25.910156 C 209.804688 25.910156 209.75 25.910156 209.699219 25.90625 C 209.71875 25.90625 209.738281 25.910156 209.761719 25.910156 C 209.738281 25.910156 209.714844 25.90625 209.691406 25.90625 C 209.785156 25.910156 209.875 25.914062 209.96875 25.917969 C 208.601562 25.847656 207.230469 25.800781 205.859375 25.851562 "/><path style=" stroke:none;fill-rule:nonzero;fill:#ffffff;fill-opacity:1;" d="M 212.109375 35.105469 C 210.160156 35.835938 210.976562 40.050781 210.765625 41.777344 C 210.746094 43.617188 210.574219 45.445312 210.484375 47.28125 C 210.53125 53.9375 209 60.632812 210.425781 67.226562 C 210.503906 68.351562 210.339844 68.871094 210.859375 67.359375 C 211.304688 64.941406 211.386719 62.464844 211.628906 60.015625 C 212.121094 53.910156 211.847656 47.78125 212.203125 41.667969 C 212.257812 40.066406 212.097656 38.425781 212.539062 36.863281 C 212.863281 36.320312 213.773438 36.714844 214.316406 36.640625 C 215.597656 36.632812 216.839844 36.21875 218.101562 36.0625 C 216.859375 35.808594 215.566406 35.847656 214.359375 35.449219 C 213.644531 35.207031 212.871094 34.890625 212.109375 35.105469 "/><path style=" stroke:none;fill-rule:nonzero;fill:#ffffff;fill-opacity:1;" d="M 228.363281 37.875 C 227.445312 43.96875 227.34375 50.167969 227.007812 56.316406 C 226.9375 60.089844 226.234375 63.816406 226.25 67.585938 C 223.226562 68.4375 220.003906 67.714844 216.972656 68.582031 C 216.035156 68.828125 212.332031 69.464844 215.101562 69.457031 C 218.265625 69.679688 221.460938 69.941406 224.632812 69.886719 C 225.394531 69.835938 226.164062 69.730469 226.929688 69.785156 C 227.882812 70.15625 228.925781 69.441406 229.070312 68.460938 C 229.054688 63.59375 229.179688 58.699219 229.097656 53.816406 C 229.082031 48.496094 228.480469 43.1875 228.363281 37.875 "/><path style=" stroke:none;fill-rule:nonzero;fill:#ffffff;fill-opacity:1;" d="M 227.253906 37.167969 C 227.261719 37.179688 227.273438 37.191406 227.28125 37.203125 C 227.273438 37.191406 227.261719 37.179688 227.253906 37.167969 Z M 223.726562 35.976562 C 222.765625 36.03125 221.808594 36.207031 220.9375 36.628906 C 221.734375 36.773438 222.546875 36.960938 223.355469 37.089844 C 224.636719 37.304688 225.925781 36.949219 227.210938 37.121094 C 227.417969 37.378906 227.515625 37.714844 227.648438 38.019531 C 227.648438 38.011719 227.644531 38.007812 227.644531 38 C 227.664062 38.050781 227.683594 38.097656 227.703125 38.148438 C 227.699219 38.144531 227.699219 38.144531 227.699219 38.140625 C 227.84375 38.230469 227.933594 36.804688 227.605469 36.574219 C 226.441406 35.929688 225.03125 35.824219 223.726562 35.976562 "/><path style=" stroke:none;fill-rule:nonzero;fill:#ffffff;fill-opacity:1;" d="M 203.492188 28.9375 C 202.902344 36.757812 202.414062 44.605469 202.773438 52.449219 C 202.832031 56.9375 202.394531 61.425781 202.644531 65.914062 C 202.773438 69.492188 203.246094 73.035156 204.003906 76.53125 C 204.269531 75.304688 204.4375 74.046875 204.53125 72.789062 C 204.925781 68.355469 204.722656 63.90625 204.464844 59.476562 C 204.433594 55.898438 204.28125 52.324219 203.976562 48.757812 C 203.597656 42.160156 203.878906 35.515625 203.492188 28.9375 "/><path style=" stroke:none;fill-rule:nonzero;fill:#ffffff;fill-opacity:1;" d="M 230.882812 71.351562 C 230.851562 71.359375 230.824219 71.367188 230.792969 71.371094 C 230.820312 71.363281 230.851562 71.355469 230.882812 71.351562 Z M 230.976562 71.246094 C 230.96875 71.257812 230.960938 71.273438 230.953125 71.285156 C 230.960938 71.273438 230.96875 71.257812 230.976562 71.246094 Z M 231.28125 70.449219 C 231.277344 70.457031 231.277344 70.46875 231.273438 70.476562 C 231.277344 70.46875 231.277344 70.457031 231.28125 70.449219 Z M 231.441406 69.753906 C 231.105469 71.777344 230.757812 71.367188 228.996094 71.273438 C 227.285156 71.203125 225.566406 71.167969 223.851562 71.214844 C 219.421875 71.3125 215.007812 71.753906 210.585938 71.960938 C 209.800781 72.015625 209.027344 72.097656 208.257812 72.261719 C 209.433594 72.316406 210.628906 72.382812 211.800781 72.574219 C 217.371094 73.289062 223.039062 73.78125 228.605469 72.757812 C 230.699219 72.328125 232.226562 72.460938 231.441406 69.753906 "/><path style=" stroke:none;fill-rule:nonzero;fill:#ffffff;fill-opacity:1;" d="M 223.421875 74.773438 C 217.246094 74.75 211.117188 75.726562 204.949219 75.761719 C 204.375 75.777344 203.777344 75.792969 203.222656 75.921875 C 206.871094 76.1875 210.523438 76.382812 214.175781 76.515625 C 219.289062 76.855469 224.429688 76.867188 229.480469 75.921875 C 230.292969 75.792969 231.121094 75.671875 231.917969 75.507812 C 229.738281 75.015625 227.523438 74.722656 225.28125 74.773438 C 225.292969 74.777344 225.300781 74.777344 225.3125 74.777344 C 225.304688 74.777344 225.300781 74.777344 225.292969 74.777344 C 225.363281 74.777344 225.433594 74.777344 225.507812 74.78125 C 224.8125 74.765625 224.117188 74.773438 223.421875 74.773438 "/><path style=" stroke:none;fill-rule:nonzero;fill:#ffffff;fill-opacity:1;" d="M 198.914062 104.488281 C 198.917969 104.5 198.921875 104.507812 198.921875 104.515625 C 198.921875 104.507812 198.917969 104.5 198.914062 104.488281 Z M 239.421875 99.570312 C 239.429688 99.574219 239.433594 99.574219 239.4375 99.574219 C 239.433594 99.574219 239.425781 99.574219 239.421875 99.570312 Z M 205.078125 97.207031 C 202.625 97.332031 200.0625 97.746094 197.8125 98.726562 C 196.570312 99.589844 197.644531 101.121094 197.761719 102.285156 C 197.972656 103.46875 198.363281 104.59375 199.167969 105.507812 C 198.628906 103.851562 198.925781 102.074219 198.882812 100.359375 C 208.722656 99.109375 218.699219 99.34375 228.597656 99.765625 C 231.132812 99.785156 233.667969 99.492188 236.203125 99.503906 C 236.945312 99.59375 239.492188 99.441406 239.664062 100.042969 C 239.664062 100.039062 239.664062 100.03125 239.667969 100.03125 C 239.644531 100.113281 239.589844 100.199219 239.566406 100.277344 C 239.875 100.019531 239.933594 99.648438 239.441406 99.574219 C 236.195312 98.550781 232.722656 98.78125 229.359375 98.589844 C 221.285156 97.832031 213.191406 97.308594 205.078125 97.207031 "/><path style=" stroke:none;fill-rule:nonzero;fill:#ffffff;fill-opacity:1;" d="M 229.617188 108.488281 C 229.625 108.488281 229.625 108.492188 229.628906 108.492188 C 229.625 108.492188 229.625 108.488281 229.617188 108.488281 Z M 229.609375 108.449219 C 229.617188 108.453125 229.625 108.460938 229.636719 108.464844 C 229.625 108.460938 229.617188 108.453125 229.609375 108.449219 Z M 216.914062 107.761719 C 216.945312 107.761719 216.984375 107.765625 217.015625 107.769531 C 216.984375 107.765625 216.945312 107.761719 216.914062 107.761719 Z M 219.609375 105.695312 C 215.753906 105.976562 211.933594 106.589844 208.074219 106.847656 C 213.066406 107.832031 218.203125 107.75 223.269531 108.121094 C 223.261719 108.121094 223.25 108.117188 223.242188 108.117188 C 225.378906 108.382812 227.554688 108.191406 229.675781 108.515625 C 230.128906 109.65625 230.476562 110.867188 230.46875 112.105469 C 231.074219 110.902344 231.023438 109.511719 230.933594 108.199219 C 231.109375 105.714844 221.488281 105.578125 219.609375 105.695312 "/><path style=" stroke:none;fill-rule:nonzero;fill:#ffffff;fill-opacity:1;" d="M 210.722656 119.234375 C 210.691406 163.242188 212.042969 207.261719 210.960938 251.273438 C 210.960938 251.214844 210.960938 251.15625 210.960938 251.097656 C 210.945312 255.886719 210.503906 260.699219 210.8125 265.472656 C 210.890625 266.179688 211.261719 266.949219 212.09375 266.855469 C 213.761719 266.792969 215.429688 266.675781 217.089844 266.511719 C 218.804688 266.339844 220.507812 266.058594 222.191406 265.695312 C 219.242188 265.089844 216.210938 264.84375 213.199219 264.746094 C 211.136719 216.273438 211.417969 167.726562 210.722656 119.234375 "/><path style=" stroke:none;fill-rule:nonzero;fill:#ffffff;fill-opacity:1;" d="M 210.652344 111.097656 C 209.027344 119.234375 210.015625 127.554688 210.097656 135.777344 C 210.570312 148.601562 210.003906 161.507812 211.199219 174.285156 C 212.164062 161.347656 211.382812 148.332031 211.636719 135.367188 C 211.578125 127.277344 212.40625 119.0625 210.652344 111.097656 "/><path style=" stroke:none;fill-rule:nonzero;fill:#ffffff;fill-opacity:1;" d="M 225.957031 113.875 C 225.105469 120.695312 225.523438 127.570312 225.71875 134.417969 C 225.84375 146.414062 226.21875 158.410156 226.359375 170.410156 C 226.589844 189.667969 226.484375 208.925781 226.382812 228.183594 C 226.566406 237.820312 225.609375 247.488281 226.453125 257.097656 C 226.617188 258.667969 226.902344 260.230469 227.230469 261.769531 C 227.675781 259.503906 227.976562 257.214844 228.082031 254.902344 C 227.714844 226.058594 226.511719 197.195312 226.511719 168.332031 C 226.496094 156.808594 226.625 145.289062 226.550781 133.765625 C 226.648438 127.136719 226.90625 120.453125 225.957031 113.875 "/><path style=" stroke:none;fill-rule:nonzero;fill:#ffffff;fill-opacity:1;" d="M 150.828125 111.375 C 150.324219 116.128906 150.371094 120.929688 150.496094 125.703125 C 150.757812 162.605469 150.6875 199.511719 150.324219 236.414062 C 150.253906 246.277344 149.898438 256.144531 149.863281 266.007812 C 149.949219 267.699219 151.949219 267.234375 153.113281 267.273438 C 153.820312 267.277344 154.53125 267.265625 155.234375 267.246094 C 158.074219 267.167969 160.914062 266.992188 163.726562 266.613281 C 165.035156 266.441406 166.339844 266.210938 167.625 265.953125 C 162.652344 264.953125 157.566406 264.679688 152.503906 264.691406 C 151.335938 219.066406 151.191406 173.417969 151.214844 127.78125 C 151.265625 122.316406 151.453125 116.808594 150.828125 111.375 "/><path style=" stroke:none;fill-rule:nonzero;fill:#ffffff;fill-opacity:1;" d="M 166.808594 107.523438 C 162.109375 107.664062 157.394531 107.960938 152.777344 108.917969 C 156.929688 109.78125 161.191406 110.050781 165.425781 110.222656 C 166.28125 147.816406 166.757812 185.425781 166.449219 223.023438 C 166.402344 229.421875 166.15625 235.835938 166.722656 242.21875 C 166.824219 243.375 166.933594 244.535156 167.121094 245.683594 C 167.4375 243.6875 167.566406 241.648438 167.6875 239.628906 C 167.785156 206.023438 167.160156 172.398438 167.757812 138.785156 C 167.886719 129.949219 168.0625 121.113281 168.230469 112.273438 C 168.023438 110.703125 169.007812 107.714844 166.808594 107.523438 "/><path style=" stroke:none;fill-rule:nonzero;fill:#ffffff;fill-opacity:1;" d="M 209.472656 305.0625 C 208.246094 315.777344 208.746094 326.585938 208.363281 337.34375 C 208.425781 339.566406 212.320312 338.515625 213.808594 338.660156 C 216.632812 338.539062 219.453125 338.351562 222.25 337.972656 C 223.617188 337.792969 224.988281 337.566406 226.332031 337.285156 C 224.683594 336.957031 223.023438 336.699219 221.351562 336.519531 C 221.363281 336.519531 221.371094 336.519531 221.382812 336.519531 C 217.964844 336.148438 214.527344 335.929688 211.09375 335.917969 C 210.707031 325.628906 211.117188 315.292969 209.882812 305.058594 C 209.882812 305.058594 209.878906 305.058594 209.878906 305.058594 C 209.867188 304.804688 209.484375 304.792969 209.472656 305.0625 "/><path style=" stroke:none;fill-rule:nonzero;fill:#ffffff;fill-opacity:1;" d="M 152.3125 309.980469 C 150.84375 319.394531 151.011719 328.96875 150.960938 338.46875 C 151.210938 340.785156 154.355469 339.5625 155.898438 339.6875 C 159.40625 339.464844 162.914062 339.148438 166.351562 338.417969 C 162.234375 337.554688 158.003906 337.304688 153.800781 337.078125 C 153.652344 328.039062 153.773438 318.921875 152.3125 309.980469 "/><path style=" stroke:none;fill-rule:nonzero;fill:#ffffff;fill-opacity:1;" d="M 168.242188 303.503906 C 163.46875 303.703125 158.675781 303.964844 153.992188 304.945312 C 158.195312 305.832031 162.515625 306.074219 166.800781 306.277344 C 166.953125 315.101562 166.933594 323.96875 167.746094 332.761719 C 168.433594 339.660156 168.363281 337.386719 168.945312 332.191406 C 169.507812 326.644531 169.460938 321.070312 169.585938 315.5 C 169.632812 312.683594 169.765625 309.863281 169.761719 307.046875 C 169.597656 305.773438 170.109375 303.554688 168.242188 303.503906 "/><path style=" stroke:none;fill-rule:nonzero;fill:#ffffff;fill-opacity:1;" d="M 227.535156 303.828125 C 223.351562 304.074219 219.15625 304.371094 215.046875 305.21875 C 218.6875 305.976562 222.421875 306.242188 226.132812 306.476562 C 226.089844 314.289062 226.339844 322.140625 227.605469 329.863281 C 227.914062 328.109375 228.101562 326.320312 228.289062 324.542969 C 228.664062 320.882812 228.929688 317.210938 228.925781 313.535156 C 228.953125 311.242188 229.046875 308.953125 228.996094 306.660156 C 228.933594 305.5625 229.085938 303.816406 227.535156 303.828125 "/><path style=" stroke:none;fill-rule:nonzero;fill:#ffffff;fill-opacity:1;" d="M 174.316406 274.539062 C 174.308594 274.539062 174.304688 274.539062 174.296875 274.539062 C 174.304688 274.539062 174.308594 274.539062 174.316406 274.539062 Z M 140.074219 271.546875 C 138.871094 275.695312 140.195312 275.941406 143.992188 276.097656 C 147.113281 276.367188 150.238281 276.613281 153.375 276.582031 C 160.84375 276.417969 168.503906 277.054688 175.722656 274.738281 C 176.765625 274.347656 176.847656 274.324219 175.636719 274.46875 C 175.648438 274.46875 175.660156 274.46875 175.671875 274.46875 C 171.492188 274.742188 167.304688 274.585938 163.128906 274.324219 C 159.425781 274.175781 155.722656 274.261719 152.019531 274.003906 C 149.128906 273.859375 146.210938 273.78125 143.332031 274.144531 C 140.179688 274.75 140.546875 274.507812 140.074219 271.546875 "/><path style=" stroke:none;fill-rule:nonzero;fill:#ffffff;fill-opacity:1;" d="M 199.230469 265.503906 C 198.632812 268.019531 198.421875 270.640625 198.789062 273.207031 C 199.238281 276.671875 204.34375 275.628906 206.851562 275.867188 C 214.992188 275.714844 223.144531 275.363281 231.207031 274.210938 C 232.042969 274.125 237.964844 273.113281 235.386719 273.234375 C 235.394531 273.234375 235.402344 273.234375 235.40625 273.234375 C 231.511719 273.191406 227.613281 272.882812 223.714844 272.984375 C 219.164062 273.21875 214.601562 273.175781 210.046875 273.171875 C 207.628906 273.15625 205.21875 272.976562 202.800781 273.023438 C 201.277344 273.042969 200.742188 273.265625 200.445312 271.515625 C 199.972656 269.527344 199.566406 267.511719 199.230469 265.503906 "/><path style=" stroke:none;fill-rule:nonzero;fill:#ffffff;fill-opacity:1;" d="M 180.457031 299.023438 C 180.457031 299.035156 180.457031 299.039062 180.457031 299.042969 C 180.457031 299.039062 180.457031 299.035156 180.457031 299.023438 Z M 178.988281 295.449219 C 178.992188 295.457031 178.996094 295.460938 179 295.464844 C 178.996094 295.460938 178.992188 295.457031 178.988281 295.449219 Z M 170.785156 292.8125 C 164.476562 293.105469 158.167969 293.390625 151.855469 293.390625 C 148.03125 293.671875 144.242188 294.472656 140.527344 295.394531 C 141.8125 295.550781 143.113281 295.730469 144.410156 295.84375 C 150.636719 296.171875 156.894531 295.820312 163.105469 295.359375 C 168.371094 295.082031 173.695312 294.425781 178.914062 295.433594 C 179.449219 297.105469 179.753906 298.882812 180.472656 300.492188 C 180.414062 299.402344 180.484375 298.3125 180.546875 297.230469 C 180.578125 295.894531 181.070312 293.953125 179.378906 293.464844 C 176.636719 292.53125 173.640625 292.84375 170.785156 292.8125 "/><path style=" stroke:none;fill-rule:nonzero;fill:#ffffff;fill-opacity:1;" d="M 230.976562 294.328125 C 231.007812 294.328125 231.035156 294.328125 231.066406 294.328125 C 231.035156 294.328125 231.007812 294.328125 230.976562 294.328125 Z M 231.128906 294.328125 C 231.097656 294.328125 231.066406 294.328125 231.039062 294.328125 C 231.066406 294.328125 231.097656 294.328125 231.128906 294.328125 Z M 231.191406 294.328125 C 231.1875 294.328125 231.183594 294.328125 231.179688 294.328125 C 231.183594 294.328125 231.1875 294.328125 231.191406 294.328125 Z M 207.515625 293.015625 C 205.109375 293.3125 202.738281 293.871094 200.445312 294.660156 C 202.9375 294.835938 205.445312 294.988281 207.945312 294.988281 C 215.664062 294.796875 223.359375 294.0625 231.089844 294.328125 C 231.078125 294.328125 231.058594 294.328125 231.039062 294.328125 C 231.054688 294.328125 231.066406 294.328125 231.078125 294.328125 C 231.074219 294.328125 231.070312 294.328125 231.066406 294.328125 C 233.273438 294.371094 235.515625 294.148438 237.695312 294.570312 C 238.070312 295.839844 238.457031 297.105469 238.726562 298.402344 C 238.773438 298.039062 238.824219 297.648438 238.855469 297.277344 C 239.332031 292.003906 238.636719 293.921875 233.847656 293.335938 C 225.085938 293.070312 216.261719 292.109375 207.515625 293.015625 "/><path style=" stroke:none;fill-rule:nonzero;fill:#ffffff;fill-opacity:1;" d="M 212.886719 346.714844 C 212.878906 346.714844 212.871094 346.714844 212.863281 346.714844 C 212.929688 346.714844 212.992188 346.714844 213.054688 346.714844 C 212.996094 346.714844 212.941406 346.714844 212.886719 346.714844 Z M 212.765625 346.71875 C 212.75 346.71875 212.734375 346.71875 212.71875 346.71875 C 212.75 346.71875 212.777344 346.71875 212.808594 346.71875 C 212.792969 346.71875 212.777344 346.71875 212.765625 346.71875 Z M 212.371094 346.722656 C 212.414062 346.722656 212.449219 346.722656 212.488281 346.722656 C 212.449219 346.722656 212.414062 346.722656 212.371094 346.722656 Z M 211.84375 346.730469 C 211.863281 346.730469 211.882812 346.730469 211.898438 346.730469 C 211.882812 346.730469 211.863281 346.730469 211.84375 346.730469 Z M 211.769531 346.730469 C 211.800781 346.730469 211.832031 346.730469 211.859375 346.730469 C 211.832031 346.730469 211.800781 346.730469 211.769531 346.730469 Z M 211.632812 346.734375 C 211.679688 346.734375 211.726562 346.730469 211.769531 346.730469 C 211.726562 346.730469 211.679688 346.734375 211.632812 346.734375 Z M 211.191406 346.738281 C 211.183594 346.738281 211.179688 346.738281 211.171875 346.738281 C 211.175781 346.738281 211.179688 346.738281 211.179688 346.738281 C 211.199219 346.738281 211.222656 346.734375 211.242188 346.734375 C 211.226562 346.734375 211.210938 346.734375 211.199219 346.738281 C 211.230469 346.734375 211.257812 346.734375 211.285156 346.734375 C 211.253906 346.734375 211.222656 346.734375 211.191406 346.738281 Z M 210.953125 346.742188 Z M 210.824219 346.742188 C 210.816406 346.742188 210.8125 346.742188 210.804688 346.742188 C 210.8125 346.742188 210.816406 346.742188 210.824219 346.742188 Z M 210.875 346.742188 C 210.84375 346.742188 210.808594 346.742188 210.777344 346.742188 C 210.808594 346.742188 210.84375 346.742188 210.875 346.742188 Z M 208.929688 346.742188 C 208.894531 346.742188 208.859375 346.742188 208.824219 346.742188 C 208.859375 346.742188 208.894531 346.742188 208.929688 346.742188 Z M 212.796875 346.71875 C 212.71875 346.71875 212.644531 346.71875 212.570312 346.722656 C 212.644531 346.71875 212.71875 346.71875 212.796875 346.71875 Z M 199.226562 343.570312 C 197.71875 348.925781 201.964844 348.597656 205.847656 348.921875 C 211.503906 349.210938 217.164062 348.445312 222.824219 348.386719 C 227.777344 348.0625 232.757812 347.425781 237.625 346.539062 C 229.304688 346.804688 220.976562 346.765625 212.652344 346.71875 C 212.710938 346.71875 212.769531 346.71875 212.828125 346.71875 C 212.820312 346.71875 212.8125 346.71875 212.808594 346.71875 C 212.917969 346.714844 213.023438 346.714844 213.140625 346.710938 C 213.023438 346.714844 212.90625 346.714844 212.789062 346.71875 C 212.808594 346.71875 212.828125 346.71875 212.847656 346.714844 C 212.726562 346.71875 212.609375 346.71875 212.488281 346.722656 C 212.515625 346.722656 212.542969 346.722656 212.570312 346.722656 C 212.476562 346.722656 212.382812 346.722656 212.289062 346.722656 C 212.320312 346.722656 212.34375 346.722656 212.371094 346.722656 C 212.257812 346.722656 212.140625 346.726562 212.023438 346.726562 C 212.117188 346.726562 212.207031 346.722656 212.300781 346.722656 C 212.167969 346.722656 212.035156 346.726562 211.898438 346.730469 C 211.941406 346.726562 211.984375 346.726562 212.023438 346.726562 C 211.929688 346.730469 211.835938 346.730469 211.742188 346.730469 C 211.777344 346.730469 211.8125 346.730469 211.84375 346.730469 C 211.769531 346.730469 211.703125 346.730469 211.628906 346.734375 C 211.632812 346.734375 211.632812 346.734375 211.632812 346.734375 C 211.53125 346.726562 211.429688 346.734375 211.3125 346.734375 C 211.324219 346.734375 211.335938 346.734375 211.347656 346.734375 C 211.324219 346.734375 211.304688 346.734375 211.285156 346.734375 C 211.300781 346.734375 211.3125 346.734375 211.328125 346.734375 C 211.300781 346.734375 211.273438 346.734375 211.242188 346.734375 C 211.246094 346.734375 211.25 346.734375 211.253906 346.734375 C 211.183594 346.738281 211.113281 346.738281 211.042969 346.738281 C 211.085938 346.738281 211.136719 346.738281 211.179688 346.738281 C 211.148438 346.738281 211.117188 346.738281 211.085938 346.738281 C 211.117188 346.738281 211.144531 346.738281 211.171875 346.738281 C 211.097656 346.738281 211.023438 346.738281 210.953125 346.742188 C 210.96875 346.738281 210.980469 346.738281 210.996094 346.738281 C 210.976562 346.738281 210.957031 346.742188 210.941406 346.742188 C 210.941406 346.742188 210.949219 346.742188 210.953125 346.742188 C 210.9375 346.742188 210.921875 346.742188 210.910156 346.742188 C 210.957031 346.742188 211.003906 346.738281 211.050781 346.738281 C 210.359375 346.734375 209.675781 346.734375 208.992188 346.738281 C 209.03125 346.738281 209.078125 346.738281 209.121094 346.738281 C 207.933594 346.734375 206.742188 346.726562 205.554688 346.722656 C 205.621094 346.71875 205.683594 346.71875 205.75 346.71875 C 203.933594 346.582031 202 347.222656 200.257812 346.578125 C 199.46875 345.855469 199.515625 344.542969 199.226562 343.570312 "/><path style=" stroke:none;fill-rule:nonzero;fill:#ffffff;fill-opacity:1;" d="M 233.664062 339.664062 C 233.265625 340.332031 233.378906 341.425781 232.777344 341.890625 C 230.972656 342.035156 229.140625 341.914062 227.324219 341.988281 C 220.511719 341.957031 213.75 342.804688 206.984375 343.496094 C 202.472656 343.613281 209.480469 344.046875 210.769531 344.039062 C 216.914062 344.285156 223.125 344.714844 229.234375 343.820312 C 230.675781 343.382812 232.644531 343.550781 233.65625 342.296875 C 233.9375 341.460938 233.613281 340.523438 233.664062 339.664062 "/><path style=" stroke:none;fill-rule:nonzero;fill:#ffffff;fill-opacity:1;" d="M 203.363281 300.238281 C 203.359375 300.238281 203.359375 300.242188 203.355469 300.246094 C 203.359375 300.242188 203.359375 300.238281 203.363281 300.238281 Z M 203.496094 300.144531 C 203.484375 300.152344 203.46875 300.160156 203.453125 300.167969 C 203.453125 300.164062 203.453125 300.164062 203.457031 300.164062 C 203.46875 300.15625 203.484375 300.152344 203.496094 300.144531 Z M 203.507812 300.039062 C 203.507812 300.046875 203.503906 300.050781 203.496094 300.058594 C 203.503906 300.050781 203.507812 300.046875 203.507812 300.039062 Z M 215.617188 297.785156 C 212.367188 297.769531 209.128906 297.859375 205.914062 298.347656 C 204.730469 298.617188 202.722656 298.296875 202.269531 299.71875 C 202.242188 301.101562 202.761719 302.449219 203.082031 303.78125 C 203.25 302.609375 203.3125 301.402344 203.445312 300.21875 C 207.375 300.445312 211.3125 300.285156 215.234375 299.988281 C 221.066406 299.757812 226.890625 299.261719 232.644531 298.316406 C 226.976562 298.015625 221.292969 297.808594 215.617188 297.785156 "/><path style=" stroke:none;fill-rule:nonzero;fill:#ffffff;fill-opacity:1;" d="M 203.554688 307.542969 C 203.574219 307.550781 203.609375 307.546875 203.636719 307.558594 C 203.820312 312.695312 203.117188 317.972656 203.054688 323.160156 C 202.707031 329.894531 202.546875 336.683594 204.09375 343.289062 C 205.390625 336.972656 205.371094 330.496094 205.058594 324.085938 C 205.070312 320.34375 204.707031 316.621094 204.449219 312.894531 C 204.335938 311.25 204.121094 309.609375 203.855469 307.988281 C 203.816406 307.808594 203.800781 307.488281 203.554688 307.542969 "/><path style=" stroke:none;fill-rule:nonzero;fill:#ffffff;fill-opacity:1;" d="M 140.433594 345.542969 C 140.449219 345.550781 140.460938 345.5625 140.476562 345.570312 C 140.460938 345.5625 140.449219 345.550781 140.433594 345.542969 Z M 140.425781 345.53125 C 140.429688 345.53125 140.429688 345.53125 140.429688 345.535156 C 140.429688 345.535156 140.429688 345.53125 140.425781 345.53125 Z M 140.1875 343.8125 C 139.402344 345.152344 139.546875 346.546875 141.339844 346.683594 C 143.253906 346.960938 145.195312 347.066406 147.117188 347.28125 C 155.484375 348.085938 163.925781 348.230469 172.285156 347.242188 C 173.984375 347.003906 175.777344 346.917969 177.390625 346.320312 C 176.023438 346.453125 174.640625 346.363281 173.269531 346.359375 C 168.339844 346.179688 163.40625 346.203125 158.476562 345.992188 C 154.75 345.824219 151.058594 345.21875 147.324219 345.195312 C 145.851562 345.175781 144.367188 345.21875 142.902344 345.394531 C 141.230469 345.578125 139.820312 346.226562 140.1875 343.8125 "/><path style=" stroke:none;fill-rule:nonzero;fill:#ffffff;fill-opacity:1;" d="M 172.140625 343.097656 C 172.140625 343.097656 172.140625 343.097656 172.144531 343.097656 C 172.140625 343.097656 172.140625 343.097656 172.140625 343.097656 Z M 172.125 343.101562 C 172.128906 343.101562 172.136719 343.101562 172.140625 343.097656 C 172.136719 343.101562 172.128906 343.101562 172.125 343.101562 Z M 173.457031 342.980469 C 173.449219 342.980469 173.445312 342.980469 173.4375 342.980469 C 173.445312 342.980469 173.449219 342.980469 173.457031 342.980469 Z M 144.8125 339.445312 C 144.460938 341.410156 144.214844 343.53125 146.910156 343.386719 C 149.417969 343.535156 151.9375 343.613281 154.453125 343.601562 C 160.363281 343.519531 166.285156 343.632812 172.179688 343.09375 C 172.167969 343.097656 172.15625 343.097656 172.144531 343.097656 C 172.914062 343.023438 173.707031 342.980469 174.46875 342.871094 C 173.871094 342.789062 173.273438 342.753906 172.675781 342.71875 C 168.261719 342.523438 163.886719 341.847656 159.476562 341.585938 C 156.011719 341.300781 152.523438 341.25 149.0625 341.617188 C 145.835938 341.757812 145.578125 343.382812 144.8125 339.445312 "/><path style=" stroke:none;fill-rule:nonzero;fill:#ffffff;fill-opacity:1;" d="M 145.160156 300.4375 C 145.152344 300.472656 145.144531 300.503906 145.136719 300.535156 C 145.144531 300.503906 145.152344 300.472656 145.160156 300.4375 Z M 148.027344 297.609375 C 143.328125 297.6875 143.933594 299.722656 144.441406 303.496094 C 145.648438 297.957031 144.960938 299.699219 150.492188 299.84375 C 154.871094 300.058594 159.257812 299.699219 163.636719 299.640625 C 164.929688 299.546875 178.9375 298.769531 173.265625 298.640625 C 165.441406 298.234375 157.625 297.503906 149.78125 297.582031 C 149.878906 297.582031 149.972656 297.582031 150.070312 297.582031 C 150.019531 297.582031 149.96875 297.582031 149.917969 297.582031 C 149.953125 297.582031 149.988281 297.582031 150.027344 297.582031 C 149.359375 297.574219 148.691406 297.566406 148.027344 297.609375 "/><path style=" stroke:none;fill-rule:nonzero;fill:#ffffff;fill-opacity:1;" d="M 144.109375 304.476562 C 143.667969 310.585938 142.984375 316.691406 143.074219 322.820312 C 143.148438 325.394531 143.363281 327.953125 143.601562 330.515625 C 143.703125 332.660156 144.410156 334.796875 144.183594 336.945312 C 146.089844 332.753906 145.3125 326.976562 145.03125 322.457031 C 144.59375 316.476562 144.707031 310.429688 144.109375 304.476562 "/><path style=" stroke:none;fill-rule:nonzero;fill:#ffffff;fill-opacity:1;" d="M 148.015625 96.144531 C 145.460938 96.339844 142.71875 96.289062 140.351562 97.359375 C 138.382812 98.34375 139.242188 100.914062 139.644531 102.589844 C 139.90625 101.40625 139.753906 99.855469 140.605469 98.917969 C 142.222656 98.382812 143.984375 98.796875 145.660156 98.699219 C 150.671875 98.726562 155.683594 98.519531 160.695312 98.613281 C 166.972656 98.894531 173.246094 98.664062 179.519531 98.390625 C 179.636719 98.382812 179.75 98.386719 179.859375 98.382812 C 178.710938 98.0625 177.507812 97.96875 176.328125 97.78125 C 166.949219 96.558594 157.464844 96.285156 148.015625 96.144531 "/><path style=" stroke:none;fill-rule:nonzero;fill:#ffffff;fill-opacity:1;" d="M 175.550781 265.421875 C 174.761719 267.902344 175.21875 270.46875 175.558594 272.964844 C 176.773438 270.625 176.488281 267.804688 175.550781 265.421875 "/><path style=" stroke:none;fill-rule:nonzero;fill:#ffffff;fill-opacity:1;" d="M 171.390625 268.066406 C 171.359375 268.074219 171.328125 268.082031 171.296875 268.089844 C 171.328125 268.082031 171.359375 268.074219 171.390625 268.066406 Z M 172.6875 256.574219 C 171.265625 260.285156 170.628906 264.242188 170.792969 268.210938 C 165.398438 269.097656 159.828125 268.804688 154.558594 270.5 C 154.5625 270.496094 154.5625 270.496094 154.566406 270.496094 C 153.636719 270.75 152.675781 270.953125 151.742188 271.1875 C 155.152344 271.78125 158.636719 271.550781 162.082031 271.5625 C 161.976562 271.5625 161.871094 271.5625 161.761719 271.5625 C 165.296875 271.542969 168.851562 271.3125 172.34375 270.777344 C 174.859375 269.5625 173.128906 266.210938 173.039062 264.113281 C 172.75 261.613281 172.605469 259.085938 172.6875 256.574219 "/><path style=" stroke:none;fill-rule:nonzero;fill:#ffffff;fill-opacity:1;" d="M 161.246094 30.476562 C 158.210938 30.523438 155.171875 30.585938 152.136719 30.535156 C 149.972656 30.636719 143.625 29.902344 143.1875 32.699219 C 143.601562 34.984375 143.945312 37.316406 144.296875 39.613281 C 144.777344 37.542969 145.160156 35.441406 145.121094 33.3125 C 146.714844 33.050781 148.355469 33.289062 149.964844 33.246094 C 153.695312 33.230469 157.414062 32.933594 161.140625 32.746094 C 166.757812 32.796875 172.332031 31.898438 177.90625 31.410156 C 172.40625 30.464844 166.808594 30.640625 161.246094 30.476562 "/><path style=" stroke:none;fill-rule:nonzero;fill:#ffffff;fill-opacity:1;" d="M 145.894531 25.394531 C 145.945312 25.390625 146 25.390625 146.054688 25.386719 C 143.996094 25.613281 141.335938 25.207031 139.785156 26.820312 C 139.285156 27.765625 139.273438 28.917969 139.050781 29.945312 C 140.875 26.625 140.675781 27.21875 144.296875 27.507812 C 147.40625 27.820312 150.511719 28.183594 153.644531 28.179688 C 158.605469 28.152344 163.5625 28.035156 168.519531 28.257812 C 171.664062 28.4375 174.894531 27.8125 177.996094 28.382812 C 179.121094 30.484375 179.296875 32.96875 180.265625 35.128906 C 179.9375 32.867188 181.328125 27.304688 178.859375 26.277344 C 174.460938 25.960938 170.003906 26.449219 165.59375 26.109375 C 161.871094 25.855469 158.144531 25.941406 154.421875 25.769531 C 151.582031 25.640625 148.742188 25.308594 145.894531 25.394531 "/><path style=" stroke:none;fill-rule:nonzero;fill:#ffffff;fill-opacity:1;" d="M 173.726562 74.960938 C 173.742188 74.964844 173.753906 74.96875 173.765625 74.96875 C 173.753906 74.96875 173.742188 74.964844 173.726562 74.960938 Z M 143.671875 68.675781 C 143.320312 70.378906 142.492188 72.613281 143.695312 74.125 C 146.019531 75.890625 149.683594 75.496094 152.488281 75.878906 C 156.222656 76.027344 159.960938 76.195312 163.699219 76.316406 C 166.214844 76.324219 168.714844 76.058594 171.234375 76.078125 C 174.003906 75.855469 176.183594 76.921875 175.558594 73.003906 C 175.273438 73.640625 175.28125 74.625 174.636719 75.019531 C 172.929688 74.964844 171.257812 74.5 169.558594 74.296875 C 163.304688 73.804688 157.027344 73.484375 150.761719 73.105469 C 148.773438 72.96875 146.707031 73.382812 144.765625 72.882812 C 143.820312 71.835938 143.972656 70.019531 143.671875 68.675781 "/><path style=" stroke:none;fill-rule:nonzero;fill:#ffffff;fill-opacity:1;" d="M 147.609375 81.167969 C 147.589844 81.164062 147.566406 81.160156 147.546875 81.160156 C 147.570312 81.160156 147.589844 81.164062 147.609375 81.167969 Z M 147.683594 81.179688 C 147.660156 81.171875 147.636719 81.171875 147.609375 81.167969 C 147.636719 81.171875 147.660156 81.171875 147.683594 81.179688 Z M 147.859375 81.199219 C 147.800781 81.191406 147.742188 81.183594 147.683594 81.179688 C 147.742188 81.183594 147.800781 81.191406 147.859375 81.199219 Z M 139.710938 76.484375 C 139.308594 79.601562 141.304688 80.238281 143.933594 80.605469 C 146.453125 81.054688 149 81.367188 151.558594 81.511719 C 159.613281 81.863281 167.734375 81.957031 175.742188 80.882812 C 180.085938 80.269531 179.800781 80.382812 175.589844 79.957031 C 166.882812 79.078125 158.121094 79.472656 149.398438 78.800781 C 147.386719 78.769531 145.375 78.703125 143.363281 78.796875 C 141.234375 79.011719 140.304688 78.636719 139.710938 76.484375 "/><path style=" stroke:none;fill-rule:nonzero;fill:#ffffff;fill-opacity:1;" d="M 180.699219 38.949219 C 180.621094 39.132812 180.445312 40.148438 180.597656 39.804688 C 179.214844 49.5 178.816406 59.324219 178.800781 69.105469 C 178.691406 72.179688 179.675781 75.332031 178.917969 78.339844 C 181.648438 74.878906 181.078125 64.859375 181.164062 60.324219 C 181.148438 54.335938 181.453125 48.351562 181.085938 42.367188 C 180.941406 41.917969 181.304688 38.273438 180.699219 38.949219 "/><path style=" stroke:none;fill-rule:nonzero;fill:#ffffff;fill-opacity:1;" d="M 182.707031 26.367188 C 182.710938 26.375 182.710938 26.378906 182.714844 26.382812 C 182.710938 26.378906 182.710938 26.375 182.707031 26.367188 Z M 180.546875 24.925781 C 181.839844 25.78125 183.203125 25.839844 182.640625 27.761719 C 182.140625 30.855469 181.726562 34.007812 181.984375 37.148438 C 182.585938 42.816406 182.5625 48.523438 182.972656 54.207031 C 182.84375 62.117188 182.824219 70.074219 183.785156 77.941406 C 183.898438 78.953125 183.90625 79.988281 183.949219 81 C 184.289062 79.871094 184.492188 78.707031 184.59375 77.53125 C 185.140625 71.089844 185.109375 64.628906 184.988281 58.175781 C 185.265625 52.757812 184.769531 47.34375 184.769531 41.929688 C 184.621094 38.214844 184.316406 34.507812 184.261719 30.792969 C 184.042969 29.09375 184.558594 26.925781 183.300781 25.585938 C 182.5 25.058594 181.453125 25.105469 180.546875 24.925781 "/><path style=" stroke:none;fill-rule:nonzero;fill:#ffffff;fill-opacity:1;" d="M 230.652344 192.050781 C 230.652344 192.054688 230.652344 192.0625 230.652344 192.066406 C 230.652344 192.0625 230.652344 192.054688 230.652344 192.050781 Z M 237.042969 188.75 C 235.121094 188.953125 232.964844 188.757812 231.308594 189.90625 C 230.289062 190.632812 229.867188 191.996094 230.804688 192.972656 C 229.941406 189.382812 235.207031 190.707031 237.226562 190.777344 C 239.738281 190.867188 242.214844 191.304688 244.726562 191.429688 C 247.902344 191.621094 251.113281 191.972656 254.265625 191.394531 C 255.34375 191.222656 256.425781 191.1875 257.515625 191.140625 C 257.117188 190.992188 256.699219 190.855469 256.292969 190.71875 C 254.339844 190.070312 252.253906 190.101562 250.25 189.667969 C 245.90625 188.941406 241.457031 188.390625 237.042969 188.75 "/><path style=" stroke:none;fill-rule:nonzero;fill:#ffffff;fill-opacity:1;" d="M 231.605469 193.167969 C 231.609375 193.167969 231.609375 193.167969 231.613281 193.167969 C 231.609375 193.167969 231.609375 193.167969 231.605469 193.167969 Z M 238.898438 192.414062 C 236.441406 192.402344 234.042969 193 231.605469 193.167969 C 232.238281 193.746094 234.855469 193.90625 236.214844 194.15625 C 239.945312 194.671875 243.707031 194.972656 247.46875 195.132812 C 250.179688 195.175781 252.890625 195.011719 255.597656 194.910156 C 256.527344 194.785156 257.707031 195.027344 258.445312 194.34375 C 258.765625 193.988281 258.648438 193.5 258.378906 193.148438 C 258.449219 193.5 258.476562 193.992188 258.023438 194.089844 C 251.707031 193.273438 245.324219 192.050781 238.898438 192.414062 "/><path style=" stroke:none;fill-rule:nonzero;fill:#ffffff;fill-opacity:1;" d="M 253.988281 187.328125 C 252.835938 187.558594 251.652344 188.085938 251.023438 189.125 C 252.886719 188.371094 255.113281 188.578125 256.867188 189.550781 C 258 190.164062 258.5 191.414062 259.035156 192.5 C 259.65625 189.46875 257.054688 186.714844 253.988281 187.328125 "/><path style=" stroke:none;fill-rule:nonzero;fill:#ffffff;fill-opacity:1;" d="M 250.238281 193.398438 C 249.980469 194.808594 251.0625 196.046875 252.1875 196.738281 C 253.714844 197.785156 255.71875 197.71875 257.414062 197.148438 C 258.832031 196.671875 259.023438 195.027344 259.144531 193.742188 C 258.707031 194.28125 258.304688 194.867188 257.828125 195.378906 C 255.976562 196.421875 250.984375 195.75 250.238281 193.398438 "/><path style=" stroke:none;fill-rule:nonzero;fill:#ffffff;fill-opacity:1;" d="M 253.246094 199.78125 C 248.613281 201.128906 248.867188 207.207031 250.875 210.660156 C 251.257812 211.222656 251.886719 211.574219 252.441406 211.949219 C 252.183594 211.472656 251.894531 210.988281 251.695312 210.476562 C 251.460938 209.101562 251.460938 207.679688 251.625 206.296875 C 251.765625 204.398438 252.144531 202.078125 254.078125 201.207031 C 255.183594 201 256.167969 201.777344 257.183594 202.089844 C 256.246094 200.859375 254.984375 199.339844 253.246094 199.78125 "/><path style=" stroke:none;fill-rule:nonzero;fill:#ffffff;fill-opacity:1;" d="M 257.375 201.824219 C 257.988281 203.5 257.421875 205.335938 257.53125 207.078125 C 257.820312 210.484375 257.550781 212.625 253.484375 211.769531 C 253.496094 211.773438 253.507812 211.773438 253.515625 211.777344 C 251.871094 211.273438 257.8125 215.703125 259.46875 210.984375 C 260.179688 209.089844 259.097656 202.976562 257.375 201.824219 "/><path style=" stroke:none;fill-rule:nonzero;fill:#ffffff;fill-opacity:1;" d="M 253.296875 204.980469 C 253.289062 204.988281 253.28125 204.996094 253.277344 205.003906 C 253.28125 204.996094 253.289062 204.988281 253.296875 204.980469 Z M 253.445312 204.6875 C 253.445312 204.691406 253.445312 204.691406 253.445312 204.691406 C 253.445312 204.691406 253.445312 204.691406 253.445312 204.6875 Z M 253.394531 204.554688 C 253.398438 204.578125 253.40625 204.597656 253.414062 204.621094 C 253.402344 204.597656 253.398438 204.578125 253.394531 204.554688 Z M 252.792969 203.71875 C 251.816406 204.050781 251.945312 205.355469 252.761719 205.800781 C 253.765625 206.390625 255.046875 206.207031 256.152344 206.109375 C 255.304688 205.667969 254.347656 205.414062 253.570312 204.851562 C 254.632812 204.640625 255.738281 204.648438 256.8125 204.535156 C 255.617188 203.863281 254.160156 203.261719 252.792969 203.71875 "/><path style=" stroke:none;fill-rule:nonzero;fill:#ffffff;fill-opacity:1;" d="M 254.808594 208.582031 C 254.785156 208.585938 254.765625 208.585938 254.742188 208.585938 C 254.765625 208.585938 254.785156 208.585938 254.808594 208.582031 Z M 255.796875 207.949219 C 255.789062 207.949219 255.789062 207.957031 255.78125 207.960938 C 255.789062 207.957031 255.789062 207.949219 255.796875 207.949219 Z M 253.265625 204.972656 C 253.25 206.0625 252.644531 207.101562 252.882812 208.1875 C 253.152344 209.449219 254.679688 210.460938 255.691406 209.308594 C 256.359375 208.683594 256.832031 207.636719 256.253906 206.808594 C 256.300781 207.625 255.359375 208.664062 254.566406 208.503906 C 253.539062 207.589844 254.054688 206.039062 253.265625 204.972656 "/><path style=" stroke:none;fill-rule:nonzero;fill:#ffffff;fill-opacity:1;" d="M 252.460938 156.710938 C 252.449219 156.710938 252.441406 156.710938 252.429688 156.710938 C 252.441406 156.710938 252.449219 156.710938 252.460938 156.710938 Z M 252.988281 156.105469 C 252.453125 156.246094 251.964844 156.550781 251.585938 156.9375 C 252.855469 156.503906 254.347656 156.457031 255.507812 157.199219 C 257.542969 158.527344 257.636719 161.984375 255.34375 163.101562 C 251.847656 164.707031 248.628906 160.6875 250.859375 157.589844 C 250.859375 157.59375 250.855469 157.597656 250.851562 157.601562 C 247.242188 159.847656 250.53125 167.085938 255.726562 164.574219 C 260.425781 162.15625 258.285156 155.058594 252.988281 156.105469 "/><path style=" stroke:none;fill-rule:nonzero;fill:#ffffff;fill-opacity:1;" d="M 251.671875 160.105469 C 251.671875 160.109375 251.671875 160.113281 251.671875 160.117188 C 251.671875 160.113281 251.671875 160.109375 251.671875 160.105469 Z M 253.320312 157.679688 C 252.957031 157.707031 252.101562 158.320312 252.257812 158.460938 C 254.027344 157.367188 256.105469 158.984375 255.1875 160.929688 C 254.183594 162.855469 251.382812 161.363281 251.621094 159.488281 C 251.023438 160.714844 252.007812 162.492188 253.429688 162.425781 C 253.425781 162.425781 253.414062 162.425781 253.410156 162.425781 C 257.28125 162.726562 257.121094 157.113281 253.320312 157.679688 "/><path style=" stroke:none;fill-rule:nonzero;fill:#ffffff;fill-opacity:1;" d="M 252.039062 134.113281 C 248.46875 135.101562 248.1875 139.839844 248.914062 142.867188 C 249.1875 144.136719 249.472656 145.691406 250.753906 146.320312 C 251.472656 146.679688 252.296875 146.679688 253.082031 146.761719 C 252.554688 146.472656 251.984375 146.207031 251.488281 145.855469 C 249.804688 144.882812 250.304688 137.164062 251.421875 135.71875 C 252.046875 134.980469 252.976562 134.285156 253.976562 134.640625 C 253.492188 134.097656 252.730469 133.917969 252.039062 134.113281 "/><path style=" stroke:none;fill-rule:nonzero;fill:#ffffff;fill-opacity:1;" d="M 254.9375 134.644531 C 255.074219 134.738281 255.203125 134.835938 255.335938 134.933594 C 255.328125 134.925781 255.320312 134.917969 255.3125 134.914062 C 257.4375 136.546875 256.132812 141.136719 256.140625 143.539062 C 255.984375 145.496094 255.8125 146.21875 253.714844 146.621094 C 251.417969 146.753906 252.089844 146.753906 253.851562 147.289062 C 255.605469 147.597656 257.453125 147.058594 257.625 145.039062 C 258.421875 142.242188 259.121094 134.800781 254.9375 134.644531 "/><path style=" stroke:none;fill-rule:nonzero;fill:#ffffff;fill-opacity:1;" d="M 251.558594 140.476562 C 251.554688 140.476562 251.550781 140.476562 251.546875 140.476562 C 251.550781 140.476562 251.554688 140.476562 251.558594 140.476562 Z M 253 139.796875 C 252.347656 139.898438 250.582031 139.675781 251.300781 140.835938 C 251.460938 141.035156 251.734375 141.058594 251.972656 141.074219 C 252.957031 141.171875 253.941406 141.261719 254.917969 141.386719 C 256.695312 141.792969 256.835938 139.335938 253 139.796875 "/><path style=" stroke:none;fill-rule:nonzero;fill:#ffffff;fill-opacity:1;" d="M 247.335938 166.773438 C 247.335938 166.777344 247.335938 166.78125 247.335938 166.78125 C 247.335938 166.777344 247.335938 166.769531 247.335938 166.765625 C 247.335938 166.769531 247.335938 166.769531 247.335938 166.773438 Z M 245.613281 12.992188 C 243.988281 20.507812 244.421875 28.191406 244.726562 35.8125 C 245.164062 48.628906 245.492188 61.445312 245.761719 74.265625 C 246.265625 97.632812 246.664062 121.003906 246.828125 144.378906 C 246.957031 152.65625 246.40625 160.972656 247.171875 169.230469 C 247.265625 168.425781 247.308594 167.601562 247.335938 166.78125 C 247.335938 166.785156 247.335938 166.789062 247.335938 166.792969 C 247.335938 166.777344 247.335938 166.761719 247.335938 166.742188 C 247.335938 166.75 247.335938 166.757812 247.335938 166.765625 C 246.820312 125.71875 246.390625 84.648438 246.851562 43.589844 C 246.777344 33.386719 247.945312 23.027344 245.613281 12.992188 "/><path style=" stroke:none;fill-rule:nonzero;fill:#ffffff;fill-opacity:1;" d="M 247.804688 232.925781 C 247.476562 250.449219 248.210938 267.996094 248.011719 285.53125 C 247.957031 307.808594 248.007812 330.089844 247.703125 352.367188 C 247.667969 355.855469 247.917969 359.355469 248.457031 362.800781 C 248.660156 364.019531 248.890625 365.234375 249.140625 366.445312 C 249.542969 364.328125 249.878906 362.175781 250.0625 360.015625 C 250.644531 353.429688 250.023438 346.816406 249.925781 340.222656 C 249.527344 327.046875 249.296875 313.871094 248.976562 300.699219 C 248.25 278.117188 248.507812 255.488281 247.804688 232.925781 "/><path style=" stroke:none;fill-rule:nonzero;fill:#ffffff;fill-opacity:1;" d="M 131.542969 22.636719 C 129.765625 30.5625 130.234375 38.679688 130.484375 46.730469 C 132.421875 146.839844 131.921875 247.003906 131.71875 347.128906 C 131.65625 353.09375 131.199219 359.429688 132.152344 365.171875 C 132.933594 358.9375 132.589844 352.640625 132.449219 346.382812 C 131.972656 244.863281 130.980469 143.308594 132.796875 41.796875 C 133.070312 35.386719 132.941406 28.921875 131.542969 22.636719 "/><path style=" stroke:none;fill-rule:nonzero;fill:#ffffff;fill-opacity:1;" d="M 150.371094 37.515625 C 148.785156 44.308594 148.539062 51.335938 148.914062 58.289062 C 149.214844 60.398438 148.355469 69.652344 150.207031 70.167969 C 150.933594 70.515625 151.773438 70.355469 152.546875 70.328125 C 153.890625 70.226562 155.253906 70.25 156.59375 70.238281 C 154.785156 69.519531 152.871094 69.140625 151.015625 68.605469 C 150.445312 65.699219 151.222656 62.679688 150.996094 59.726562 C 150.78125 52.324219 151.796875 44.835938 150.371094 37.515625 "/><path style=" stroke:none;fill-rule:nonzero;fill:#ffffff;fill-opacity:1;" d="M 161.761719 37.863281 C 161.742188 37.863281 161.726562 37.863281 161.710938 37.863281 C 161.726562 37.863281 161.742188 37.863281 161.761719 37.863281 Z M 161.871094 37.859375 C 161.832031 37.859375 161.792969 37.863281 161.757812 37.863281 C 161.792969 37.863281 161.832031 37.859375 161.871094 37.859375 Z M 155.484375 35.804688 C 154.28125 36.027344 153.105469 36.375 151.980469 36.855469 C 152.605469 36.953125 153.25 37.039062 153.882812 37.128906 C 156.574219 37.332031 159.210938 38.074219 161.921875 37.855469 C 161.914062 37.855469 161.90625 37.855469 161.902344 37.855469 C 161.898438 37.855469 161.894531 37.855469 161.882812 37.859375 C 163.386719 37.800781 164.902344 37.679688 166.359375 37.285156 C 165.78125 37.171875 165.183594 37.046875 164.601562 36.921875 C 161.597656 36.398438 158.554688 35.367188 155.484375 35.804688 "/><path style=" stroke:none;fill-rule:nonzero;fill:#ffffff;fill-opacity:1;" d="M 168.386719 43.851562 C 168.386719 43.839844 168.386719 43.828125 168.386719 43.816406 C 168.386719 43.828125 168.386719 43.839844 168.386719 43.851562 Z M 165.988281 68.917969 C 165.980469 68.933594 165.96875 68.945312 165.957031 68.953125 C 165.96875 68.945312 165.980469 68.929688 165.988281 68.917969 Z M 168.390625 43.984375 C 168.394531 44 168.394531 44.011719 168.394531 44.027344 C 168.394531 44.011719 168.394531 44 168.390625 43.984375 Z M 168.390625 43.902344 C 168.390625 43.921875 168.390625 43.945312 168.390625 43.972656 C 168.390625 43.945312 168.390625 43.921875 168.390625 43.902344 Z M 167.230469 36.433594 C 167.421875 38.425781 166.707031 40.359375 166.582031 42.339844 C 166.257812 44.84375 166.144531 47.363281 165.949219 49.875 C 165.746094 53.078125 165.867188 56.28125 166.027344 59.488281 C 165.992188 62.601562 166.007812 65.71875 166.039062 68.824219 C 163.730469 69.136719 161.613281 70.234375 159.3125 70.523438 C 160.785156 70.886719 162.316406 70.792969 163.820312 70.71875 C 165.046875 70.683594 166.441406 71.25 167.496094 70.394531 C 168.542969 69.429688 167.777344 67.8125 167.886719 66.570312 C 167.980469 63.574219 168.1875 60.578125 168.050781 57.582031 C 167.785156 52.996094 168.675781 48.4375 168.386719 43.851562 C 168.386719 43.863281 168.386719 43.878906 168.390625 43.890625 C 168.386719 43.871094 168.386719 43.847656 168.386719 43.828125 C 168.386719 43.871094 168.390625 43.914062 168.390625 43.957031 C 168.191406 41.453125 168.386719 38.722656 167.230469 36.433594 "/></g></svg>