<svg version="1.2" xmlns="http://www.w3.org/2000/svg" viewBox="0 0 199 485" width="199" height="485">
	<title>18</title>
	<defs>
		<clipPath clipPathUnits="userSpaceOnUse" id="cp1">
			<path d="m0-0.27h196v452.6h-196z"/>
		</clipPath>
		<clipPath clipPathUnits="userSpaceOnUse" id="cp2">
			<path d="m102.67 12.8h95.64v471.65h-95.64z"/>
		</clipPath>
		<clipPath clipPathUnits="userSpaceOnUse" id="cp3">
			<path d="m1.33 461.67h85.34v23.06h-85.34z"/>
		</clipPath>
	</defs>
	<style>
		.s0 { fill: #ffffff } 
	</style>
	<g id="c1d5226f0c">
		<g id="Clip-Path" clip-path="url(#cp1)">
			<g>
				<path class="s0" d="m174.3 0.2c-55.7 0.9-111.4 1.4-167.1 0.7-9.6-0.5-6.6 0.3-7.1 9.5 0.8 47.8 1 95.5 1.4 143.3 0.7 95.6 1.1 191.2 1.2 286.9 0.2 3.6 0.5 7.2 1.1 10.7 0.4-2.4 0.6-4.9 0.8-7.3 0.8-10.9 0.1-21.8 0.1-32.7-1.2-135.5-1-271.1-0.8-406.7 59.9-1.6 119.9-0.5 179.8-1q5.6-0.5 11-1.6c-6.6-1.4-13.5-1.9-20.4-1.8z"/>
			</g>
		</g>
		<g id="Clip-Path" clip-path="url(#cp2)">
			<g>
				<path class="s0" d="m194.5 13.1c-1 5.4-1.7 10.8-1.9 16.2 0.1 4.6 0.2 9.1 0.2 13.6 0.7 29 0.8 58 1.3 87 0.1 116.9 1.1 233.9 0.3 350.8q-28.3 0.3-56.6 0.2c-8 0-16-0.5-23.9 0.1-3.8 0.3-7.5 0.9-11.2 1.7 4.8 0.9 9.7 1.5 14.6 1.7 20.2-0.1 40.5-0.6 60.7-0.6 5.7 0 11.4 0.1 17.1 0.1 2.8 0.4 3.3-1.3 3.2-3.8q0-2.8 0-5.5c-1.1-55.9-1.3-111.9-1.5-167.8-0.5-85.7-1.4-171.5-0.5-257.3 0-12.2 0.8-24.4-1.8-36.4z"/>
			</g>
		</g>
		<g id="Clip-Path" clip-path="url(#cp3)">
			<g>
				<path class="s0" d="m4.1 461.8q-1.5 7.7-1.8 15.5c0 1.7 0 3.5 0 5.2 0 1.1 0.9 2 1.9 2 5.4-0.1 10.7-0.2 16.1-0.3 13.5-0.2 27.1-0.3 40.6-0.4 8.4 0 16.9-0.2 25.2-1.6-10.6-1.7-21.3-1.4-32-1.4-16 0.1-32 0-48-0.2 0-6.3-0.7-12.6-2-18.8z"/>
			</g>
		</g>
		<path class="s0" d="m33.6 132.6c-1 5.1-1.6 10.2-1.7 15.4 0.2 23.6 0.7 47.1 0.9 70.6 0.5 37.2 0.4 74.3 0.1 111.4-0.1 5.9-0.2 11.9 0.7 17.8q0.4 2.7 0.9 5.4c0.6-3 1.1-6 1.3-9.1 0.6-10.3-0.1-20.6-0.1-30.9-0.3-28.8-0.8-57.5-0.6-86.3 0.1-25.2 0.1-50.4 0.5-75.5 0-6.3-0.7-12.6-2-18.8z"/>
		<path class="s0" d="m35.3 387.5c-2.2 9.8-1.9 19.7-1.7 29.6 0.2 10.6-0.1 21.4 1.9 31.9 1.8-9.4 1.6-19.1 1.6-28.6 0.1-11 0.6-22.1-1.8-32.9z"/>
		<path class="s0" d="m33.8 34.2c-2 9.6-1.8 19.5-1.6 29.4 0 9.7 0.1 19.4 1.9 29 1.7-9.6 1.7-19.4 1.6-29.2 0.2-9.8 0.3-19.6-1.9-29.2z"/>
		<path class="s0" d="m82.2 37.6c-1.5 7.2-2 14.6-1.8 21.9 0.1 9.6 0.3 19.2 2 28.6 1.6-9.7 1.6-19.5 1.7-29.3 0.1-7.1-0.5-14.3-1.9-21.2z"/>
		<path class="s0" d="m82.6 134.9c-2.9 13.2-1.5 26.7-1.5 40.2 0.5 27.7 0.6 55.5 0.7 83.2 0 15.8-0.2 31.6-0.3 47.4-0.2 13.5-0.7 27.1 1.9 40.4 2.2-11.4 2.1-23.1 1.7-34.7-0.2-14.6-0.6-29.1-0.7-43.7-0.2-36-0.4-72 0.1-108.1 0.2-8.3-0.2-16.6-1.9-24.7z"/>
		<path class="s0" d="m83.6 392.4c-2.1 9.7-1.9 19.5-1.7 29.4 0 9.3 0.2 18.7 1.9 27.9 1.8-9.6 1.8-19.4 1.7-29.1 0.1-9.4 0.2-18.9-1.9-28.2z"/>
		<path class="s0" d="m111.6 33.8c-2.2 9.8-1.9 19.7-1.6 29.6 0.3 12.8-0.3 25.6 1.9 38.3 1.5-9.7 1.5-19.6 1.5-29.4-0.1-12.9 1.1-25.9-1.8-38.5z"/>
		<path class="s0" d="m112 135.2c-2.9 13.1-1.4 26.6-1.3 39.9 0.2 13.5 0.5 27 0.5 40.6 0 27.1 0.6 54.3 0.3 81.5 0 11.6-0.6 23.2 0.1 34.8 0.2 3.6 0.5 7.2 1.2 10.7 0.3-1.4 0.5-2.8 0.7-4.2 1.5-15.1 0.3-30.3 0.2-45.5-0.4-27.1-0.1-54.2-0.3-81.4 0-17.8 0.2-35.7 0.5-53.6 0.3-7.6-0.3-15.3-1.9-22.8z"/>
		<path class="s0" d="m113 390.9c-2.1 9.7-1.8 19.6-1.6 29.4 0 9.6-0.1 19.3 1.9 28.7 1.8-9.2 1.7-18.7 1.6-28.1 0.1-10 0.4-20.1-1.9-30z"/>
		<path class="s0" d="m160.7 37.2c-2.1 9.7-1.9 19.7-1.6 29.6 0.4 11.8-0.2 23.7 1.2 35.5q0.6 0 1.3-0.1c1.4-13.2 0.6-26.4 0.9-39.6 0.3-8.5 0-17.1-1.8-25.4z"/>
		<path class="s0" d="m161.1 131.1c-1.3 6.5-1.9 13.1-1.9 19.7 0 13.3 0.3 26.6 0.4 39.9 0.2 10.5-0.2 21 0.5 31.4 0.3 3.6 0.7 7.2 1.4 10.8q0.2-1.5 0.4-3 0 0 0 0.1c2.3-19.9 0.6-40 1.2-60-0.2-13 0.7-26.1-2-38.9z"/>
		<path class="s0" d="m161.6 263.8c-2.5 11.2-1.7 22.6-1.6 33.9 0.6 17.5-1.2 35.2 1.9 52.5 2.9-16.8 1.1-33.9 1.5-50.8 0-11.9 0.9-23.9-1.8-35.6z"/>
		<path class="s0" d="m162.1 388.7c-1.5 7.2-2 14.5-1.8 21.9 0.2 7.3 0 14.7 0.3 22q0.4 7.5 1.7 14.9 0.4-2.1 0.7-4.2-0.1 0.1-0.1 0.2c1.5-9.7 1-19.6 1.1-29.4 0.2-8.5-0.1-17.1-1.9-25.4z"/>
		<path class="s0" d="m161.7 95.2c-1 8-3 5.2-9.5 5.4-7.2-0.2-14.4-0.2-21.6-0.4-2.7-0.2-5.4-0.1-8.1 0.2-3.3 0.1-7.6 1.8-10.3-0.9 1.5 3.7 6.4 3.5 9.8 3.7q0 0-0.1 0 0 0 0 0-0.1 0-0.2 0 0 0 0.1 0 0 0 0 0 1.2 0 2.4 0.1-0.2 0-0.4 0c6.1 0.3 12.2 0.2 18.3 0.2q0 0 0 0 0.1 0 0.2 0-0.1 0-0.2 0 0.6 0 1.2 0 0 0 0 0 0 0 0 0 0 0 0 0 0.1 0 0.2 0 0 0 0 0 0.1 0 0.1 0 0 0 0 0 0 0 0.1 0-0.1 0-0.1 0c4.2 0.2 8.4 0.1 12.7 0 6.2 0.1 6.6-3.1 5.4-8.3zm-39.8 8q0.1 0 0.1 0-0.1 0-0.2 0 0.1 0 0.1 0zm0.2 0q-0.1 0-0.2 0 0.1 0 0.2 0zm21.2 0.3q-0.1 0-0.2 0 0.1 0 0.2 0zm0.1 0q-0.1 0-0.1 0 0 0 0.1 0zm-0.1 0q0 0 0 0 0.2 0 0.3 0-0.1 0-0.1 0 0 0 0 0-0.1 0-0.2 0 0 0 0 0zm0.2 0q0 0-0.1 0 0.1 0 0.1 0zm0.1 0q0 0-0.1 0 0.1 0 0.1 0zm0.4 0q-0.2 0-0.3 0 0.1 0 0.3 0zm0.1 0q-0.1 0-0.1 0 0 0 0.1 0zm-2.4 0q0 0 0.1 0-0.1 0-0.1 0zm0 0q0.1 0 0.3 0-0.2 0-0.3 0zm-19.9-0.3q0 0 0 0 0 0 0 0z"/>
		<path class="s0" d="m122.5 26.8c-2.9 0.1-5.9 0.1-8.8 0.7-2.3 0.4-3.5 1.9-3 4.2q0.1 0.5 0.2 1c0.1-0.5 0.2-1 0.3-1.6 0.3-1.7 1.9-1.8 3.4-1.7 1.7 0.1 3.4 0.3 5.1 0.4 5 0.3 9.9 0.2 14.9 0 9.4-0.3 18.9-0.8 28.3-1.5-4.8-0.8-9.7-0.9-14.6-1.1q0.1 0 0.2 0c-6.1-0.2-12.1 0-18.1-0.2q0 0 0 0-0.1 0-0.2 0 0.1 0 0.2 0 0 0-0.1 0 0 0 0.1 0-0.2 0-0.3 0 0.1 0 0.3 0-0.2 0-0.4 0 0.1 0 0.2 0-0.2 0-0.4 0 0.1 0 0.1 0-0.9-0.1-1.8-0.1 0.1 0 0.2 0-0.3 0-0.6 0 0.1 0 0.1 0 0 0-0.1 0 0.1 0 0.3 0 0 0 0 0 0 0 0 0 0 0 0 0-0.1 0-0.2 0 0 0 0 0-0.1 0-0.2 0 0 0 0.1 0-0.1 0-0.1 0 0.2 0 0.4 0c-1.9-0.1-3.7-0.2-5.5-0.1zm5.3 0.1q0 0 0 0 0 0 0 0 0 0 0 0zm0.1 0q0 0 0.1 0-0.1 0-0.2 0 0.1 0 0.1 0zm0.1 0q0 0 0 0-0.1 0-0.2 0 0.1 0 0.2 0zm0 0q0 0 0 0 0 0 0 0zm0 0q0 0 0 0 0 0 0 0 0 0 0.1 0-0.1 0-0.1 0 0.1 0 0.1 0 0 0 0 0 0 0 0.1 0-0.1 0-0.2 0zm0 0q0 0 0 0 0 0 0 0zm1.9 0.1q0.1 0 0.1 0 0 0-0.1 0 0 0 0 0zm18.6 0.2q0 0 0.1 0-0.2 0-0.3 0 0.1 0 0.2 0zm0 0q0 0 0 0 0 0 0 0zm-17.9-0.2q0.1 0 0.1 0 0 0-0.1 0zm-0.1 0q0 0 0 0 0 0 0 0zm-1.1-0.1q0.1 0 0.3 0-0.2 0-0.3 0zm-0.7 0q0.2 0 0.4 0 0 0-0.1 0 0.1 0 0.1 0-0.1 0-0.3 0 0.2 0 0.3 0-0.2 0-0.4 0zm-1.1 0q0.1 0 0.1 0 0 0-0.1 0zm0.1 0q0.1 0 0.1 0-0.1 0-0.1 0 0 0 0 0z"/>
		<path class="s0" d="m130.8 39.1c-2.6 1-1.5 6.6-1.8 8.9 0 2.5-0.2 4.9-0.4 7.4 0.1 8.8-1.9 17.8 0 26.6 0.1 1.5-0.1 2.2 0.5 0.1 0.6-3.2 0.7-6.5 1.1-9.7 0.6-8.2 0.3-16.4 0.7-24.5 0.1-2.1-0.1-4.3 0.5-6.4 0.4-0.7 1.6-0.2 2.4-0.3 1.7 0 3.3-0.6 5-0.8-1.7-0.3-3.4-0.3-5-0.8-0.9-0.3-2-0.7-3-0.5z"/>
		<path class="s0" d="m152.5 42.8c-1.2 8.2-1.4 16.4-1.8 24.6-0.1 5.1-1.1 10-1 15-4.1 1.2-8.4 0.2-12.4 1.4-1.3 0.3-6.2 1.2-2.5 1.1 4.2 0.3 8.5 0.7 12.7 0.6 1-0.1 2.1-0.2 3.1-0.1 1.2 0.5 2.6-0.5 2.8-1.8 0-6.5 0.2-13 0.1-19.5-0.1-7.1-0.9-14.2-1-21.3z"/>
		<path class="s0" d="m146.3 40.3c-1.3 0.1-2.6 0.3-3.7 0.9 1 0.2 2.1 0.4 3.2 0.6 1.7 0.3 3.4-0.2 5.1 0 0.3 0.4 0.5 0.8 0.6 1.2q0 0 0 0 0.1 0.1 0.1 0.2 0 0 0 0c0.2 0.1 0.3-1.8-0.1-2.1-1.6-0.9-3.5-1-5.2-0.8zm4.7 1.6q0 0 0 0 0 0 0 0z"/>
		<path class="s0" d="m119.3 30.9c-0.8 10.4-1.4 20.9-0.9 31.4 0 5.9-0.5 11.9-0.2 17.9 0.2 4.8 0.8 9.5 1.8 14.2q0.5-2.5 0.7-5c0.5-5.9 0.3-11.9-0.1-17.8q0-7.1-0.6-14.3c-0.5-8.8-0.2-17.6-0.7-26.4z"/>
		<path class="s0" d="m156.6 85.3c-0.5 2.7-0.9 2.2-3.3 2.1-2.3-0.1-4.5-0.2-6.8-0.1-5.9 0.1-11.8 0.7-17.7 1-1.1 0.1-2.1 0.2-3.1 0.4 1.5 0.1 3.1 0.1 4.7 0.4 7.4 1 15 1.6 22.4 0.2 2.8-0.5 4.8-0.4 3.8-4zm-0.6 2q0 0.1-0.1 0.1 0.1 0 0.1-0.1zm0.4-1q0 0 0 0 0 0 0 0zm-0.6 1.2q0 0-0.1 0 0.1 0 0.1 0z"/>
		<path class="s0" d="m145.9 92c-8.2 0-16.4 1.3-24.6 1.3-0.8 0.1-1.6 0.1-2.3 0.3q7.3 0.5 14.6 0.8c6.8 0.4 13.6 0.4 20.4-0.8 1.1-0.2 2.2-0.4 3.2-0.6-2.9-0.6-5.8-1-8.8-1q0 0 0 0 0 0 0 0 0.1 0 0.3 0-1.4 0-2.8 0z"/>
		<path class="s0" d="m121.4 121.9c-3.2 0.2-6.7 0.8-9.7 2.1-1.6 1.1-0.2 3.2 0 4.7 0.3 1.6 0.8 3.1 1.9 4.3-0.8-2.2-0.4-4.6-0.4-6.9 13.1-1.6 26.4-1.3 39.6-0.7 3.4 0 6.8-0.4 10.1-0.4 1 0.1 4.4-0.1 4.7 0.7q0 0 0 0c-0.1 0.1-0.1 0.2-0.2 0.3 0.4-0.3 0.5-0.8-0.1-0.9-4.4-1.4-9-1.1-13.5-1.3-10.8-1-21.5-1.7-32.4-1.9zm45.8 3.2q0 0 0 0 0 0 0 0zm-54 6.6q0 0 0 0 0 0 0 0z"/>
		<path class="s0" d="m140.8 133.3c-5.1 0.3-10.2 1.2-15.4 1.5 6.7 1.3 13.5 1.2 20.3 1.7q0 0 0 0c2.8 0.3 5.7 0.1 8.5 0.5 0.6 1.5 1.1 3.2 1.1 4.8 0.8-1.6 0.7-3.5 0.6-5.2 0.2-3.3-12.6-3.5-15.1-3.3zm13.3 3.6q0.1 0 0.1 0.1 0-0.1-0.1-0.1zm-16.9-0.9q0.1 0 0.2 0-0.1 0-0.2 0zm17 1q0 0 0 0 0 0 0 0z"/>
		<path class="s0" d="m129 151.3c-0.1 58.7 1.7 117.4 0.3 176.1q0-0.2 0-0.3c0 6.4-0.6 12.8-0.2 19.2 0.1 0.9 0.6 2 1.7 1.8q3.3-0.1 6.7-0.4 3.4-0.4 6.8-1.1c-4-0.8-8-1.1-12-1.3-2.8-64.6-2.4-129.3-3.3-194z"/>
		<path class="s0" d="m128.9 140.5c-2.2 10.8-0.9 21.9-0.8 32.9 0.7 17.1-0.1 34.3 1.5 51.3 1.3-17.2 0.2-34.6 0.6-51.9-0.1-10.8 1-21.7-1.3-32.3z"/>
		<path class="s0" d="m149.3 144.2c-1.2 9.1-0.6 18.2-0.3 27.4 0.1 16 0.6 31.9 0.8 47.9 0.3 25.7 0.2 51.4 0 77.1 0.3 12.8-1 25.7 0.1 38.5 0.3 2.1 0.6 4.2 1.1 6.3 0.6-3.1 1-6.1 1.1-9.2-0.5-38.5-2.1-76.9-2.1-115.4 0-15.4 0.2-30.7 0.1-46.1 0.1-8.9 0.4-17.8-0.8-26.5z"/>
		<path class="s0" d="m49.1 140.8c-0.7 6.4-0.6 12.8-0.4 19.1q0.5 73.8-0.3 147.7c-0.1 13.1-0.5 26.3-0.6 39.4 0.1 2.3 2.8 1.6 4.4 1.7q1.4 0 2.8 0c3.8-0.1 7.6-0.4 11.3-0.9q2.6-0.3 5.2-0.9c-6.6-1.3-13.4-1.7-20.2-1.6-1.5-60.9-1.7-121.7-1.7-182.6 0.1-7.3 0.3-14.6-0.5-21.9z"/>
		<path class="s0" d="m70.4 135.7c-6.3 0.2-12.5 0.6-18.7 1.9 5.5 1.1 11.2 1.5 16.9 1.7 1.1 50.1 1.7 100.3 1.3 150.4 0 8.5-0.4 17.1 0.4 25.6 0.1 1.5 0.3 3.1 0.5 4.6 0.4-2.7 0.6-5.4 0.8-8.1 0.1-44.8-0.7-89.6 0.1-134.4 0.1-11.8 0.4-23.6 0.6-35.4-0.3-2.1 1-6-1.9-6.3z"/>
		<path class="s0" d="m127.3 399.1c-1.6 14.3-1 28.7-1.5 43 0.1 3 5.3 1.6 7.3 1.8 3.7-0.2 7.5-0.4 11.2-0.9q2.8-0.4 5.5-1-3.3-0.6-6.7-1 0.1 0 0.1 0c-4.6-0.5-9.2-0.8-13.7-0.8-0.6-13.7 0-27.5-1.7-41.1 0-0.4-0.5-0.4-0.5 0z"/>
		<path class="s0" d="m51.1 405.6c-2 12.6-1.8 25.4-1.8 38 0.3 3.1 4.5 1.5 6.6 1.6 4.6-0.2 9.3-0.7 13.9-1.6-5.5-1.2-11.1-1.5-16.7-1.8-0.2-12.1-0.1-24.2-2-36.2z"/>
		<path class="s0" d="m72.3 397c-6.3 0.3-12.7 0.6-19 1.9 5.6 1.2 11.4 1.5 17.1 1.8 0.2 11.8 0.2 23.6 1.3 35.3 0.9 9.2 0.8 6.2 1.6-0.7 0.7-7.4 0.6-14.9 0.8-22.3 0.1-3.8 0.3-7.5 0.2-11.3-0.2-1.7 0.5-4.6-2-4.7z"/>
		<path class="s0" d="m151.4 397.4c-5.6 0.4-11.2 0.8-16.7 1.9 4.9 1 9.9 1.4 14.8 1.7 0 10.4 0.3 20.9 2 31.2 0.4-2.4 0.6-4.8 0.9-7.1 0.5-4.9 0.8-9.8 0.8-14.7 0.1-3.1 0.2-6.1 0.1-9.2-0.1-1.5 0.1-3.8-1.9-3.8z"/>
		<path class="s0" d="m34.8 354.4c-1.6 5.5 0.1 5.9 5.2 6.1 4.2 0.3 8.3 0.7 12.5 0.6 10-0.2 20.2 0.6 29.8-2.4 1.4-0.6 1.5-0.6-0.1-0.4q0 0 0 0c-5.5 0.4-11.1 0.1-16.7-0.2-4.9-0.2-9.9-0.1-14.8-0.4-3.9-0.2-7.8-0.3-11.6 0.2-4.2 0.8-3.7 0.4-4.3-3.5zm45.6 4q0 0 0 0 0 0 0 0z"/>
		<path class="s0" d="m113.6 346.3c-0.8 3.4-1 6.9-0.5 10.3 0.6 4.6 7.4 3.2 10.7 3.6 10.9-0.2 21.7-0.7 32.5-2.3 1.1-0.1 9-1.4 5.5-1.3q0.1 0 0.1 0c-5.2 0-10.4-0.4-15.6-0.3-6.1 0.3-12.2 0.3-18.2 0.3-3.3-0.1-6.5-0.3-9.7-0.2-2 0-2.7 0.3-3.1-2q-1-4-1.7-8.1z"/>
		<path class="s0" d="m75.7 382.7c-8.4 0.4-16.8 0.8-25.2 0.8-5.1 0.4-10.2 1.5-15.1 2.7 1.7 0.2 3.4 0.4 5.1 0.6 8.3 0.4 16.7 0 25-0.7 7-0.3 14.1-1.2 21.1 0.1 0.7 2.3 1.1 4.6 2 6.8 0-1.5 0-2.9 0.1-4.4 0.1-1.7 0.7-4.3-1.5-5-3.7-1.2-7.7-0.8-11.5-0.9zm11 3.6q0 0 0 0 0 0 0 0zm1.9 4.7q0 0.1 0 0.1 0 0 0-0.1z"/>
		<path class="s0" d="m124.7 383c-3.2 0.4-6.4 1.2-9.4 2.2 3.3 0.2 6.6 0.5 10 0.5 10.3-0.3 20.5-1.3 30.8-0.9q0 0 0 0 0 0 0 0 0 0 0 0c2.9 0 5.9-0.3 8.8 0.3 0.5 1.7 1 3.4 1.4 5.1 0.1-0.5 0.1-1 0.2-1.5 0.6-7-0.3-4.5-6.7-5.3-11.7-0.3-23.5-1.6-35.1-0.4zm31.5 1.8q-0.1 0-0.1 0 0 0 0.1 0zm0.1 0q-0.1 0-0.1 0 0 0 0.1 0zm-0.3 0q0 0 0.1 0-0.1 0-0.1 0z"/>
		<path class="s0" d="m113.6 450.4c-2 7.2 3.7 6.7 8.9 7.2 7.5 0.3 15.1-0.7 22.6-0.8 6.6-0.4 13.2-1.2 19.7-2.4-11.1 0.3-22.2 0.3-33.3 0.2q0.2 0 0.3 0 0 0-0.1 0 0.3 0 0.5 0-0.2 0-0.5 0 0.1 0 0.1 0-0.2 0-0.5 0 0.1 0 0.1 0-0.2 0-0.3 0 0 0 0.1 0-0.3 0-0.5 0 0.2 0 0.4 0-0.3 0-0.6 0 0.1 0 0.2 0-0.2 0-0.4 0 0.1 0 0.2 0-0.2 0-0.3 0 0 0 0 0-0.2 0-0.4 0 0 0 0 0 0 0-0.1 0 0 0 0.1 0-0.1 0-0.1 0 0 0 0 0-0.2 0.1-0.3 0.1 0.1 0 0.2 0-0.1 0-0.2 0 0.1 0 0.2 0-0.2-0.1-0.3 0 0-0.1 0 0 0 0 0 0 0 0 0 0-0.1 0-0.1 0 0.1 0 0.2 0-1.4-0.1-2.7 0 0 0 0.1 0-2.3-0.1-4.7-0.1 0.1 0 0.2 0c-2.4-0.2-5 0.7-7.3-0.2-1-0.9-1-2.7-1.4-4zm18.1 4.2q0 0-0.1 0 0.1 0 0.1 0 0 0 0 0zm-0.5 0q0 0 0.1 0-0.1 0-0.1 0zm-0.7 0q0 0 0 0 0 0 0 0zm-0.1 0q0 0 0.1 0-0.1 0-0.1 0zm-0.2 0q0.1 0 0.2 0-0.1 0-0.2 0zm-0.6 0.1q0 0 0 0 0 0 0 0 0-0.1 0.1-0.1-0.1 0-0.1 0.1 0.1-0.1 0.1-0.1 0 0-0.1 0.1zm-0.4 0q-0.1 0-0.2 0 0.1 0 0.2 0zm-0.1 0q0 0 0 0 0 0 0 0zm-2.5 0q-0.1 0-0.2 0 0.1 0 0.2 0zm5.1-0.1q-0.1 0-0.3 0 0.2 0 0.3 0zm0.1 0q0 0 0 0 0.1 0 0.3 0-0.1 0-0.3 0z"/>
		<path class="s0" d="m159.6 445.2c-0.6 0.9-0.4 2.4-1.2 3-2.4 0.2-4.9 0-7.3 0.1-9.1 0-18.1 1.1-27.1 2-6 0.2 3.3 0.8 5 0.8 8.2 0.3 16.5 0.9 24.6-0.3 2-0.6 4.6-0.4 5.9-2.1 0.4-1.1 0-2.3 0.1-3.5z"/>
		<path class="s0" d="m135.5 389.4c-4.3 0-8.7 0.1-12.9 0.7-1.6 0.4-4.3 0-4.9 1.9 0 1.8 0.6 3.6 1.1 5.4 0.2-1.6 0.3-3.2 0.5-4.8 5.2 0.3 10.5 0.1 15.7-0.3 7.8-0.3 15.5-1 23.2-2.2-7.6-0.4-15.1-0.7-22.7-0.7zm-16.2 3.1q0 0 0 0.1 0 0 0 0 0-0.1 0-0.1zm0-0.1q0 0 0 0 0 0 0 0zm-0.1 0.3q-0.1 0-0.1 0 0 0 0.1 0z"/>
		<path class="s0" d="m119.4 402.4q0.1 0 0.1 0c0.3 6.9-0.7 13.9-0.8 20.8-0.4 9-0.6 18 1.4 26.9 1.8-8.5 1.7-17.1 1.3-25.7 0-4.9-0.5-9.9-0.8-14.9-0.2-2.2-0.4-4.4-0.8-6.5 0-0.3-0.1-0.7-0.4-0.6z"/>
		<path class="s0" d="m34.9 450.7c-1 1.8-0.8 3.7 1.6 3.9 2.5 0.3 5.1 0.5 7.7 0.8 11.1 1 22.4 1.2 33.5-0.1 2.3-0.3 4.7-0.4 6.8-1.2-1.8 0.2-3.6 0.1-5.5 0-6.5-0.2-13.1-0.2-19.7-0.4-5-0.3-9.9-1.1-14.9-1.1-1.9 0-3.9 0-5.9 0.3-2.2 0.2-4.1 1.1-3.6-2.2zm0.3 2.3q0 0 0 0 0 0 0 0zm0 0.1q0.1 0 0.1 0 0 0-0.1 0z"/>
		<path class="s0" d="m41.1 444.9c-0.5 2.6-0.8 5.5 2.8 5.3q5 0.3 10 0.3c7.9-0.1 15.8 0 23.7-0.7q-0.1 0-0.1 0c1.1-0.1 2.1-0.2 3.1-0.3q-1.2-0.2-2.4-0.2c-5.9-0.3-11.7-1.2-17.6-1.5-4.6-0.4-9.2-0.5-13.8 0-4.4 0.2-4.7 2.4-5.7-2.9zm36.4 4.9q0 0 0 0 0 0 0 0zm1.8-0.2q0 0 0 0 0 0 0 0zm-1.8 0.2q0 0 0 0 0 0 0 0z"/>
		<path class="s0" d="m45.4 389.1c-6.3 0.1-5.5 2.9-4.8 7.9 1.6-7.4 0.7-5.1 8.1-4.9 5.8 0.3 11.6-0.2 17.5-0.2 1.7-0.2 20.4-1.2 12.8-1.4-10.4-0.5-20.8-1.5-31.3-1.4q0.2 0 0.4 0-0.1 0-0.2 0 0.1 0 0.1 0c-0.9 0-1.7 0-2.6 0zm-3.9 3.8q0 0.1 0 0.1 0 0 0-0.1z"/>
		<path class="s0" d="m40.1 398.3c-0.5 8.1-1.5 16.3-1.3 24.5 0.1 3.4 0.4 6.8 0.7 10.2 0.1 2.9 1 5.7 0.7 8.6 2.6-5.6 1.5-13.3 1.2-19.3-0.6-8-0.5-16.1-1.3-24z"/>
		<path class="s0" d="m45.4 120.5c-3.5 0.3-7.1 0.2-10.3 1.6-2.6 1.4-1.4 4.8-0.9 7 0.3-1.6 0.1-3.6 1.3-4.9 2.1-0.7 4.5-0.1 6.7-0.3 6.7 0.1 13.4-0.2 20.1-0.1 8.3 0.4 16.7 0.1 25.1-0.3q0.2 0 0.4 0c-1.5-0.4-3.1-0.5-4.7-0.8-12.5-1.6-25.1-2-37.7-2.2z"/>
		<path class="s0" d="m82.1 346.2c-1.1 3.3-0.5 6.8 0 10.1 1.6-3.1 1.2-6.9 0-10.1z"/>
		<path class="s0" d="m78.3 334.4c-1.9 5-2.8 10.3-2.6 15.5-7.2 1.2-14.6 0.8-21.6 3.1q0 0 0 0c-1.3 0.3-2.5 0.6-3.8 0.9 4.6 0.8 9.2 0.5 13.8 0.5q-0.2 0-0.4 0c4.7 0 9.4-0.3 14.1-1 3.3-1.7 1-6.1 0.9-8.9-0.4-3.3-0.6-6.7-0.4-10.1zm-1.8 15.4q0 0-0.1 0 0.1 0 0.1 0z"/>
		<path class="s0" d="m63 33c-4.1 0-8.1 0.1-12.2 0-2.8 0.2-11.3-0.8-11.9 2.9 0.6 3.1 1 6.2 1.5 9.3 0.6-2.8 1.1-5.6 1.1-8.5 2.1-0.3 4.3 0 6.5 0 4.9-0.1 9.9-0.5 14.9-0.7 7.4 0.1 14.9-1.1 22.3-1.8-7.3-1.2-14.8-1-22.2-1.2z"/>
		<path class="s0" d="m42.5 26.2q0.1 0 0.2 0c-2.7 0.3-6.3-0.3-8.3 1.9-0.7 1.3-0.7 2.8-1 4.2 2.4-4.5 2.2-3.7 7-3.3 4.1 0.4 8.3 0.9 12.5 0.9 6.6 0 13.2-0.2 19.8 0.1 4.2 0.3 8.5-0.6 12.6 0.2 1.5 2.8 1.8 6.1 3.1 9-0.5-3 1.4-10.5-1.9-11.8-5.9-0.5-11.8 0.2-17.7-0.3-5-0.3-9.9-0.2-14.9-0.4-3.8-0.2-7.6-0.6-11.4-0.5z"/>
		<path class="s0" d="m39.6 83.9c-0.5 2.3-1.6 5.3 0 7.3 3.1 2.3 8 1.8 11.7 2.3 5 0.2 10 0.4 15 0.6 3.3 0 6.7-0.4 10-0.3 3.7-0.3 6.6 1.1 5.8-4.1-0.4 0.8-0.4 2.1-1.3 2.7-2.2-0.1-4.5-0.7-6.7-1-8.4-0.7-16.7-1.1-25.1-1.6-2.6-0.2-5.4 0.4-8-0.3-1.2-1.4-1-3.8-1.4-5.6zm40 8.4q0.1 0 0.1 0 0 0-0.1 0z"/>
		<path class="s0" d="m34.3 94.3c-0.6 4.2 2.1 5 5.6 5.5q5.1 0.9 10.2 1.2c10.7 0.5 21.5 0.6 32.2-0.8 5.8-0.8 5.4-0.7-0.2-1.3-11.6-1.1-23.3-0.6-34.9-1.5-2.7 0-5.4-0.1-8 0-2.9 0.3-4.1-0.2-4.9-3.1zm10.6 6.3q0 0-0.1 0 0.1 0 0.1 0zm0.2 0q-0.1 0-0.2 0 0.1 0 0.2 0zm-0.3 0q0-0.1-0.1-0.1 0.1 0 0.1 0.1z"/>
		<path class="s0" d="m88.9 44.3c-0.1 0.2-0.3 1.6-0.1 1.1-1.8 12.9-2.4 26-2.4 39.1-0.1 4.1 1.2 8.3 0.2 12.3 3.6-4.6 2.8-18 3-24-0.1-8 0.3-16-0.2-24-0.1-0.6 0.3-5.4-0.5-4.5z"/>
		<path class="s0" d="m88.7 25.6c1.8 1.1 3.6 1.2 2.8 3.7-0.6 4.2-1.2 8.4-0.9 12.6 0.8 7.5 0.8 15.1 1.4 22.7-0.2 10.6-0.2 21.2 1 31.7 0.2 1.3 0.2 2.7 0.3 4q0.6-2.2 0.8-4.6c0.8-8.6 0.7-17.2 0.6-25.8 0.3-7.2-0.3-14.4-0.3-21.7-0.2-4.9-0.6-9.9-0.7-14.8-0.3-2.3 0.4-5.2-1.3-7-1.1-0.7-2.5-0.6-3.7-0.8zm2.9 1.9q0 0 0 0 0 0 0 0z"/>
		<path class="s0" d="m164.1 244c-2.6 0.3-5.5 0-7.7 1.5-1.3 1-1.9 2.8-0.7 4.1-1.1-4.8 5.9-3 8.6-2.9 3.4 0.1 6.7 0.7 10 0.9 4.2 0.2 8.5 0.7 12.7-0.1 1.5-0.2 2.9-0.2 4.4-0.3q-0.9-0.3-1.7-0.6c-2.6-0.8-5.4-0.8-8-1.4-5.8-0.9-11.8-1.7-17.6-1.2zm-8.6 4.4q0 0 0 0 0 0 0 0z"/>
		<path class="s0" d="m166.5 248.9c-3.2 0-6.4 0.8-9.7 1 0.9 0.8 4.3 1 6.2 1.3 4.9 0.7 9.9 1.1 15 1.3 3.6 0.1 7.2-0.2 10.8-0.3 1.2-0.2 2.8 0.2 3.8-0.7 0.4-0.5 0.3-1.2-0.1-1.6 0.1 0.4 0.1 1.1-0.5 1.2-8.4-1.1-16.9-2.7-25.5-2.2zm-9.7 1q0 0 0 0 0 0 0 0z"/>
		<path class="s0" d="m186.7 242.1c-1.6 0.3-3.2 1-4 2.4 2.5-1 5.5-0.7 7.8 0.6 1.5 0.8 2.2 2.5 2.9 3.9 0.8-4-2.7-7.7-6.7-6.9z"/>
		<path class="s0" d="m181.7 250.2c-0.4 1.9 1.1 3.5 2.6 4.5 2 1.3 4.7 1.3 6.9 0.5 1.9-0.6 2.2-2.8 2.3-4.5-0.6 0.7-1.1 1.5-1.7 2.1-2.5 1.4-9.2 0.5-10.1-2.6z"/>
		<path class="s0" d="m185.7 258.7c-6.2 1.8-5.9 9.9-3.2 14.5 0.5 0.8 1.3 1.2 2.1 1.7-0.4-0.6-0.7-1.2-1-1.9-0.3-1.9-0.3-3.8-0.1-5.6 0.2-2.5 0.7-5.6 3.3-6.8 1.4-0.3 2.8 0.8 4.1 1.2-1.2-1.7-2.9-3.7-5.2-3.1z"/>
		<path class="s0" d="m191.2 261.4c0.8 2.3 0 4.7 0.2 7 0.4 4.6 0 7.4-5.4 6.3q0 0 0 0c-2.2-0.7 5.8 5.2 8-1.1 0.9-2.5-0.5-10.6-2.8-12.2z"/>
		<path class="s0" d="m185.1 264c-1.3 0.4-1.2 2.1-0.1 2.7 1.4 0.8 3.1 0.6 4.5 0.4-1.1-0.5-2.4-0.9-3.4-1.6 1.4-0.3 2.9-0.3 4.3-0.5-1.6-0.8-3.5-1.7-5.3-1zm0.8 1.2q0 0.1 0 0.1 0 0 0-0.1zm0-0.1q0 0 0 0.1 0-0.1 0-0.1zm-0.2 0.5q0 0.1 0 0.1 0 0 0-0.1z"/>
		<path class="s0" d="m185.7 265.6c0 1.5-0.8 2.9-0.5 4.3 0.3 1.7 2.4 3 3.7 1.5 0.9-0.8 1.5-2.2 0.8-3.3 0 1.1-1.2 2.5-2.3 2.2-1.3-1.2-0.7-3.2-1.7-4.7zm3.4 4q0 0-0.1 0 0.1 0 0.1 0zm-1.4 0.8q0 0 0 0 0 0 0 0z"/>
		<path class="s0" d="m185.3 200.5c-0.7 0.2-1.3 0.6-1.9 1.1 1.7-0.6 3.7-0.7 5.3 0.3 2.7 1.8 2.8 6.4-0.2 7.9-4.7 2.1-9-3.2-6-7.3q0 0 0 0c-4.8 3-0.5 12.6 6.5 9.3 6.2-3.3 3.4-12.7-3.7-11.3zm-0.7 0.8q0 0 0 0 0 0 0 0z"/>
		<path class="s0" d="m185.8 202.6c-0.5 0-1.7 0.8-1.5 1 2.4-1.4 5.2 0.7 3.9 3.3-1.3 2.6-5 0.6-4.7-1.9-0.8 1.6 0.5 4 2.4 3.9q0 0 0 0c5.1 0.4 4.9-7.1-0.1-6.3zm-2.2 3.2q0 0 0 0 0 0 0 0z"/>
		<path class="s0" d="m184.1 171.2c-4.8 1.3-5.2 7.6-4.2 11.6 0.4 1.7 0.7 3.8 2.4 4.6 1 0.5 2.1 0.5 3.1 0.6-0.7-0.4-1.4-0.7-2.1-1.2-2.2-1.3-1.6-11.6-0.1-13.5 0.9-1 2.1-1.9 3.4-1.4-0.6-0.8-1.6-1-2.5-0.7z"/>
		<path class="s0" d="m187.9 171.9q0.3 0.1 0.5 0.3 0 0 0 0c2.8 2.2 1.1 8.3 1.1 11.5-0.2 2.6-0.4 3.6-3.2 4.1-3.1 0.2-2.2 0.2 0.2 0.9 2.3 0.4 4.8-0.3 5-3 1.1-3.7 2-13.6-3.6-13.8z"/>
		<path class="s0" d="m185.3 178.7c-0.8 0.2-3.2-0.1-2.2 1.4 0.2 0.3 0.5 0.3 0.9 0.3q1.9 0.2 3.9 0.4c2.4 0.6 2.5-2.7-2.6-2.1zm-1.9 0.9q0 0 0 0 0 0 0 0z"/>
		<path class="s0" d="m175.5 9.7c-2.2 10-1.6 20.2-1.2 30.4 0.6 17.1 1 34.2 1.4 51.3 0.7 31.1 1.2 62.3 1.4 93.4 0.2 11.1-0.6 22.2 0.5 33.2q0.1-1.6 0.2-3.3 0 0 0 0 0 0 0 0 0 0 0 0c-0.7-54.7-1.3-109.5-0.7-164.2-0.1-13.7 1.5-27.5-1.6-40.8zm2.3 205q0 0 0 0 0 0 0 0 0 0 0 0z"/>
		<path class="s0" d="m178.4 302.9c-0.4 23.4 0.5 46.8 0.3 70.1-0.1 29.7 0 59.5-0.4 89.2-0.1 4.6 0.3 9.3 1 13.9q0.4 2.4 0.9 4.8c0.5-2.8 1-5.7 1.2-8.5 0.8-8.8 0-17.6-0.2-26.4-0.5-17.6-0.8-35.2-1.2-52.7-1-30.1-0.7-60.3-1.6-90.4z"/>
		<path class="s0" d="m23.4 22.5c-2.4 10.6-1.8 21.4-1.4 32.1 2.6 133.5 1.9 267.1 1.6 400.6-0.1 7.9-0.7 16.4 0.6 24 1-8.3 0.6-16.7 0.4-25-0.6-135.4-2-270.8 0.5-406.1 0.3-8.6 0.2-17.2-1.7-25.6z"/>
		<path class="s0" d="m48.5 42.4c-2.1 9-2.4 18.4-1.9 27.7 0.4 2.8-0.8 15.1 1.7 15.8 0.9 0.5 2.1 0.2 3.1 0.2 1.8-0.1 3.6-0.1 5.4-0.1-2.4-1-5-1.5-7.4-2.2-0.8-3.9 0.2-7.9-0.1-11.8-0.3-9.9 1.1-19.9-0.8-29.6z"/>
		<path class="s0" d="m55.3 40.1q-2.4 0.4-4.7 1.4 1.3 0.2 2.6 0.3c3.6 0.3 7.1 1.3 10.7 1q0 0 0 0 0 0-0.1 0c2-0.1 4.1-0.2 6-0.8q-1.2-0.2-2.3-0.4c-4-0.7-8.1-2.1-12.2-1.5zm8.5 2.7q-0.1 0-0.1 0 0 0 0.1 0zm-0.1 0q-0.1 0-0.1 0 0 0 0.1 0z"/>
		<path class="s0" d="m71 40.9c0.2 2.7-0.7 5.2-0.9 7.9-0.4 3.3-0.6 6.7-0.8 10-0.3 4.3-0.1 8.6 0.1 12.9q-0.1 6.2 0 12.4c-3.1 0.4-5.9 1.9-9 2.3 2 0.4 4 0.3 6 0.2 1.7 0 3.5 0.7 4.9-0.4 1.4-1.3 0.4-3.5 0.5-5.1 0.2-4 0.4-8 0.3-12-0.4-6.1 0.8-12.2 0.4-18.3q0 0 0 0.1 0-0.1 0-0.1 0 0.1 0 0.1c-0.2-3.3 0-6.9-1.5-10zm-1.7 43.3q0 0.1 0 0.1 0 0 0-0.1zm3.2-33.2q0 0 0 0 0 0 0 0zm0-0.1q0 0 0 0.1 0-0.1 0-0.1zm0-0.1q0 0 0 0 0 0 0 0z"/>
	</g>
</svg>