<svg xmlns="http://www.w3.org/2000/svg" xmlns:xlink="http://www.w3.org/1999/xlink" width="500" zoomAndPan="magnify" viewBox="0 0 375 374.999991" height="500" preserveAspectRatio="xMidYMid meet" version="1.2"><defs><clipPath id="e4273262a8"><path d="M 42.097656 52.59375 L 337.597656 52.59375 L 337.597656 333.84375 L 42.097656 333.84375 Z M 42.097656 52.59375 "/></clipPath><clipPath id="3513afda57"><path d="M 16.597656 15 L 358.597656 15 L 358.597656 360.742188 L 16.597656 360.742188 Z M 16.597656 15 "/></clipPath></defs><g id="a8f29162ae"><g clip-rule="nonzero" clip-path="url(#e4273262a8)"><path style=" stroke:none;fill-rule:nonzero;fill:#000000;fill-opacity:1;" d="M 329.84375 312.652344 L 329.277344 312.246094 L 307.960938 307.058594 L 297.425781 294.164062 L 301.453125 284.894531 L 313.984375 282.488281 L 314.742188 281.679688 L 316.957031 263.652344 L 315.878906 262.625 L 305.070312 264.300781 L 304.316406 264.949219 L 301.34375 274.625 L 290.347656 268.085938 L 304.773438 253.136719 L 304.964844 252.109375 L 290.671875 219.949219 L 295.859375 197.515625 L 294.941406 196.378906 L 187.699219 196.378906 L 185.886719 178.867188 L 194.667969 171.433594 L 194.964844 170.515625 L 192.046875 157.539062 L 220.898438 118.511719 L 221.03125 118.296875 L 227.136719 102.214844 L 226.949219 101.242188 L 216.414062 89.621094 L 217.222656 75.863281 L 216.847656 75.050781 L 212.28125 71.753906 L 213.089844 54.242188 L 212.171875 53.265625 L 43.042969 52.671875 L 42.097656 53.617188 L 42.097656 125.160156 L 42.394531 125.835938 L 57.738281 140.082031 L 75.296875 201.027344 L 61.601562 227.324219 L 61.492188 227.785156 L 62.03125 259.652344 L 49.445312 278.273438 L 49.363281 279.164062 L 53.253906 288.597656 L 54.253906 289.164062 L 92.285156 283.652344 L 143.640625 300.789062 L 144.234375 300.789062 L 155.28125 297.140625 L 174.21875 304.789062 L 175.351562 304.410156 L 178.8125 298.867188 L 178.703125 297.734375 L 171.921875 290.382812 L 170.894531 290.140625 L 162.035156 293.707031 L 156.605469 290.625 L 154.203125 284.921875 L 169.871094 279.625 L 171.300781 285.949219 L 172.382812 286.652344 L 184.78125 284.382812 L 184.292969 291.488281 L 184.726562 292.328125 L 208.121094 307.300781 L 202.636719 314.679688 L 202.988281 316.085938 L 233.621094 330.921875 L 234.675781 330.761719 L 249.316406 317.195312 L 259.960938 318.707031 L 265.308594 332.898438 L 266.765625 333.273438 L 276.464844 325.222656 L 276.789062 324.410156 L 274.65625 302.949219 L 278.382812 301.625 L 287.242188 304.167969 L 289.351562 314.707031 L 289.945312 315.410156 L 308.53125 322.246094 L 314.742188 330.355469 L 315.308594 330.707031 L 331.652344 333.761719 L 332.597656 333.355469 L 337.597656 325.871094 L 337.597656 324.84375 Z M 301.425781 276.8125 L 302.800781 276.273438 L 305.964844 266.03125 L 314.957031 264.652344 L 312.988281 280.761719 L 300.640625 283.136719 L 299.964844 283.679688 L 299.238281 285.382812 L 288.027344 280.355469 L 284.621094 273.652344 L 284.324219 273.488281 L 280.597656 273.625 L 278.113281 271.03125 L 281.625 267.003906 L 288.351562 268.355469 L 288.429688 269.058594 Z M 288.1875 267.597656 L 288.214844 267.707031 L 281.515625 266.355469 L 281.21875 266.460938 L 277.492188 270.734375 L 273.871094 270.734375 L 274.058594 253.867188 L 280.164062 255.949219 L 280.410156 255.921875 L 285.863281 253.054688 L 300.15625 255.21875 Z M 303.019531 252.246094 L 300.695312 254.652344 L 285.863281 252.40625 L 285.675781 252.433594 L 280.246094 255.273438 L 273.871094 253.109375 L 264.660156 249.597656 L 265.253906 216.894531 L 279.113281 220.300781 L 288.863281 220.351562 L 288.863281 220.378906 Z M 263.417969 271.785156 L 269.820312 279.273438 L 266.902344 287.761719 L 260.335938 287.761719 L 249.558594 273.570312 L 250.503906 264.867188 L 255.042969 263.273438 L 255.203125 263.164062 L 264.039062 250.839844 L 263.390625 271.570312 Z M 228.675781 272.382812 L 224.246094 261.515625 L 227.246094 257.730469 L 241.589844 255.867188 L 241.183594 272.921875 Z M 221.140625 285.949219 L 216.386719 291.976562 L 216.035156 286.410156 L 216.035156 277.273438 L 215.710938 276.949219 L 210.660156 276.949219 L 206.933594 268.300781 L 209.6875 264.625 L 216.199219 261.757812 L 223.679688 261.757812 L 228.109375 272.652344 Z M 206.363281 268.597656 L 210.148438 277.382812 L 210.445312 277.570312 L 215.386719 277.570312 L 215.386719 285.921875 L 209.175781 283.085938 L 199.855469 283.058594 L 196.9375 270.839844 Z M 200.042969 257.40625 L 193.558594 257.40625 L 193.558594 248.707031 L 193.234375 248.378906 L 185.644531 248.378906 L 185.644531 236.082031 L 185.589844 235.894531 L 182.59375 231.542969 L 193.910156 231.542969 L 203.097656 244.164062 L 203.339844 244.300781 L 219.710938 244.300781 L 215.820312 261.246094 L 209.445312 264.03125 L 200.367188 261.894531 L 200.367188 257.707031 Z M 164.441406 263.433594 L 158.714844 261.355469 L 157.523438 257.488281 L 157.28125 257.273438 L 147.125 255.382812 L 155.984375 245.8125 L 159.875 241.378906 L 164.277344 241.378906 L 164.277344 252.707031 L 164.601562 253.03125 L 167.574219 253.03125 L 166.519531 260.515625 Z M 126.972656 259.839844 L 121.21875 263.164062 C 121.191406 263.164062 121.191406 263.191406 121.164062 263.21875 L 105.28125 263.21875 L 105.28125 260.652344 L 111.0625 260.652344 L 111.386719 260.328125 L 111.386719 254.21875 L 111.0625 253.894531 L 103.46875 253.894531 L 103.46875 240.246094 L 103.144531 239.921875 L 97.5 239.921875 L 97.5 238.054688 L 100.363281 238.054688 L 100.6875 237.730469 L 100.6875 235.542969 L 117.140625 235.542969 L 117.464844 235.21875 L 117.464844 231.921875 L 126.808594 231.921875 Z M 105.984375 224.433594 L 105.984375 204.082031 L 126.863281 204.082031 L 126.863281 231.328125 L 117.191406 231.328125 L 116.867188 231.652344 L 116.867188 234.949219 L 100.417969 234.949219 L 100.09375 235.273438 L 100.09375 237.460938 L 97.527344 237.460938 L 97.527344 224.785156 L 105.660156 224.785156 Z M 91.800781 157.703125 L 85.183594 157.703125 L 85.183594 145.675781 L 84.859375 145.351562 L 79.105469 145.351562 L 79.105469 131.132812 L 83.371094 131.132812 L 85.640625 133.40625 L 85.859375 133.484375 L 90.855469 133.484375 L 91.179688 133.160156 L 91.179688 127.917969 L 96.933594 127.917969 L 97.230469 127.539062 L 94.933594 115.566406 L 108.710938 115.566406 L 111.953125 130.730469 L 106.199219 141.433594 L 106.171875 141.566406 L 106.171875 148.917969 L 106.28125 149.160156 L 121.054688 160.675781 L 107.765625 169.945312 L 92.097656 169.945312 L 92.097656 157.917969 Z M 75.347656 104.375 L 63.976562 96.699219 L 63.976562 84.375 L 63.921875 84.214844 L 58.035156 75.132812 L 58.035156 54.589844 L 72.730469 54.644531 L 77.214844 66.96875 L 77.214844 97.566406 L 77.539062 97.890625 L 80.402344 97.890625 L 80.402344 109.457031 L 75.484375 109.457031 L 75.484375 104.648438 Z M 206.554688 55.078125 L 201.285156 65.105469 L 201.257812 65.242188 L 201.257812 74.023438 L 195.910156 84.050781 L 187.96875 84.050781 L 187.96875 78.835938 L 187.644531 78.511719 L 185.160156 78.511719 L 185.160156 73.835938 L 196.828125 55.023438 Z M 192.804688 111.132812 L 192.804688 128.082031 L 188.589844 133.160156 L 188.589844 128.1875 L 188.265625 127.863281 L 184.511719 127.863281 L 184.320312 127.945312 L 177.191406 133.890625 L 169.652344 127.484375 L 169.652344 113.945312 L 177.269531 109.242188 L 177.40625 108.972656 L 177.40625 104.296875 L 182.324219 98.296875 L 193.480469 98.296875 Z M 173.003906 154.675781 L 176.945312 163.378906 L 173.003906 163.242188 L 172.679688 163.566406 L 172.679688 177.296875 L 162.898438 178.730469 L 162.898438 131.429688 L 169.328125 131.429688 L 169.652344 131.105469 L 169.652344 128.324219 L 177 134.539062 L 177.40625 134.539062 L 184.671875 128.511719 L 187.996094 128.511719 L 187.996094 143.027344 L 180.648438 143.835938 L 180.378906 144.132812 L 180.109375 150.757812 L 173.894531 150.757812 L 173.597656 151.027344 L 173.03125 154.484375 Z M 183.269531 206.433594 L 187.699219 206.433594 L 188.023438 206.109375 L 188.023438 202.40625 L 190.722656 202.40625 L 190.722656 208.785156 L 187.589844 213.136719 L 187.832031 213.621094 L 198.558594 213.621094 L 200.933594 220.054688 L 193.910156 230.867188 L 178.324219 230.867188 L 178.324219 214.136719 L 178.296875 214 L 174.355469 206.597656 L 174.355469 197.40625 L 180.457031 192.8125 L 182.972656 195.8125 L 182.972656 206.109375 Z M 230.351562 198.191406 L 230.351562 215.515625 L 208.769531 215.515625 L 208.550781 215.597656 L 204.609375 219.433594 L 203.554688 216.273438 L 211.523438 198.191406 Z M 256.230469 246.21875 L 247.316406 232.515625 L 247.316406 198.164062 L 259.445312 198.164062 L 259.445312 203.136719 L 264.605469 216.515625 L 264.011719 249.328125 Z M 243.101562 251.164062 L 227.003906 241.109375 L 222.816406 235.976562 L 222.816406 225.433594 L 230.785156 220.164062 L 246.722656 220.164062 L 246.722656 232.597656 L 246.777344 232.757812 L 255.636719 246.378906 L 249.425781 251.542969 Z M 241.644531 255.21875 L 227.03125 257.136719 L 226.8125 257.246094 L 223.707031 261.136719 L 216.496094 261.136719 L 220.382812 244.21875 L 226.734375 241.703125 L 242.617188 251.625 Z M 213.738281 243.679688 L 210.199219 229.921875 L 209.902344 229.675781 L 205.203125 229.675781 L 204.796875 220.136719 L 208.902344 216.164062 L 230.351562 216.164062 L 230.351562 219.703125 L 222.328125 225.027344 L 222.195312 225.300781 L 222.195312 236.109375 L 222.277344 236.300781 L 226.300781 241.246094 L 220.085938 243.703125 L 213.738281 243.703125 Z M 246.722656 219.542969 L 231 219.542969 L 231 198.191406 L 246.722656 198.191406 Z M 204.175781 220.324219 L 204.582031 230 L 204.90625 230.300781 L 209.660156 230.300781 L 213.089844 243.679688 L 203.527344 243.679688 L 194.453125 231.21875 L 201.449219 220.433594 Z M 164.574219 237.300781 L 164.25 237.625 L 164.25 240.785156 L 159.710938 240.785156 L 159.46875 240.894531 L 155.769531 245.109375 L 153.824219 242.027344 L 153.824219 235.730469 L 153.5 235.40625 L 149.664062 235.40625 L 149.664062 231.652344 L 149.339844 231.328125 L 136.101562 231.328125 L 136.101562 228.351562 L 147.152344 228.351562 L 147.421875 228.191406 L 152.960938 218.109375 L 152.984375 217.894531 L 150.742188 207 L 173.839844 207 L 177.675781 214.246094 L 177.675781 237.300781 Z M 127.457031 204.082031 L 133.671875 204.082031 L 133.886719 203.972656 L 140.882812 196.433594 L 143.152344 198.570312 L 143.371094 198.648438 L 146.90625 198.648438 L 150.09375 206.730469 L 152.390625 217.894531 L 146.988281 227.703125 L 135.804688 227.703125 L 135.480469 228.027344 L 135.480469 231.328125 L 127.457031 231.328125 Z M 180.1875 192.242188 L 173.839844 197 L 173.707031 197.246094 L 173.707031 206.351562 L 150.582031 206.351562 L 147.554688 198.648438 L 150.851562 198.648438 L 151.175781 198.324219 L 151.175781 174.566406 L 158.390625 172.433594 L 162.304688 172.433594 L 162.304688 179.054688 L 162.65625 179.351562 L 172.921875 177.839844 L 180.160156 182.8125 L 180.160156 192.242188 Z M 149.824219 162.109375 L 141.855469 152.214844 L 141.855469 140.1875 L 145.585938 131.429688 L 162.304688 131.429688 L 162.304688 171.839844 L 158.46875 171.839844 Z M 106.820312 148.835938 L 106.820312 146.242188 L 126.890625 146.242188 L 127.214844 145.917969 L 127.214844 140.40625 L 141.289062 140.40625 L 141.289062 152.296875 L 141.371094 152.484375 L 149.097656 162.082031 L 125.566406 168 L 121.949219 160.59375 C 121.921875 160.539062 121.894531 160.511719 121.867188 160.488281 Z M 109.386719 115.621094 L 144.71875 115.621094 L 145.125 130.917969 L 141.34375 139.808594 L 126.863281 139.808594 L 126.539062 140.132812 L 126.539062 145.648438 L 106.792969 145.648438 L 106.792969 141.730469 L 112.574219 130.972656 L 112.601562 130.757812 Z M 94.800781 115 L 92.800781 109.648438 L 92.503906 109.457031 L 81.023438 109.457031 L 81.023438 97.890625 L 88.476562 97.890625 L 88.667969 97.835938 L 95.175781 93.132812 L 95.3125 92.890625 L 95.3125 84.835938 L 111.332031 84.835938 L 111.332031 94.375 L 111.65625 94.699219 L 117.300781 94.699219 L 117.300781 115.027344 L 94.800781 115.027344 Z M 120.785156 73.484375 L 129.078125 73.484375 L 133.429688 78.78125 L 133.671875 78.890625 L 139.046875 78.890625 L 139.046875 90.050781 L 126.457031 90.050781 L 126.132812 90.375 L 126.132812 94.078125 L 111.925781 94.078125 L 111.925781 84.566406 L 115.4375 73.457031 L 120.785156 73.457031 Z M 159.550781 76.945312 L 164.332031 76.945312 L 168.464844 80.214844 L 168.464844 87.996094 L 161.414062 98.648438 L 161.359375 98.808594 L 161.359375 106.402344 L 145.339844 106.402344 L 145.339844 102.972656 L 145.234375 102.726562 L 139.667969 97.835938 L 139.667969 85.269531 L 147.960938 85.269531 L 148.152344 85.214844 Z M 145.746094 130.808594 L 145.339844 115.296875 L 145.339844 107.027344 L 161.359375 107.027344 L 161.359375 113.78125 L 161.683594 114.105469 L 169.03125 114.105469 L 169.03125 130.808594 Z M 126.457031 94.671875 L 126.78125 94.347656 L 126.78125 90.648438 L 139.046875 90.648438 L 139.046875 97.972656 L 139.15625 98.214844 L 144.71875 103.105469 L 144.71875 115 L 117.894531 115 L 117.894531 94.671875 Z M 193.640625 89.402344 L 193.507812 89.671875 L 193.507812 97.675781 L 182.1875 97.675781 L 181.945312 97.78125 L 176.867188 103.972656 L 176.785156 104.160156 L 176.785156 108.78125 L 169.25 113.484375 L 161.980469 113.484375 L 161.980469 98.917969 L 168.949219 88.402344 L 174.328125 88.402344 L 174.542969 88.324219 L 184.96875 79.160156 L 187.347656 79.160156 L 187.347656 84.402344 L 187.671875 84.726562 L 195.800781 84.726562 L 195.800781 87.996094 Z M 184.59375 73.59375 L 184.539062 73.753906 L 184.539062 78.699219 L 174.191406 87.78125 L 169.085938 87.78125 L 169.085938 80.050781 L 168.976562 79.808594 L 164.628906 76.375 L 164.441406 76.320312 L 159.765625 76.320312 L 159.765625 54.914062 L 196.097656 55.023438 Z M 159.117188 76.457031 L 147.828125 84.621094 L 139.640625 84.621094 L 139.640625 78.566406 L 139.316406 78.242188 L 133.78125 78.242188 L 129.429688 72.945312 L 129.1875 72.835938 L 121.054688 72.835938 L 121.054688 54.808594 L 159.089844 54.941406 L 159.089844 76.457031 Z M 120.460938 72.835938 L 115.222656 72.835938 L 114.925781 73.050781 L 111.386719 84.214844 L 95.3125 84.214844 L 95.3125 75.375 L 94.988281 75.050781 L 90.855469 75.050781 L 90.855469 54.699219 L 120.433594 54.808594 L 120.433594 72.835938 Z M 90.558594 75.699219 L 94.691406 75.699219 L 94.691406 92.699219 L 88.398438 97.269531 L 77.863281 97.269531 L 77.863281 66.917969 L 73.378906 54.644531 L 90.234375 54.699219 L 90.234375 75.375 Z M 92.285156 110.078125 L 94.285156 115.402344 L 96.554688 127.351562 L 90.828125 127.351562 L 90.503906 127.675781 L 90.503906 132.917969 L 85.964844 132.917969 L 83.722656 130.675781 L 68.839844 110.105469 L 92.285156 110.105469 Z M 121.488281 161.242188 L 125.082031 168.539062 L 125.433594 168.703125 L 149.5 162.648438 L 157.765625 171.972656 L 150.742188 174.054688 L 150.527344 174.351562 L 150.527344 198.027344 L 143.476562 198.027344 L 141.074219 195.757812 L 140.640625 195.785156 L 133.535156 203.460938 L 115.679688 203.460938 L 115.679688 178.539062 L 115.597656 178.324219 L 108.359375 170.40625 Z M 127.59375 259.757812 L 127.457031 231.949219 L 149.070312 231.949219 L 149.070312 235.703125 L 149.394531 236.027344 L 153.230469 236.027344 L 153.230469 242.082031 L 153.285156 242.246094 L 155.363281 245.542969 L 146.257812 255.382812 L 140.804688 261.652344 L 135.617188 261.652344 Z M 168.195312 252.757812 L 167.898438 252.40625 L 164.871094 252.40625 L 164.871094 237.894531 L 178 237.894531 L 178.324219 237.570312 L 178.324219 231.515625 L 181.863281 231.515625 L 185.050781 236.164062 L 185.050781 248.679688 L 185.375 249.003906 L 192.964844 249.003906 L 192.964844 257.707031 L 193.289062 258.03125 L 199.773438 258.03125 L 199.773438 261.839844 L 187.15625 261.839844 L 180.945312 257.730469 L 180.621094 257.730469 L 174.082031 261.707031 L 167.140625 260.40625 Z M 242.210938 255.542969 L 243.238281 251.8125 L 249.503906 252.21875 L 249.722656 252.136719 L 256.097656 246.839844 L 263.875 249.949219 L 254.746094 262.707031 L 250.125 264.328125 L 249.910156 264.597656 L 248.964844 273.328125 L 241.804688 272.949219 Z M 288.808594 219.730469 L 279.21875 219.675781 L 265.144531 216.21875 L 260.09375 203.109375 L 260.09375 198.191406 L 293.808594 198.191406 Z M 210.847656 198.191406 L 202.933594 216.136719 L 202.933594 216.351562 L 204.042969 219.703125 L 201.503906 219.8125 L 199.097656 213.246094 L 198.800781 213.027344 L 188.453125 213.027344 L 191.292969 209.082031 L 191.34375 208.894531 L 191.34375 202.109375 L 191.019531 201.785156 L 187.699219 201.785156 L 187.375 202.109375 L 187.375 205.8125 L 183.566406 205.8125 L 183.566406 196.027344 L 185.78125 196.027344 L 185.914062 197.324219 L 186.832031 198.164062 L 210.847656 198.164062 Z M 193.046875 170.296875 L 184.320312 177.703125 L 183.996094 178.515625 L 185.726562 195.433594 L 183.402344 195.433594 L 180.808594 192.296875 L 180.808594 182.703125 L 180.675781 182.433594 L 173.328125 177.40625 L 173.328125 163.890625 L 177.433594 164.027344 L 177.730469 163.59375 L 173.625 154.539062 L 174.109375 151.433594 L 180.351562 151.433594 L 180.675781 151.136719 L 180.945312 144.457031 L 188.292969 143.648438 L 200.015625 143.648438 L 190.320312 156.785156 L 190.128906 157.539062 Z M 219.304688 117.484375 L 200.449219 143 L 188.5625 143 L 188.5625 134.132812 L 193.34375 128.40625 L 193.425781 128.214844 L 193.425781 111.484375 L 204.070312 111.484375 L 211.308594 109.402344 L 222.382812 109.402344 Z M 225.164062 102.050781 L 222.625 108.753906 L 211.28125 108.753906 L 204.042969 110.835938 L 193.480469 110.835938 L 194.15625 98 C 194.15625 98 194.15625 98 194.15625 97.972656 L 194.15625 89.808594 L 196.234375 88.429688 L 214.628906 88.429688 L 214.550781 89.863281 L 214.792969 90.539062 Z M 210.714844 72.945312 L 215.277344 76.242188 L 214.605469 87.808594 L 196.398438 87.808594 L 196.398438 84.457031 L 201.828125 74.269531 L 201.851562 74.132812 L 201.851562 65.320312 L 207.230469 55.078125 L 211.09375 55.078125 L 210.335938 72.132812 Z M 57.414062 54.589844 L 57.414062 75.242188 L 57.464844 75.402344 L 63.382812 84.484375 L 63.382812 96.863281 L 63.519531 97.132812 L 74.890625 104.808594 L 74.890625 109.457031 L 68.515625 109.457031 L 67.730469 104.726562 L 67.515625 104.484375 L 59.761719 102.269531 L 59.464844 102.351562 L 49.984375 111.402344 L 43.960938 111.402344 L 43.960938 54.539062 Z M 43.960938 112.027344 L 50.09375 112.027344 L 50.308594 111.945312 L 59.734375 102.917969 L 67.136719 105.027344 L 67.949219 109.808594 C 67.949219 109.863281 67.976562 109.890625 68 109.945312 L 82.886719 130.511719 L 78.78125 130.511719 L 78.457031 130.835938 L 78.457031 136.351562 L 56.46875 136.351562 L 43.960938 124.753906 Z M 59.195312 138.890625 L 57.140625 136.972656 L 78.484375 136.972656 L 78.484375 145.675781 L 78.808594 146 L 84.589844 146 L 84.589844 158.027344 L 84.914062 158.351562 L 91.53125 158.351562 L 91.53125 170.054688 L 82.292969 170.054688 L 82.023438 170.214844 L 79.050781 176.136719 L 74.242188 176.136719 L 73.945312 176.40625 L 72.648438 185 L 59.492188 139.324219 Z M 73.027344 186.433594 L 74.484375 176.757812 L 79.210938 176.757812 L 79.484375 176.59375 L 82.453125 170.675781 L 107.738281 170.675781 L 115.058594 178.675781 L 115.058594 203.488281 L 76.132812 203.488281 L 77.105469 201.59375 L 77.1875 200.894531 Z M 75.808594 204.082031 L 105.363281 204.082031 L 105.363281 224.109375 L 97.203125 224.109375 L 96.878906 224.433594 L 96.878906 237.433594 L 82.804688 237.433594 L 82.804688 231.378906 L 82.480469 231.054688 L 76.242188 231.054688 L 75.917969 231.378906 L 75.917969 237.164062 L 63.519531 237.164062 L 63.355469 228 Z M 63.761719 260.460938 L 63.921875 259.921875 L 63.542969 237.785156 L 76.296875 237.785156 L 76.617188 237.460938 L 76.617188 231.675781 L 82.238281 231.675781 L 82.238281 237.730469 L 82.5625 238.054688 L 96.933594 238.054688 L 96.933594 240.246094 L 97.257812 240.570312 L 102.875 240.570312 L 102.875 254.273438 L 103.199219 254.597656 L 110.792969 254.597656 L 110.792969 260.082031 L 105.011719 260.082031 L 104.6875 260.40625 L 104.6875 263.21875 L 61.898438 263.21875 Z M 92.234375 281.734375 L 54.710938 287.191406 L 51.28125 278.894531 L 61.464844 263.839844 L 127.675781 263.839844 L 127.675781 293.464844 L 92.664062 281.785156 Z M 170.976562 292.085938 L 176.839844 298.4375 L 174.164062 302.707031 L 161.359375 297.542969 L 161.980469 295.570312 L 162.277344 295.597656 Z M 154.984375 291.625 L 155.390625 292.085938 L 161.386719 295.488281 L 160.792969 297.328125 L 155.632812 295.246094 L 154.984375 295.21875 L 143.910156 298.867188 L 128.296875 293.652344 L 128.296875 263.542969 L 127.972656 263.21875 L 122.378906 263.21875 L 127.351562 260.355469 L 135.535156 262.273438 L 140.964844 262.273438 L 141.207031 262.164062 L 146.636719 255.921875 L 156.984375 257.839844 L 158.171875 261.679688 L 158.363281 261.867188 L 164.25 264.003906 L 164.25 279.488281 L 152.636719 283.4375 L 152.066406 284.679688 Z M 170.21875 277.488281 L 164.871094 279.300781 L 164.871094 263.921875 L 166.925781 260.976562 L 174.082031 262.328125 L 174.300781 262.300781 L 180.78125 258.382812 L 186.859375 262.433594 L 187.023438 262.488281 L 200.015625 262.488281 L 208.929688 264.597656 L 206.363281 268.003906 L 196.53125 270.328125 L 185.617188 270.328125 L 185.375 270.433594 L 172.839844 284.382812 L 171.4375 278.136719 Z M 185.589844 282.300781 L 173.570312 284.515625 L 185.753906 270.921875 L 196.34375 270.921875 L 199.339844 283.4375 L 199.636719 283.679688 L 208.984375 283.679688 L 215.414062 286.625 L 215.792969 292.542969 L 210.121094 293.464844 L 209.929688 293.570312 L 203.148438 301.921875 L 186.1875 291.058594 L 186.699219 283.300781 Z M 249.101562 315.300781 L 248.34375 315.542969 L 233.835938 328.976562 L 204.796875 314.921875 L 210.226562 307.652344 L 209.984375 306.300781 L 203.691406 302.273438 L 210.335938 294.085938 L 216.171875 293.140625 C 216.25 293.113281 216.304688 293.085938 216.359375 293.03125 L 221.519531 286.488281 L 227.625 286.488281 L 227.8125 286.410156 L 232.296875 282.839844 L 257.769531 311.058594 L 256.367188 316.355469 Z M 274.871094 324.140625 L 266.550781 331.03125 L 261.472656 317.542969 L 260.714844 316.949219 L 256.960938 316.410156 L 258.390625 311.03125 L 258.3125 310.734375 L 232.539062 282.164062 L 232.109375 282.136719 L 227.488281 285.8125 L 221.871094 285.8125 L 228.597656 273.003906 L 241.429688 273.542969 L 249.046875 273.949219 L 259.90625 288.246094 L 260.148438 288.382812 L 266.847656 288.382812 L 268.332031 298.113281 L 268.441406 298.300781 L 272.84375 302.246094 L 272.710938 302.464844 Z M 278.03125 299.816406 L 273.332031 301.492188 L 273.195312 301.707031 L 268.953125 297.921875 L 267.46875 288.136719 L 270.496094 279.328125 L 270.441406 279.03125 L 264.011719 271.488281 L 264.6875 250.273438 L 273.492188 253.652344 L 273.277344 271.03125 L 273.601562 271.355469 L 277.546875 271.355469 L 280.085938 274.03125 L 276.140625 284.382812 L 276.167969 284.652344 L 280.570312 292.488281 L 280.433594 300.355469 L 278.652344 299.839844 Z M 331.410156 331.816406 L 316.011719 328.949219 L 309.851562 320.921875 L 309.421875 320.625 L 291.050781 313.867188 L 288.945312 303.300781 L 288.296875 302.570312 L 281.003906 300.492188 L 281.136719 292.382812 L 281.109375 292.21875 L 276.734375 284.4375 L 280.625 274.21875 L 284.109375 274.085938 L 287.484375 280.707031 L 287.648438 280.839844 L 298.964844 285.921875 L 295.507812 293.921875 L 295.644531 294.894531 L 306.71875 308.492188 L 307.234375 308.816406 L 328.492188 314.003906 L 335.730469 325.382812 Z M 331.410156 331.816406 "/></g><g clip-rule="nonzero" clip-path="url(#3513afda57)"><path style=" stroke:none;fill-rule:nonzero;fill:#000000;fill-opacity:1;" d="M 19.492188 169.53125 C 18.035156 187.183594 17.183594 204.882812 16.941406 222.628906 C 16.835938 237.328125 16.621094 252.046875 17.375 266.734375 C 17.855469 276.125 18.691406 285.492188 19.0625 294.886719 C 19.582031 307.632812 19.453125 320.390625 18.851562 333.128906 C 18.636719 338.367188 18.46875 343.605469 18.355469 348.84375 C 18.332031 350.378906 18.257812 351.917969 18.261719 353.453125 C 18.179688 354.316406 18.4375 355.0625 19.03125 355.691406 C 21.71875 357.859375 28.65625 356 32.433594 355.722656 C 39.605469 354.828125 46.800781 354.570312 54.019531 354.941406 C 65.472656 355.582031 76.808594 357.46875 88.238281 358.398438 C 102.703125 359.945312 117.207031 360.683594 131.757812 360.609375 C 151.828125 360.515625 171.84375 358.75 191.902344 358.273438 C 215.863281 357.554688 239.765625 355.386719 263.75 355.363281 C 285.878906 355.210938 308.011719 354.699219 330.136719 354.9375 C 336.941406 355.058594 343.804688 355.871094 350.589844 355.386719 C 353.949219 354.21875 352.746094 347.703125 352.648438 344.355469 C 352.378906 340.789062 352.167969 337.21875 352.042969 333.644531 C 351.566406 322.050781 352.355469 310.453125 353.21875 298.898438 C 355.84375 266.609375 358.605469 234.453125 358.414062 201.992188 C 358.464844 172.640625 358.605469 143.273438 357.972656 113.929688 C 357.675781 102.835938 356.882812 91.765625 356.425781 80.679688 C 356.003906 69.71875 356.078125 58.742188 355.832031 47.777344 C 355.808594 41.011719 355.386719 34.269531 354.566406 27.554688 C 354.324219 25.855469 354.433594 24.054688 353.820312 22.429688 C 353.46875 21.757812 352.941406 21.285156 352.238281 21.007812 C 350.480469 20.375 348.671875 20.011719 346.804688 19.925781 C 340.5625 19.421875 334.300781 19.308594 328.046875 19.085938 C 272.164062 15.886719 216.1875 14.265625 160.21875 15.675781 C 123.402344 15.59375 86.589844 15.632812 49.785156 16.75 C 42.097656 17.023438 34.359375 17.273438 26.769531 18.632812 C 25.714844 18.894531 24.375 19.046875 23.769531 20.0625 C 23.421875 21.183594 23.308594 22.324219 23.421875 23.492188 C 23.464844 25.539062 23.570312 27.585938 23.667969 29.636719 C 23.59375 33.152344 22.953125 36.667969 22.820312 40.199219 C 21.339844 71.417969 23.097656 102.695312 22.195312 133.933594 C 21.765625 145.828125 20.453125 157.671875 19.492188 169.53125 Z M 23.367188 148.746094 C 24.382812 137.574219 24.691406 126.359375 24.722656 115.144531 C 24.925781 96.183594 25.230469 77.226562 25.257812 58.261719 C 25.363281 58.402344 25.5 58.496094 25.664062 58.550781 C 25.832031 58.601562 25.996094 58.597656 26.164062 58.542969 C 26.328125 58.488281 26.460938 58.390625 26.5625 58.25 C 26.664062 58.109375 26.714844 57.953125 26.71875 57.777344 C 26.617188 54.648438 26.515625 51.519531 26.417969 48.390625 C 26.3125 40.695312 25.578125 33.007812 25.660156 25.316406 C 25.746094 25.347656 25.820312 25.332031 25.886719 25.273438 C 25.953125 25.214844 25.980469 25.140625 25.960938 25.054688 C 25.84375 24.75 25.863281 24.175781 25.441406 24.15625 C 25.363281 23.097656 25.386719 22.042969 25.511719 20.992188 C 32.089844 19.140625 39.164062 19.132812 45.980469 18.742188 C 55.027344 18.394531 64.074219 18.296875 73.128906 18.121094 C 95.199219 17.710938 117.277344 17.390625 139.355469 17.765625 C 169.527344 17.90625 199.699219 16.871094 229.875 17.398438 C 263.722656 17.847656 297.496094 20.082031 331.296875 21.683594 C 336.246094 21.917969 341 22.050781 345.980469 22.449219 C 353.632812 23.167969 351.398438 23.058594 352.476562 29.207031 C 353.464844 36.074219 353.507812 43.015625 353.539062 49.941406 C 353.660156 62.332031 353.621094 74.726562 354.296875 87.101562 C 355.726562 109.066406 356.054688 131.074219 356 153.082031 C 356.285156 186.953125 356.945312 220.851562 354.390625 254.667969 C 353.242188 270.152344 351.945312 285.628906 350.71875 301.105469 C 349.664062 314.589844 348.933594 328.140625 349.964844 341.652344 C 350.09375 345.316406 350.878906 349.09375 350.0625 352.714844 C 350.035156 352.824219 349.976562 352.914062 349.886719 352.980469 C 349.792969 353.046875 349.691406 353.074219 349.578125 353.0625 C 348.8125 353.097656 348.042969 353.074219 347.277344 353.058594 C 344.757812 352.992188 342.242188 352.914062 339.726562 352.8125 C 328.675781 352.15625 317.605469 352.195312 306.542969 352.292969 C 284.566406 352.628906 262.574219 352.675781 240.609375 353.492188 C 218.523438 354.734375 196.425781 355.734375 174.328125 356.710938 C 154.101562 357.898438 133.835938 358.984375 113.566406 358.234375 C 101.835938 357.808594 90.066406 356.574219 78.363281 355.421875 C 69.726562 354.464844 61.105469 353.25 52.414062 352.894531 C 47.050781 352.644531 41.667969 352.742188 36.304688 353.023438 C 31.605469 353.222656 26.941406 353.957031 22.238281 353.980469 C 21.65625 353.988281 21.09375 353.898438 20.542969 353.710938 C 20.183594 352.558594 20.398438 351.273438 20.339844 350.070312 C 20.347656 346.628906 20.390625 343.1875 20.460938 339.746094 C 20.984375 323.894531 21.414062 308.027344 20.667969 292.171875 C 20.179688 281.066406 19.171875 269.980469 18.898438 258.863281 C 18.160156 222.066406 19.648438 185.359375 23.367188 148.746094 Z M 23.367188 148.746094 "/></g><g style="fill:#000000;fill-opacity:1;"><g transform="translate(194.216888, 192.179734)"><path style="stroke:none" d="M 8.484375 -14.453125 C 8.765625 -14.453125 8.960938 -14.390625 9.078125 -14.265625 C 9.191406 -14.140625 9.25 -13.925781 9.25 -13.625 C 9.25 -13.320312 9.191406 -13.109375 9.078125 -12.984375 C 8.960938 -12.859375 8.765625 -12.796875 8.484375 -12.796875 L 5.546875 -12.796875 L 5.546875 -1.65625 L 11.5625 -1.65625 L 11.5625 -5.65625 C 11.5625 -5.945312 11.628906 -6.148438 11.765625 -6.265625 C 11.910156 -6.390625 12.148438 -6.453125 12.484375 -6.453125 C 12.816406 -6.453125 13.050781 -6.390625 13.1875 -6.265625 C 13.320312 -6.148438 13.390625 -5.945312 13.390625 -5.65625 L 13.390625 -0.828125 C 13.390625 -0.523438 13.332031 -0.3125 13.21875 -0.1875 C 13.101562 -0.0625 12.90625 0 12.625 0 L 1.734375 0 C 1.460938 0 1.265625 -0.0625 1.140625 -0.1875 C 1.023438 -0.3125 0.96875 -0.523438 0.96875 -0.828125 C 0.96875 -1.128906 1.023438 -1.34375 1.140625 -1.46875 C 1.265625 -1.59375 1.460938 -1.65625 1.734375 -1.65625 L 3.71875 -1.65625 L 3.71875 -12.796875 L 1.734375 -12.796875 C 1.460938 -12.796875 1.265625 -12.859375 1.140625 -12.984375 C 1.023438 -13.109375 0.96875 -13.320312 0.96875 -13.625 C 0.96875 -13.925781 1.023438 -14.140625 1.140625 -14.265625 C 1.265625 -14.390625 1.460938 -14.453125 1.734375 -14.453125 Z M 8.484375 -14.453125 "/></g><g transform="translate(209.173677, 192.179734)"><path style="stroke:none" d="M 7.46875 -11.515625 C 8.582031 -11.515625 9.585938 -11.265625 10.484375 -10.765625 C 11.378906 -10.265625 12.078125 -9.5625 12.578125 -8.65625 C 13.085938 -7.757812 13.34375 -6.75 13.34375 -5.625 C 13.34375 -4.5 13.085938 -3.484375 12.578125 -2.578125 C 12.078125 -1.679688 11.378906 -0.984375 10.484375 -0.484375 C 9.585938 0.015625 8.582031 0.265625 7.46875 0.265625 C 6.363281 0.265625 5.363281 0.015625 4.46875 -0.484375 C 3.570312 -0.984375 2.867188 -1.679688 2.359375 -2.578125 C 1.859375 -3.484375 1.609375 -4.5 1.609375 -5.625 C 1.609375 -6.75 1.859375 -7.757812 2.359375 -8.65625 C 2.867188 -9.5625 3.570312 -10.265625 4.46875 -10.765625 C 5.363281 -11.265625 6.363281 -11.515625 7.46875 -11.515625 Z M 7.46875 -9.71875 C 6.6875 -9.71875 5.992188 -9.546875 5.390625 -9.203125 C 4.796875 -8.859375 4.335938 -8.375 4.015625 -7.75 C 3.691406 -7.125 3.53125 -6.414062 3.53125 -5.625 C 3.53125 -4.832031 3.691406 -4.125 4.015625 -3.5 C 4.335938 -2.875 4.796875 -2.390625 5.390625 -2.046875 C 5.992188 -1.703125 6.6875 -1.53125 7.46875 -1.53125 C 8.257812 -1.53125 8.953125 -1.703125 9.546875 -2.046875 C 10.148438 -2.390625 10.613281 -2.875 10.9375 -3.5 C 11.257812 -4.125 11.421875 -4.832031 11.421875 -5.625 C 11.421875 -6.414062 11.257812 -7.125 10.9375 -7.75 C 10.613281 -8.375 10.148438 -8.859375 9.546875 -9.203125 C 8.953125 -9.546875 8.257812 -9.71875 7.46875 -9.71875 Z M 7.46875 -9.71875 "/></g><g transform="translate(224.130467, 192.179734)"><path style="stroke:none" d="M 11.390625 -11.25 C 11.671875 -11.25 11.867188 -11.1875 11.984375 -11.0625 C 12.109375 -10.9375 12.171875 -10.722656 12.171875 -10.421875 L 12.171875 -1.65625 L 13.15625 -1.65625 C 13.4375 -1.65625 13.632812 -1.59375 13.75 -1.46875 C 13.875 -1.34375 13.9375 -1.128906 13.9375 -0.828125 C 13.9375 -0.523438 13.875 -0.3125 13.75 -0.1875 C 13.632812 -0.0625 13.4375 0 13.15625 0 L 11.234375 0 C 10.953125 0 10.75 -0.0546875 10.625 -0.171875 C 10.507812 -0.296875 10.453125 -0.507812 10.453125 -0.8125 L 10.453125 -2.296875 C 9.921875 -1.460938 9.296875 -0.828125 8.578125 -0.390625 C 7.859375 0.046875 7.085938 0.265625 6.265625 0.265625 C 5.523438 0.265625 4.878906 0.109375 4.328125 -0.203125 C 3.785156 -0.523438 3.367188 -0.988281 3.078125 -1.59375 C 2.785156 -2.195312 2.640625 -2.898438 2.640625 -3.703125 L 2.640625 -9.59375 L 1.640625 -9.59375 C 1.367188 -9.59375 1.171875 -9.65625 1.046875 -9.78125 C 0.929688 -9.90625 0.875 -10.117188 0.875 -10.421875 C 0.875 -10.722656 0.929688 -10.9375 1.046875 -11.0625 C 1.171875 -11.1875 1.367188 -11.25 1.640625 -11.25 L 3.703125 -11.25 C 3.972656 -11.25 4.164062 -11.1875 4.28125 -11.0625 C 4.40625 -10.9375 4.46875 -10.722656 4.46875 -10.421875 L 4.46875 -3.890625 C 4.46875 -3.160156 4.632812 -2.582031 4.96875 -2.15625 C 5.300781 -1.738281 5.789062 -1.53125 6.4375 -1.53125 C 7.125 -1.53125 7.765625 -1.726562 8.359375 -2.125 C 8.960938 -2.53125 9.441406 -3.082031 9.796875 -3.78125 C 10.160156 -4.476562 10.34375 -5.253906 10.34375 -6.109375 L 10.34375 -9.59375 L 8.609375 -9.59375 C 8.328125 -9.59375 8.128906 -9.65625 8.015625 -9.78125 C 7.898438 -9.90625 7.84375 -10.117188 7.84375 -10.421875 C 7.84375 -10.722656 7.898438 -10.9375 8.015625 -11.0625 C 8.128906 -11.1875 8.328125 -11.25 8.609375 -11.25 Z M 11.390625 -11.25 "/></g><g transform="translate(239.087256, 192.179734)"><path style="stroke:none" d="M 7.921875 -11.25 C 8.191406 -11.25 8.382812 -11.1875 8.5 -11.0625 C 8.625 -10.9375 8.6875 -10.722656 8.6875 -10.421875 L 8.6875 -1.65625 L 12.59375 -1.65625 C 12.863281 -1.65625 13.054688 -1.59375 13.171875 -1.46875 C 13.296875 -1.34375 13.359375 -1.128906 13.359375 -0.828125 C 13.359375 -0.523438 13.296875 -0.3125 13.171875 -0.1875 C 13.054688 -0.0625 12.863281 0 12.59375 0 L 3.046875 0 C 2.765625 0 2.566406 -0.0625 2.453125 -0.1875 C 2.335938 -0.3125 2.28125 -0.523438 2.28125 -0.828125 C 2.28125 -1.128906 2.335938 -1.34375 2.453125 -1.46875 C 2.566406 -1.59375 2.765625 -1.65625 3.046875 -1.65625 L 6.859375 -1.65625 L 6.859375 -9.59375 L 3.78125 -9.59375 C 3.5 -9.59375 3.296875 -9.65625 3.171875 -9.78125 C 3.054688 -9.90625 3 -10.117188 3 -10.421875 C 3 -10.722656 3.054688 -10.9375 3.171875 -11.0625 C 3.296875 -11.1875 3.5 -11.25 3.78125 -11.25 Z M 7.515625 -16.59375 C 7.960938 -16.59375 8.269531 -16.535156 8.4375 -16.421875 C 8.601562 -16.304688 8.6875 -16.101562 8.6875 -15.8125 L 8.6875 -14.21875 C 8.6875 -13.925781 8.601562 -13.722656 8.4375 -13.609375 C 8.269531 -13.492188 7.960938 -13.4375 7.515625 -13.4375 C 7.078125 -13.4375 6.773438 -13.492188 6.609375 -13.609375 C 6.441406 -13.722656 6.359375 -13.925781 6.359375 -14.21875 L 6.359375 -15.8125 C 6.359375 -16.101562 6.441406 -16.304688 6.609375 -16.421875 C 6.773438 -16.535156 7.078125 -16.59375 7.515625 -16.59375 Z M 7.515625 -16.59375 "/></g><g transform="translate(254.044046, 192.179734)"><path style="stroke:none" d="M 11.3125 -11.515625 C 11.644531 -11.515625 11.878906 -11.453125 12.015625 -11.328125 C 12.148438 -11.210938 12.21875 -11.015625 12.21875 -10.734375 L 12.21875 -8.40625 C 12.21875 -8.125 12.148438 -7.921875 12.015625 -7.796875 C 11.878906 -7.679688 11.644531 -7.625 11.3125 -7.625 C 11.03125 -7.625 10.835938 -7.726562 10.734375 -7.9375 C 10.378906 -8.601562 9.867188 -9.070312 9.203125 -9.34375 C 8.535156 -9.613281 7.691406 -9.75 6.671875 -9.75 C 5.878906 -9.75 5.265625 -9.609375 4.828125 -9.328125 C 4.390625 -9.046875 4.171875 -8.65625 4.171875 -8.15625 C 4.171875 -7.894531 4.25 -7.679688 4.40625 -7.515625 C 4.570312 -7.359375 4.820312 -7.226562 5.15625 -7.125 C 5.414062 -7.03125 5.722656 -6.957031 6.078125 -6.90625 C 6.429688 -6.863281 6.890625 -6.816406 7.453125 -6.765625 C 8.242188 -6.671875 8.878906 -6.582031 9.359375 -6.5 C 9.835938 -6.425781 10.296875 -6.3125 10.734375 -6.15625 C 11.378906 -5.925781 11.878906 -5.585938 12.234375 -5.140625 C 12.597656 -4.691406 12.78125 -4.101562 12.78125 -3.375 C 12.78125 -2.644531 12.59375 -2.003906 12.21875 -1.453125 C 11.851562 -0.910156 11.316406 -0.488281 10.609375 -0.1875 C 9.898438 0.113281 9.050781 0.265625 8.0625 0.265625 C 7.1875 0.265625 6.414062 0.144531 5.75 -0.09375 C 5.082031 -0.34375 4.5 -0.710938 4 -1.203125 L 4 -0.53125 C 4 -0.238281 3.929688 -0.0351562 3.796875 0.078125 C 3.660156 0.203125 3.425781 0.265625 3.09375 0.265625 C 2.757812 0.265625 2.519531 0.203125 2.375 0.078125 C 2.238281 -0.0351562 2.171875 -0.238281 2.171875 -0.53125 L 2.171875 -3.453125 C 2.171875 -3.734375 2.238281 -3.929688 2.375 -4.046875 C 2.519531 -4.171875 2.757812 -4.234375 3.09375 -4.234375 C 3.257812 -4.234375 3.390625 -4.191406 3.484375 -4.109375 C 3.585938 -4.035156 3.675781 -3.910156 3.75 -3.734375 C 4.039062 -2.953125 4.523438 -2.382812 5.203125 -2.03125 C 5.890625 -1.675781 6.800781 -1.5 7.9375 -1.5 C 8.882812 -1.5 9.609375 -1.664062 10.109375 -2 C 10.609375 -2.34375 10.859375 -2.800781 10.859375 -3.375 C 10.859375 -3.644531 10.769531 -3.867188 10.59375 -4.046875 C 10.414062 -4.234375 10.160156 -4.382812 9.828125 -4.5 C 9.546875 -4.582031 9.21875 -4.65625 8.84375 -4.71875 C 8.476562 -4.78125 8.007812 -4.835938 7.4375 -4.890625 C 6.675781 -4.972656 6.039062 -5.054688 5.53125 -5.140625 C 5.019531 -5.234375 4.546875 -5.367188 4.109375 -5.546875 C 3.523438 -5.773438 3.066406 -6.097656 2.734375 -6.515625 C 2.398438 -6.929688 2.234375 -7.476562 2.234375 -8.15625 C 2.234375 -8.863281 2.414062 -9.46875 2.78125 -9.96875 C 3.15625 -10.476562 3.671875 -10.863281 4.328125 -11.125 C 4.984375 -11.382812 5.722656 -11.515625 6.546875 -11.515625 C 7.335938 -11.515625 8.054688 -11.394531 8.703125 -11.15625 C 9.359375 -10.925781 9.925781 -10.597656 10.40625 -10.171875 L 10.40625 -10.734375 C 10.40625 -11.015625 10.472656 -11.210938 10.609375 -11.328125 C 10.742188 -11.453125 10.976562 -11.515625 11.3125 -11.515625 Z M 11.3125 -11.515625 "/></g><g transform="translate(269.000836, 192.179734)"><path style="stroke:none" d="M 7.921875 -11.25 C 8.191406 -11.25 8.382812 -11.1875 8.5 -11.0625 C 8.625 -10.9375 8.6875 -10.722656 8.6875 -10.421875 L 8.6875 -1.65625 L 12.59375 -1.65625 C 12.863281 -1.65625 13.054688 -1.59375 13.171875 -1.46875 C 13.296875 -1.34375 13.359375 -1.128906 13.359375 -0.828125 C 13.359375 -0.523438 13.296875 -0.3125 13.171875 -0.1875 C 13.054688 -0.0625 12.863281 0 12.59375 0 L 3.046875 0 C 2.765625 0 2.566406 -0.0625 2.453125 -0.1875 C 2.335938 -0.3125 2.28125 -0.523438 2.28125 -0.828125 C 2.28125 -1.128906 2.335938 -1.34375 2.453125 -1.46875 C 2.566406 -1.59375 2.765625 -1.65625 3.046875 -1.65625 L 6.859375 -1.65625 L 6.859375 -9.59375 L 3.78125 -9.59375 C 3.5 -9.59375 3.296875 -9.65625 3.171875 -9.78125 C 3.054688 -9.90625 3 -10.117188 3 -10.421875 C 3 -10.722656 3.054688 -10.9375 3.171875 -11.0625 C 3.296875 -11.1875 3.5 -11.25 3.78125 -11.25 Z M 7.515625 -16.59375 C 7.960938 -16.59375 8.269531 -16.535156 8.4375 -16.421875 C 8.601562 -16.304688 8.6875 -16.101562 8.6875 -15.8125 L 8.6875 -14.21875 C 8.6875 -13.925781 8.601562 -13.722656 8.4375 -13.609375 C 8.269531 -13.492188 7.960938 -13.4375 7.515625 -13.4375 C 7.078125 -13.4375 6.773438 -13.492188 6.609375 -13.609375 C 6.441406 -13.722656 6.359375 -13.925781 6.359375 -14.21875 L 6.359375 -15.8125 C 6.359375 -16.101562 6.441406 -16.304688 6.609375 -16.421875 C 6.773438 -16.535156 7.078125 -16.59375 7.515625 -16.59375 Z M 7.515625 -16.59375 "/></g><g transform="translate(283.957625, 192.179734)"><path style="stroke:none" d="M 7.53125 -11.515625 C 9.050781 -11.515625 10.191406 -11.171875 10.953125 -10.484375 C 11.722656 -9.804688 12.109375 -8.800781 12.109375 -7.46875 L 12.109375 -2.625 C 12.109375 -1.976562 12.375 -1.65625 12.90625 -1.65625 L 13.328125 -1.65625 C 13.609375 -1.65625 13.804688 -1.59375 13.921875 -1.46875 C 14.035156 -1.34375 14.09375 -1.128906 14.09375 -0.828125 C 14.09375 -0.523438 14.035156 -0.3125 13.921875 -0.1875 C 13.804688 -0.0625 13.609375 0 13.328125 0 L 12.546875 0 C 12.023438 0 11.570312 -0.128906 11.1875 -0.390625 C 10.8125 -0.660156 10.566406 -1.050781 10.453125 -1.5625 C 9.796875 -0.976562 9.078125 -0.523438 8.296875 -0.203125 C 7.523438 0.109375 6.703125 0.265625 5.828125 0.265625 C 5.015625 0.265625 4.289062 0.125 3.65625 -0.15625 C 3.03125 -0.4375 2.535156 -0.84375 2.171875 -1.375 C 1.816406 -1.90625 1.640625 -2.539062 1.640625 -3.28125 C 1.640625 -4.570312 2.097656 -5.519531 3.015625 -6.125 C 3.929688 -6.738281 5.117188 -7.046875 6.578125 -7.046875 C 7.867188 -7.046875 9.101562 -6.835938 10.28125 -6.421875 L 10.28125 -7.46875 C 10.28125 -8.25 10.054688 -8.820312 9.609375 -9.1875 C 9.171875 -9.5625 8.457031 -9.75 7.46875 -9.75 C 6.863281 -9.75 6.234375 -9.660156 5.578125 -9.484375 C 4.921875 -9.316406 4.296875 -9.085938 3.703125 -8.796875 C 3.566406 -8.722656 3.441406 -8.6875 3.328125 -8.6875 C 3.054688 -8.6875 2.832031 -8.878906 2.65625 -9.265625 C 2.5625 -9.460938 2.515625 -9.625 2.515625 -9.75 C 2.515625 -10.03125 2.664062 -10.25 2.96875 -10.40625 C 3.65625 -10.769531 4.390625 -11.046875 5.171875 -11.234375 C 5.953125 -11.421875 6.738281 -11.515625 7.53125 -11.515625 Z M 6.59375 -5.328125 C 5.65625 -5.328125 4.914062 -5.164062 4.375 -4.84375 C 3.832031 -4.53125 3.5625 -4.023438 3.5625 -3.328125 C 3.5625 -2.734375 3.765625 -2.269531 4.171875 -1.9375 C 4.585938 -1.613281 5.164062 -1.453125 5.90625 -1.453125 C 7.519531 -1.453125 8.976562 -2.117188 10.28125 -3.453125 L 10.28125 -4.78125 C 9.726562 -4.957031 9.132812 -5.09375 8.5 -5.1875 C 7.863281 -5.28125 7.226562 -5.328125 6.59375 -5.328125 Z M 6.59375 -5.328125 "/></g><g transform="translate(298.914415, 192.179734)"><path style="stroke:none" d="M 8.859375 -11.515625 C 9.585938 -11.515625 10.222656 -11.351562 10.765625 -11.03125 C 11.316406 -10.71875 11.738281 -10.257812 12.03125 -9.65625 C 12.320312 -9.050781 12.46875 -8.347656 12.46875 -7.546875 L 12.46875 -1.65625 L 13.46875 -1.65625 C 13.738281 -1.65625 13.929688 -1.59375 14.046875 -1.46875 C 14.171875 -1.34375 14.234375 -1.128906 14.234375 -0.828125 C 14.234375 -0.523438 14.171875 -0.3125 14.046875 -0.1875 C 13.929688 -0.0625 13.738281 0 13.46875 0 L 9.515625 0 C 9.242188 0 9.046875 -0.0625 8.921875 -0.1875 C 8.804688 -0.3125 8.75 -0.523438 8.75 -0.828125 C 8.75 -1.128906 8.804688 -1.34375 8.921875 -1.46875 C 9.046875 -1.59375 9.242188 -1.65625 9.515625 -1.65625 L 10.640625 -1.65625 L 10.640625 -7.359375 C 10.640625 -8.085938 10.472656 -8.660156 10.140625 -9.078125 C 9.804688 -9.503906 9.316406 -9.71875 8.671875 -9.71875 C 7.984375 -9.71875 7.335938 -9.519531 6.734375 -9.125 C 6.140625 -8.726562 5.660156 -8.175781 5.296875 -7.46875 C 4.941406 -6.769531 4.765625 -5.992188 4.765625 -5.140625 L 4.765625 -1.65625 L 5.890625 -1.65625 C 6.171875 -1.65625 6.367188 -1.59375 6.484375 -1.46875 C 6.597656 -1.34375 6.65625 -1.128906 6.65625 -0.828125 C 6.65625 -0.523438 6.597656 -0.3125 6.484375 -0.1875 C 6.367188 -0.0625 6.171875 0 5.890625 0 L 1.953125 0 C 1.671875 0 1.472656 -0.0625 1.359375 -0.1875 C 1.242188 -0.3125 1.1875 -0.523438 1.1875 -0.828125 C 1.1875 -1.128906 1.242188 -1.34375 1.359375 -1.46875 C 1.472656 -1.59375 1.671875 -1.65625 1.953125 -1.65625 L 2.953125 -1.65625 L 2.953125 -9.59375 L 1.703125 -9.59375 C 1.429688 -9.59375 1.234375 -9.65625 1.109375 -9.78125 C 0.992188 -9.90625 0.9375 -10.117188 0.9375 -10.421875 C 0.9375 -10.722656 0.992188 -10.9375 1.109375 -11.0625 C 1.234375 -11.1875 1.429688 -11.25 1.703125 -11.25 L 3.890625 -11.25 C 4.160156 -11.25 4.351562 -11.1875 4.46875 -11.0625 C 4.59375 -10.9375 4.65625 -10.722656 4.65625 -10.421875 L 4.65625 -8.96875 C 5.1875 -9.789062 5.8125 -10.421875 6.53125 -10.859375 C 7.25 -11.296875 8.023438 -11.515625 8.859375 -11.515625 Z M 8.859375 -11.515625 "/></g><g transform="translate(313.871204, 192.179734)"><path style="stroke:none" d="M 7.53125 -11.515625 C 9.050781 -11.515625 10.191406 -11.171875 10.953125 -10.484375 C 11.722656 -9.804688 12.109375 -8.800781 12.109375 -7.46875 L 12.109375 -2.625 C 12.109375 -1.976562 12.375 -1.65625 12.90625 -1.65625 L 13.328125 -1.65625 C 13.609375 -1.65625 13.804688 -1.59375 13.921875 -1.46875 C 14.035156 -1.34375 14.09375 -1.128906 14.09375 -0.828125 C 14.09375 -0.523438 14.035156 -0.3125 13.921875 -0.1875 C 13.804688 -0.0625 13.609375 0 13.328125 0 L 12.546875 0 C 12.023438 0 11.570312 -0.128906 11.1875 -0.390625 C 10.8125 -0.660156 10.566406 -1.050781 10.453125 -1.5625 C 9.796875 -0.976562 9.078125 -0.523438 8.296875 -0.203125 C 7.523438 0.109375 6.703125 0.265625 5.828125 0.265625 C 5.015625 0.265625 4.289062 0.125 3.65625 -0.15625 C 3.03125 -0.4375 2.535156 -0.84375 2.171875 -1.375 C 1.816406 -1.90625 1.640625 -2.539062 1.640625 -3.28125 C 1.640625 -4.570312 2.097656 -5.519531 3.015625 -6.125 C 3.929688 -6.738281 5.117188 -7.046875 6.578125 -7.046875 C 7.867188 -7.046875 9.101562 -6.835938 10.28125 -6.421875 L 10.28125 -7.46875 C 10.28125 -8.25 10.054688 -8.820312 9.609375 -9.1875 C 9.171875 -9.5625 8.457031 -9.75 7.46875 -9.75 C 6.863281 -9.75 6.234375 -9.660156 5.578125 -9.484375 C 4.921875 -9.316406 4.296875 -9.085938 3.703125 -8.796875 C 3.566406 -8.722656 3.441406 -8.6875 3.328125 -8.6875 C 3.054688 -8.6875 2.832031 -8.878906 2.65625 -9.265625 C 2.5625 -9.460938 2.515625 -9.625 2.515625 -9.75 C 2.515625 -10.03125 2.664062 -10.25 2.96875 -10.40625 C 3.65625 -10.769531 4.390625 -11.046875 5.171875 -11.234375 C 5.953125 -11.421875 6.738281 -11.515625 7.53125 -11.515625 Z M 6.59375 -5.328125 C 5.65625 -5.328125 4.914062 -5.164062 4.375 -4.84375 C 3.832031 -4.53125 3.5625 -4.023438 3.5625 -3.328125 C 3.5625 -2.734375 3.765625 -2.269531 4.171875 -1.9375 C 4.585938 -1.613281 5.164062 -1.453125 5.90625 -1.453125 C 7.519531 -1.453125 8.976562 -2.117188 10.28125 -3.453125 L 10.28125 -4.78125 C 9.726562 -4.957031 9.132812 -5.09375 8.5 -5.1875 C 7.863281 -5.28125 7.226562 -5.328125 6.59375 -5.328125 Z M 6.59375 -5.328125 "/></g></g></g></svg>