<svg xmlns="http://www.w3.org/2000/svg" xmlns:xlink="http://www.w3.org/1999/xlink" width="500" zoomAndPan="magnify" viewBox="0 0 375 374.999991" height="500" preserveAspectRatio="xMidYMid meet" version="1.2"><defs><clipPath id="e5bb8f14d1"><path d="M 17 7.074219 L 358 7.074219 L 358 367.824219 L 17 367.824219 Z M 17 7.074219 "/></clipPath></defs><g id="88e666de2a"><g clip-rule="nonzero" clip-path="url(#e5bb8f14d1)"><path style=" stroke:none;fill-rule:nonzero;fill:#3a281e;fill-opacity:1;" d="M 341.351562 367.394531 C 341.296875 367.335938 339.78125 366.96875 337.988281 366.566406 C 329.335938 364.636719 302.0625 357.554688 280.382812 351.601562 C 270.359375 348.851562 261.59375 346.679688 252.277344 344.628906 C 234.492188 340.726562 226.761719 338.800781 218.15625 336.125 C 216.894531 335.734375 216.785156 335.726562 216.183594 336.054688 C 215.769531 336.277344 215.414062 336.335938 215.160156 336.222656 C 214.59375 335.972656 209.132812 335.972656 209.132812 336.222656 C 209.128906 336.820312 209.863281 338.355469 210.195312 338.445312 C 210.761719 338.589844 210.667969 339.617188 209.933594 341.3125 C 209.582031 342.125 209.222656 342.863281 209.128906 342.964844 C 208.898438 343.203125 209.058594 340.289062 209.316406 339.4375 C 209.511719 338.789062 209.4375 338.164062 209.164062 338.175781 C 209.09375 338.175781 208.847656 338.328125 208.621094 338.503906 C 208.25 338.789062 200.316406 338.8125 127.5 338.753906 C 48.375 338.683594 46.785156 338.6875 46.359375 339.074219 C 46.007812 339.390625 45.933594 339.699219 45.933594 340.773438 C 45.933594 342.066406 45.933594 342.078125 46.394531 341.820312 C 46.761719 341.613281 63.035156 341.546875 126.976562 341.488281 C 171.035156 341.445312 207.324219 341.464844 207.605469 341.535156 C 208.269531 341.703125 208.246094 342.128906 207.546875 342.683594 L 206.984375 343.128906 L 126.472656 343.058594 C 49.976562 342.988281 45.957031 343.003906 45.742188 343.34375 C 45.617188 343.542969 45.332031 343.707031 45.109375 343.707031 C 44.730469 343.707031 44.699219 343.566406 44.699219 341.90625 C 44.699219 340.421875 44.78125 339.96875 45.164062 339.289062 L 45.625 338.472656 L 45.675781 192.496094 C 45.707031 112.199219 45.664062 46.375 45.59375 46.203125 C 45.519531 46.035156 45.472656 45.824219 45.488281 45.738281 C 45.511719 45.648438 45.117188 45.402344 44.613281 45.1875 C 43.621094 44.761719 41.972656 42.898438 42.078125 42.332031 C 42.113281 42.152344 42.351562 41.96875 42.617188 41.933594 C 43.171875 41.851562 44.574219 43.226562 45.027344 44.292969 C 45.367188 45.082031 45.652344 45.285156 46.015625 44.988281 C 46.207031 44.832031 69.335938 44.785156 127.863281 44.820312 L 209.441406 44.871094 L 209.507812 45.320312 C 209.554688 45.648438 209.402344 45.859375 208.953125 46.085938 C 208.398438 46.378906 200.394531 46.40625 128.667969 46.40625 L 49.003906 46.40625 L 50.261719 48.101562 C 50.949219 49.03125 51.59375 49.996094 51.6875 50.238281 C 51.78125 50.484375 51.914062 113.636719 51.988281 190.582031 C 52.066406 273.046875 52.199219 330.472656 52.304688 330.460938 C 52.410156 330.4375 86.804688 330.425781 128.738281 330.40625 L 204.988281 330.378906 L 205.121094 315.765625 C 205.195312 307.734375 205.277344 244.972656 205.300781 176.292969 L 205.34375 51.429688 L 202.777344 51.429688 C 201.371094 51.429688 167.023438 51.40625 126.457031 51.378906 C 61.84375 51.335938 52.695312 51.289062 52.695312 51.027344 C 52.695312 50.863281 52.878906 50.628906 53.09375 50.515625 C 53.367188 50.367188 77.429688 50.304688 129.691406 50.304688 L 205.886719 50.304688 L 206.773438 49.101562 C 207.730469 47.796875 208.863281 46.816406 209.410156 46.816406 C 210.097656 46.816406 209.707031 47.511719 207.996094 49.347656 C 206.675781 50.757812 206.273438 51.324219 206.355469 51.636719 C 206.410156 51.863281 206.464844 52.644531 206.46875 53.375 L 206.46875 54.714844 L 208.210938 52.910156 C 209.167969 51.914062 209.957031 51.015625 209.957031 50.90625 C 209.957031 50.328125 209.210938 50.882812 208.285156 52.148438 C 207.375 53.394531 206.878906 53.859375 206.878906 53.476562 C 206.878906 53.410156 207.5 52.332031 208.257812 51.0625 C 209.628906 48.78125 210.34375 47.136719 210.359375 46.25 C 210.359375 45.957031 210.542969 45.714844 210.828125 45.601562 C 211.242188 45.4375 220.976562 42.425781 221.949219 42.15625 C 222.46875 42.015625 222.695312 41.664062 222.457031 41.378906 C 222.355469 41.257812 222.246094 40.105469 222.210938 38.828125 L 222.152344 36.503906 L 220.722656 37.707031 C 219.925781 38.367188 218.746094 39.359375 218.09375 39.914062 C 217.4375 40.460938 216.855469 40.867188 216.789062 40.808594 C 216.65625 40.671875 218.414062 38.5625 219.949219 37.023438 C 220.539062 36.425781 221.023438 35.902344 221.023438 35.84375 C 221.023438 35.789062 179.640625 35.742188 129.0625 35.742188 L 37.097656 35.742188 L 38.199219 36.824219 C 39.09375 37.699219 39.386719 38.160156 39.753906 39.304688 C 40.003906 40.082031 40.144531 40.773438 40.070312 40.84375 C 39.992188 40.917969 39.882812 40.84375 39.828125 40.667969 C 39.777344 40.496094 38.914062 39.546875 37.910156 38.558594 C 36.085938 36.753906 35.886719 36.4375 36.320312 36.007812 C 36.488281 35.835938 36.324219 35.707031 35.699219 35.519531 C 34.644531 35.207031 34.714844 34.898438 35.898438 34.582031 C 37.265625 34.21875 222.375 34.207031 222.609375 34.5625 C 222.695312 34.703125 222.953125 34.816406 223.179688 34.816406 C 223.570312 34.816406 223.589844 34.949219 223.570312 37.6875 C 223.566406 39.265625 223.476562 40.824219 223.390625 41.152344 L 223.222656 41.742188 L 224.019531 41.59375 C 224.804688 41.457031 231.554688 39.59375 238.628906 37.570312 C 245.238281 35.683594 267.65625 30.234375 288.378906 25.488281 C 301.167969 22.550781 305.839844 21.363281 325.898438 15.957031 C 336.105469 13.203125 340.433594 12.171875 340.683594 12.421875 C 340.824219 12.5625 336.703125 14.1875 334.40625 14.894531 C 326.105469 17.449219 301.757812 23.792969 289.40625 26.621094 C 278.117188 29.203125 259.035156 33.714844 250.859375 35.738281 C 243.949219 37.449219 240.042969 38.496094 231.175781 40.988281 L 230.148438 41.273438 L 230.222656 43.988281 C 230.304688 47.113281 229.902344 52.453125 229.558594 52.738281 C 229.394531 52.875 229.332031 52.523438 229.332031 51.460938 C 229.324219 46.011719 229.203125 41.472656 229.0625 41.558594 C 228.96875 41.613281 227.238281 42.085938 225.21875 42.605469 C 221.105469 43.667969 211.996094 46.367188 211.734375 46.605469 C 211.429688 46.882812 211.324219 48.429688 211.585938 48.75 C 211.78125 48.984375 211.78125 49.207031 211.570312 49.773438 C 211.335938 50.425781 211.347656 50.527344 211.710938 50.792969 C 212.101562 51.082031 212.101562 51.105469 211.726562 51.804688 C 211.347656 52.503906 211.339844 56.027344 211.417969 192.582031 L 211.492188 332.644531 L 212.007812 332.742188 C 213.292969 332.996094 217.589844 334.167969 221.335938 335.289062 C 225.902344 336.664062 236.34375 339.320312 242.144531 340.597656 C 258.695312 344.238281 262.742188 345.160156 268.695312 346.671875 C 272.414062 347.613281 278 349.085938 281.101562 349.945312 C 302.546875 355.867188 340.566406 365.695312 340.867188 365.390625 C 340.925781 365.339844 340.972656 286.234375 340.972656 189.609375 C 340.972656 49.023438 340.917969 13.894531 340.714844 13.765625 C 340.507812 13.644531 340.527344 13.484375 340.773438 13.035156 C 341.105469 12.433594 342.015625 12.164062 342.464844 12.539062 C 342.601562 12.648438 343.171875 12.800781 343.738281 12.878906 C 344.300781 12.953125 345.113281 13.105469 345.539062 13.214844 C 346.179688 13.375 346.582031 13.316406 347.898438 12.859375 C 349.726562 12.222656 350.25 12.199219 351.347656 12.695312 C 351.789062 12.894531 352.332031 13.066406 352.550781 13.070312 C 352.960938 13.09375 352.96875 13.269531 353.089844 43.527344 C 353.152344 60.273438 353.222656 139.050781 353.242188 218.585938 L 353.269531 363.191406 L 352.769531 363.691406 C 352.492188 363.972656 352.136719 364.140625 351.96875 364.078125 C 351.804688 364.011719 351.394531 364.101562 351.0625 364.277344 C 350.636719 364.5 350.398438 364.519531 350.238281 364.363281 C 350.085938 364.210938 349.835938 364.277344 349.382812 364.601562 C 348.953125 364.90625 348.582031 365.019531 348.253906 364.929688 C 347.980469 364.867188 347.703125 364.902344 347.636719 365.019531 C 347.566406 365.128906 347.347656 365.214844 347.160156 365.214844 C 346.96875 365.214844 345.765625 365.515625 344.480469 365.882812 C 342.578125 366.425781 342.121094 366.636719 341.976562 367.015625 C 341.8125 367.453125 341.566406 367.59375 341.351562 367.378906 Z M 344.457031 364.648438 L 345.585938 364.300781 L 345.632812 286.628906 C 345.683594 212.703125 345.667969 208.964844 345.328125 209.101562 C 345.128906 209.183594 344.433594 209.292969 343.785156 209.359375 L 342.613281 209.46875 L 342.625 278.585938 C 342.628906 320.011719 342.710938 347.519531 342.824219 347.246094 C 343.097656 346.5625 343.394531 346.683594 343.558594 347.550781 C 343.792969 348.800781 343.296875 354.21875 342.921875 354.492188 C 342.660156 354.6875 342.613281 355.351562 342.613281 358.558594 C 342.613281 362.195312 342.628906 362.382812 342.992188 362.273438 C 343.203125 362.203125 343.59375 362.238281 343.863281 362.34375 C 344.335938 362.53125 344.324219 362.546875 343.480469 362.910156 C 342.660156 363.273438 342.613281 363.328125 342.613281 364.160156 C 342.613281 365.167969 342.710938 365.199219 344.457031 364.648438 Z M 348.808594 189.007812 C 348.769531 66.382812 348.816406 14.296875 348.964844 14.015625 C 349.21875 13.542969 349.21875 13.542969 348.433594 13.816406 C 347.867188 14.011719 347.839844 14.074219 347.910156 15.042969 C 347.96875 15.921875 347.933594 16.054688 347.652344 15.945312 C 347.355469 15.832031 347.324219 30.535156 347.324219 189.710938 L 347.324219 363.597656 L 348.863281 363.597656 Z M 351.070312 363.195312 L 351.628906 362.914062 L 351.628906 242.027344 C 351.628906 127.035156 351.78125 14.742188 351.933594 13.96875 C 351.992188 13.671875 351.859375 13.609375 351.203125 13.609375 L 350.402344 13.609375 L 350.402344 181.679688 C 350.402344 274.121094 350.339844 352.882812 350.261719 356.707031 C 350.179688 360.882812 350.203125 363.617188 350.316406 363.5625 C 350.421875 363.515625 350.757812 363.351562 351.070312 363.195312 Z M 342.757812 352.070312 C 342.71875 351.585938 342.683594 351.929688 342.683594 352.828125 C 342.683594 353.734375 342.71875 354.125 342.757812 353.710938 C 342.804688 353.289062 342.804688 352.546875 342.765625 352.070312 Z M 146.855469 337.148438 L 207.9375 337.148438 L 207.339844 336.375 C 207.011719 335.957031 206.226562 334.800781 205.589844 333.8125 L 204.425781 332.019531 L 51.679688 332.019531 L 49.628906 334.53125 C 48.503906 335.914062 47.574219 337.128906 47.574219 337.234375 C 47.574219 337.347656 55.160156 337.363281 66.671875 337.28125 C 77.179688 337.207031 113.261719 337.148438 146.855469 337.148438 Z M 49.203125 333.269531 L 50.472656 331.746094 L 50.4375 317.171875 C 50.417969 309.160156 50.308594 299.097656 50.191406 294.816406 C 50.027344 288.882812 50.039062 287.011719 50.21875 286.953125 C 50.402344 286.894531 50.453125 275.734375 50.417969 240.097656 C 50.394531 214.367188 50.324219 188.660156 50.253906 182.964844 C 50.191406 177.269531 50.191406 172.5625 50.253906 172.511719 C 50.324219 172.453125 50.4375 146.339844 50.507812 114.484375 L 50.636719 56.566406 L 49.730469 55.847656 C 48.410156 54.796875 47.46875 53.609375 47.742188 53.328125 C 48.140625 52.9375 48.964844 53.515625 49.777344 54.765625 L 50.542969 55.945312 L 50.648438 53.421875 L 50.746094 50.90625 L 49.824219 49.859375 C 49.320312 49.289062 48.5625 48.433594 48.140625 47.972656 L 47.375 47.132812 L 47.363281 49.410156 L 48.703125 50.515625 C 49.992188 51.582031 50.253906 51.992188 49.828125 52.253906 C 49.710938 52.324219 49.625 52.253906 49.625 52.113281 C 49.617188 51.863281 47.84375 50.515625 47.515625 50.515625 C 47.433594 50.515625 47.363281 53.714844 47.363281 57.632812 L 47.363281 64.753906 L 48.53125 65.933594 C 49.175781 66.582031 49.628906 67.175781 49.546875 67.265625 C 49.464844 67.347656 49.332031 67.316406 49.25 67.195312 C 49.175781 67.070312 48.71875 66.773438 48.238281 66.527344 L 47.363281 66.089844 L 47.363281 67.464844 C 47.363281 68.757812 47.40625 68.863281 48.035156 69.390625 C 48.8125 70.050781 48.683594 70.402344 47.859375 69.859375 L 47.300781 69.488281 L 47.433594 120.230469 C 47.511719 148.136719 47.574219 207.226562 47.574219 251.539062 L 47.574219 332.101562 L 48.089844 331.394531 C 49.027344 330.109375 49.828125 329.789062 49.828125 330.6875 C 49.828125 330.96875 49.730469 331.203125 49.605469 331.203125 C 49.484375 331.203125 48.976562 331.640625 48.484375 332.175781 C 47.679688 333.046875 47.585938 333.257812 47.582031 334.164062 C 47.574219 334.777344 47.644531 335.101562 47.753906 334.984375 C 47.859375 334.875 48.507812 334.105469 49.203125 333.269531 Z M 47.917969 329.917969 C 48.695312 328.683594 49.144531 328.128906 49.367188 328.128906 C 49.507812 328.128906 49.617188 328.207031 49.617188 328.308594 C 49.617188 328.621094 48.304688 330.15625 48.023438 330.167969 C 47.855469 330.167969 47.820312 330.082031 47.917969 329.917969 Z M 48.316406 298.136719 C 47.871094 284.34375 47.871094 284.25 48.46875 284.25 C 48.976562 284.25 49.132812 289.535156 48.871094 297.953125 C 48.796875 300.339844 48.671875 302.292969 48.597656 302.292969 C 48.515625 302.292969 48.390625 300.421875 48.316406 298.136719 Z M 48.066406 185.183594 C 47.84375 179.226562 47.824219 168.089844 48.035156 167.871094 C 48.117188 167.789062 48.257812 167.789062 48.339844 167.871094 C 48.539062 168.070312 48.589844 189.527344 48.398438 189.898438 C 48.316406 190.050781 48.171875 187.929688 48.066406 185.183594 Z M 49.082031 75.535156 C 48.046875 75.074219 47.914062 74.875 48.089844 74.074219 C 48.246094 73.363281 48.632812 73.378906 48.808594 74.109375 C 48.863281 74.382812 49.214844 74.785156 49.570312 75.015625 C 49.929688 75.242188 50.226562 75.539062 50.226562 75.679688 C 50.238281 76.007812 50.113281 75.988281 49.082031 75.535156 Z M 212.890625 334.578125 C 211.59375 334.175781 210.367188 334.117188 210.367188 334.464844 C 210.367188 334.671875 211.300781 334.8125 212.824219 334.835938 L 213.746094 334.859375 L 212.890625 334.589844 Z M 208.398438 333.191406 C 208.660156 332.613281 208.707031 316.71875 208.777344 208.796875 C 208.816406 140.742188 208.800781 82.792969 208.738281 80.019531 L 208.621094 74.984375 L 207.636719 76.066406 L 206.652344 77.152344 L 206.667969 203.628906 C 206.6875 328.988281 206.679688 330.109375 206.285156 330.617188 C 205.886719 331.121094 205.886719 331.136719 206.273438 331.726562 C 206.527344 332.125 206.890625 332.363281 207.316406 332.433594 C 207.679688 332.488281 208.019531 332.660156 208.070312 332.824219 C 208.140625 333.023438 208.066406 333.070312 207.8125 332.976562 C 207.242188 332.753906 207.066406 333.03125 207.417969 333.566406 C 207.800781 334.15625 207.996094 334.082031 208.398438 333.191406 Z M 207.585938 332.007812 C 207.429688 331.746094 207.464844 331.703125 208.058594 331.523438 C 208.601562 331.351562 208.730469 331.898438 208.195312 332.101562 C 207.765625 332.265625 207.742188 332.265625 207.585938 332.007812 Z M 207.359375 237.449219 C 207.335938 235.617188 207.300781 231.835938 207.269531 229.046875 C 207.21875 224.285156 207.277344 223.480469 207.644531 223.847656 C 207.824219 224.027344 208.136719 239.179688 207.972656 240.113281 C 207.914062 240.480469 207.753906 240.785156 207.625 240.785156 C 207.464844 240.785156 207.382812 239.785156 207.359375 237.449219 Z M 207.375 200.703125 C 207.140625 199.675781 207.21875 191.496094 207.464844 191.414062 C 207.5625 191.378906 207.695312 191.84375 207.773438 192.4375 C 207.953125 193.9375 207.917969 199.699219 207.71875 200.703125 L 207.5625 201.519531 Z M 345.679688 194.90625 L 345.671875 181.632812 L 345.273438 182.738281 C 344.8125 184.015625 344.90625 183.898438 344.230469 184.054688 C 343.195312 184.308594 343.089844 183.976562 343.214844 180.773438 C 343.332031 177.847656 343.46875 177.257812 343.910156 177.855469 C 344.058594 178.0625 344.433594 178.175781 344.917969 178.164062 L 345.683594 178.140625 L 345.683594 174.382812 C 345.683594 169.839844 345.691406 169.851562 343.832031 170.265625 L 342.613281 170.535156 L 342.613281 188.949219 C 342.613281 201.859375 342.675781 207.359375 342.828125 207.359375 C 342.957031 207.359375 342.992188 207.535156 342.914062 207.769531 C 342.792969 208.15625 342.878906 208.175781 344.234375 208.175781 L 345.683594 208.175781 L 345.679688 194.902344 Z M 343.433594 201.582031 C 343.433594 199.292969 343.492188 197.210938 343.558594 196.957031 C 343.78125 196.140625 344.457031 196.515625 344.457031 197.449219 C 344.457031 197.617188 344.59375 197.894531 344.761719 198.0625 C 345.007812 198.308594 345.070312 198.933594 345.058594 201.070312 C 345.046875 204.175781 344.691406 205.566406 343.886719 205.683594 L 343.429688 205.75 Z M 344.660156 181.304688 C 344.660156 179.582031 344.597656 179.058594 344.40625 179.121094 C 344.054688 179.230469 343.9375 182.894531 344.265625 183.292969 C 344.398438 183.449219 344.539062 183.578125 344.582031 183.578125 C 344.628906 183.578125 344.660156 182.554688 344.660156 181.304688 Z M 343.535156 169.433594 C 344.445312 168.964844 345.082031 168.914062 345.4375 169.269531 C 345.632812 169.460938 345.683594 161.722656 345.683594 134.449219 C 345.683594 115.15625 345.75 80.550781 345.824219 57.535156 L 345.957031 15.691406 L 345.460938 15.628906 C 345.195312 15.589844 344.394531 15.589844 343.6875 15.621094 L 342.40625 15.691406 L 342.40625 17.65625 L 343.945312 17.902344 C 344.90625 18.058594 345.4375 18.226562 345.355469 18.363281 C 345.21875 18.589844 343.394531 18.492188 342.765625 18.226562 C 342.441406 18.09375 342.40625 18.226562 342.40625 19.484375 C 342.414062 20.390625 342.476562 20.785156 342.59375 20.597656 C 342.753906 20.355469 342.824219 20.355469 343.097656 20.628906 C 343.273438 20.804688 343.878906 21.054688 344.445312 21.195312 C 345.019531 21.328125 345.480469 21.523438 345.480469 21.628906 C 345.480469 21.890625 343.277344 21.855469 342.769531 21.582031 L 342.34375 21.351562 L 342.472656 27.472656 C 342.546875 30.84375 342.605469 64.257812 342.605469 101.722656 C 342.613281 139.191406 342.636719 169.839844 342.671875 169.839844 C 342.699219 169.839844 343.089844 169.660156 343.535156 169.433594 Z M 209.90625 122.417969 C 209.875 117.882812 209.847656 121.652344 209.847656 130.785156 C 209.847656 139.921875 209.875 143.621094 209.90625 139.019531 C 209.933594 134.417969 209.933594 126.941406 209.90625 122.417969 Z M 207.855469 75.265625 C 208.683594 74.265625 208.726562 74.15625 208.71875 72.871094 L 208.71875 71.527344 L 207.59375 72.691406 L 206.46875 73.851562 L 206.46875 75.195312 C 206.46875 76.785156 206.585938 76.789062 207.855469 75.265625 Z M 208.714844 65.582031 L 208.714844 60.664062 L 208 61.78125 C 207.609375 62.394531 207.289062 63.019531 207.289062 63.164062 C 207.289062 63.308594 207.105469 63.542969 206.878906 63.683594 C 206.488281 63.929688 206.46875 64.164062 206.46875 68.433594 L 206.46875 72.929688 L 207.59375 71.714844 L 208.707031 70.507812 Z M 207.058594 62.515625 C 207.28125 62.015625 207.75 61.191406 208.09375 60.683594 C 208.445312 60.179688 208.726562 59.554688 208.726562 59.292969 C 208.726562 58.84375 208.703125 58.847656 208.316406 59.433594 C 208.089844 59.769531 207.90625 60.203125 207.90625 60.382812 C 207.90625 60.765625 207.363281 61.050781 207.1875 60.765625 C 207.035156 60.523438 207.527344 59.355469 208.199219 58.375 C 208.71875 57.605469 208.96875 55.875 208.519531 56.15625 C 208.410156 56.21875 208.316406 56.589844 208.316406 56.960938 C 208.316406 57.480469 208.09375 57.890625 207.394531 58.671875 L 206.46875 59.699219 L 206.46875 61.5625 C 206.46875 62.59375 206.511719 63.433594 206.5625 63.433594 C 206.609375 63.433594 206.839844 63.019531 207.058594 62.515625 Z M 208.269531 55.296875 C 208.519531 54.941406 208.726562 54.484375 208.71875 54.273438 C 208.714844 53.917969 208.703125 53.917969 208.503906 54.25 C 208.269531 54.660156 207.703125 54.742188 207.703125 54.367188 C 207.703125 54.234375 207.421875 54.390625 207.082031 54.714844 C 206.503906 55.269531 206.46875 55.398438 206.476562 56.855469 L 206.480469 58.40625 L 207.140625 57.171875 C 207.511719 56.496094 208.019531 55.648438 208.269531 55.292969 Z M 342.960938 14.304688 C 342.898438 14.234375 342.71875 14.226562 342.570312 14.28125 C 342.40625 14.351562 342.453125 14.394531 342.695312 14.40625 C 342.910156 14.40625 343.03125 14.367188 342.960938 14.304688 Z M 355.320312 365.886719 C 355.320312 365.800781 355.628906 365.574219 356.011719 365.390625 C 356.578125 365.121094 356.722656 364.917969 356.832031 364.230469 C 356.984375 363.273438 357.492188 363.085938 357.699219 363.902344 C 357.875 364.597656 357.339844 365.363281 356.417969 365.746094 C 355.582031 366.097656 355.320312 366.128906 355.320312 365.886719 Z M 354.910156 363.902344 C 354.910156 363.828125 355.097656 363.527344 355.320312 363.242188 C 355.828125 362.601562 355.894531 361.035156 355.425781 360.855469 C 354.957031 360.679688 355.058594 360.1875 355.660156 359.714844 C 356.34375 359.175781 356.683594 359.175781 356.972656 359.714844 C 357.359375 360.433594 357.027344 361.753906 356.183594 362.855469 C 355.492188 363.773438 354.910156 364.246094 354.910156 363.890625 Z M 154.546875 357.121094 C 154.46875 357.039062 154.496094 356.847656 154.625 356.695312 C 154.792969 356.484375 155.589844 356.421875 157.8125 356.421875 C 160.484375 356.421875 160.769531 356.457031 160.710938 356.765625 C 160.652344 357.0625 160.253906 357.121094 157.671875 357.191406 C 156.039062 357.238281 154.628906 357.214844 154.546875 357.121094 Z M 267.410156 356.835938 C 266.59375 356.757812 265.808594 356.589844 265.675781 356.449219 C 265.3125 356.09375 265.726562 355.527344 266.464844 355.371094 C 266.789062 355.292969 265.441406 355.222656 263.46875 355.199219 C 258.320312 355.140625 257.394531 354.9375 258.265625 354.066406 C 258.515625 353.816406 258.796875 353.75 259.246094 353.84375 C 259.59375 353.914062 261.40625 354.054688 263.273438 354.167969 C 265.136719 354.269531 267.3125 354.457031 268.09375 354.574219 C 268.875 354.691406 270.003906 354.851562 270.59375 354.914062 C 271.183594 354.984375 271.667969 355.125 271.667969 355.21875 C 271.667969 355.316406 271.183594 355.398438 270.59375 355.40625 C 270.003906 355.40625 269.152344 355.484375 268.695312 355.574219 C 267.992188 355.707031 268.167969 355.753906 269.925781 355.871094 C 272.367188 356.042969 274.703125 356.390625 274.84375 356.613281 C 275.085938 357.011719 270.714844 357.140625 267.410156 356.835938 Z M 82.476562 356.074219 C 81.96875 355.972656 81.882812 355.707031 82.273438 355.460938 C 82.703125 355.1875 111.949219 355.253906 111.949219 355.527344 C 111.949219 355.648438 111.742188 355.832031 111.488281 355.917969 C 110.996094 356.085938 83.257812 356.238281 82.476562 356.074219 Z M 181.980469 353.53125 C 181.472656 352.25 181.351562 351.019531 181.710938 350.71875 C 182.40625 350.140625 183.183594 352.351562 182.8125 353.84375 C 182.625 354.59375 182.371094 354.492188 181.980469 353.53125 Z M 186.203125 353.050781 C 185.738281 352.542969 185.351562 351.988281 185.351562 351.832031 C 185.351562 351.667969 185.242188 351.496094 185.113281 351.449219 C 184.777344 351.339844 185.035156 350.753906 185.53125 350.488281 C 186.09375 350.1875 186.507812 350.636719 186.683594 351.753906 C 186.765625 352.234375 186.964844 352.847656 187.132812 353.109375 C 187.324219 353.40625 187.367188 353.664062 187.25 353.785156 C 187.132812 353.902344 186.730469 353.625 186.203125 353.050781 Z M 252.703125 352.601562 C 246.613281 352.117188 240.828125 351.472656 240.304688 351.222656 C 240.023438 351.089844 239.761719 350.824219 239.726562 350.628906 C 239.667969 350.339844 239.765625 350.292969 240.234375 350.375 C 240.550781 350.433594 242.382812 350.660156 244.300781 350.890625 C 246.214844 351.117188 248.476562 351.433594 249.320312 351.597656 C 250.167969 351.761719 251.96875 351.988281 253.316406 352.109375 C 256.4375 352.386719 257.113281 352.496094 257.113281 352.742188 C 257.113281 352.964844 257.269531 352.96875 252.703125 352.605469 Z M 319.140625 352.367188 C 319.710938 351.023438 319.824219 349.167969 319.707031 342.839844 C 319.589844 336.753906 319.605469 336.328125 319.9375 336.199219 C 320.15625 336.121094 320.382812 336.175781 320.5 336.347656 C 320.628906 336.527344 320.65625 338.894531 320.582031 342.683594 C 320.472656 348.558594 320.207031 351.269531 319.660156 352.292969 C 319.378906 352.816406 318.917969 352.886719 319.140625 352.367188 Z M 50.144531 352.039062 C 49.863281 351.839844 49.828125 351.726562 50.015625 351.613281 C 50.300781 351.433594 58.367188 351.449219 59.511719 351.636719 C 59.9375 351.703125 60.285156 351.824219 60.285156 351.910156 C 60.285156 352.203125 58.710938 352.316406 54.636719 352.316406 C 51.503906 352.316406 50.429688 352.25 50.144531 352.046875 Z M 82.542969 351.679688 C 83.015625 350.742188 83.929688 349.425781 85.042969 348.0625 L 85.957031 346.9375 L 80.65625 347.09375 C 77.742188 347.179688 69.664062 347.246094 62.714844 347.238281 L 50.066406 347.238281 L 48.796875 348.554688 C 48.09375 349.277344 47.441406 349.867188 47.339844 349.867188 C 46.949219 349.867188 47.207031 349.367188 48.113281 348.359375 L 49.0625 347.304688 L 47.089844 347.175781 L 45.121094 349.132812 C 42.386719 351.859375 42.101562 351.65625 44.519531 348.707031 L 45.722656 347.234375 L 44.238281 347.121094 C 43.421875 347.058594 40.003906 346.960938 36.640625 346.90625 C 33.28125 346.847656 30.445312 346.742188 30.328125 346.671875 C 30.199219 346.589844 30.214844 346.433594 30.378906 346.234375 C 30.601562 345.964844 31.71875 345.9375 38.742188 345.988281 L 46.855469 346.046875 L 47.820312 345.066406 C 48.351562 344.53125 48.875 344.144531 49 344.21875 C 49.320312 344.417969 49.261719 344.644531 48.703125 345.3125 C 48.414062 345.652344 48.1875 345.976562 48.1875 346.046875 C 48.1875 346.277344 49.617188 346.175781 50.0625 345.917969 C 50.40625 345.710938 50.511719 345.710938 50.589844 345.917969 C 50.710938 346.253906 68.902344 346.269531 79.445312 345.949219 C 86.78125 345.722656 86.828125 345.722656 87.40625 345.230469 C 88.195312 344.566406 88.664062 344.578125 88.492188 345.253906 L 88.363281 345.769531 L 92.839844 345.769531 C 97.457031 345.769531 98.246094 345.890625 97.820312 346.566406 C 97.667969 346.800781 96.972656 346.847656 94.144531 346.8125 C 90.683594 346.761719 90.652344 346.765625 90.410156 347.238281 C 90.269531 347.503906 89.929688 347.992188 89.648438 348.324219 C 88.890625 349.261719 85.863281 352.34375 85.789062 352.269531 C 85.707031 352.191406 87.539062 349.710938 88.730469 348.285156 C 89.921875 346.859375 89.882812 346.71875 88.324219 346.890625 C 87.167969 347.011719 86.980469 347.105469 86.425781 347.777344 C 82.996094 351.964844 81.757812 353.207031 82.542969 351.683594 Z M 155.003906 351.785156 C 155.003906 351.632812 155.242188 351.351562 155.53125 351.164062 C 155.992188 350.867188 156.550781 350.835938 160.296875 350.9375 C 164.570312 351.054688 165.34375 351.152344 165.203125 351.574219 C 165.148438 351.730469 163.847656 351.820312 161.039062 351.851562 C 158.792969 351.882812 156.515625 351.933594 155.980469 351.976562 C 155.265625 352.035156 155.003906 351.976562 155.003906 351.785156 Z M 257.074219 350.773438 C 257.015625 350.714844 255.871094 350.480469 254.527344 350.257812 C 253.1875 350.03125 250.523438 349.527344 248.609375 349.136719 C 245.824219 348.566406 244.660156 348.425781 242.769531 348.417969 C 239.292969 348.417969 237.023438 348.210938 237.023438 347.894531 C 237.023438 347.6875 237.617188 347.652344 239.738281 347.722656 L 242.453125 347.816406 L 239.890625 347.085938 L 237.324219 346.351562 L 233.6875 346.496094 C 230.578125 346.613281 230.082031 346.683594 230.289062 346.929688 C 230.492188 347.175781 230.433594 347.199219 229.933594 347.085938 C 228.097656 346.679688 225.277344 345.382812 223.117188 343.964844 L 221.949219 343.199219 L 216.679688 343.09375 C 213.554688 343.035156 211.324219 342.90625 211.203125 342.785156 C 211.085938 342.667969 211.074219 342.457031 211.167969 342.296875 C 211.304688 342.078125 212.265625 342.03125 215.828125 342.042969 L 220.304688 342.066406 L 219.542969 341.398438 C 218.71875 340.6875 218.582031 340.226562 219.085938 339.808594 C 219.347656 339.589844 219.496094 339.628906 219.957031 340.066406 C 221.519531 341.515625 222.480469 342.070312 223.453125 342.070312 C 224.722656 342.070312 225.289062 342.414062 224.347656 342.601562 C 223.96875 342.679688 223.746094 342.816406 223.839844 342.917969 C 223.9375 343.011719 225.03125 343.664062 226.277344 344.371094 L 228.542969 345.65625 L 231.691406 345.59375 L 234.84375 345.535156 L 233.242188 344.839844 C 231.433594 344.050781 231.390625 344.019531 231.578125 343.722656 C 231.804688 343.355469 232.425781 343.472656 234.207031 344.207031 C 236.199219 345.03125 238.703125 345.761719 239.558594 345.761719 C 239.882812 345.761719 240.25 345.882812 240.378906 346.035156 C 240.503906 346.1875 241.53125 346.554688 242.65625 346.847656 C 244.21875 347.257812 244.984375 347.355469 245.859375 347.261719 C 246.863281 347.15625 247.042969 347.199219 247.300781 347.5625 C 247.710938 348.152344 249.597656 348.734375 253.742188 349.558594 C 255.71875 349.949219 257.371094 350.269531 257.421875 350.269531 C 257.480469 350.269531 257.523438 350.410156 257.523438 350.582031 C 257.523438 350.882812 257.28125 350.988281 257.074219 350.773438 Z M 221.542969 350.398438 C 221.152344 350.113281 221.152344 350.082031 221.492188 349.703125 C 221.835938 349.324219 221.796875 349.285156 220.15625 348.472656 C 219.226562 348.011719 218.257812 347.4375 218.003906 347.199219 C 217.480469 346.707031 217.402344 346.207031 217.824219 346.046875 C 218.132812 345.925781 220.523438 347.378906 221.660156 348.371094 C 222.046875 348.710938 222.71875 349.179688 223.15625 349.414062 C 223.949219 349.832031 223.949219 349.839844 223.417969 349.972656 C 223.128906 350.042969 222.90625 350.210938 222.929688 350.339844 C 223 350.695312 222.007812 350.738281 221.542969 350.398438 Z M 121.09375 349.839844 C 119.710938 349.632812 119.703125 349.632812 119.933594 349.265625 C 120.074219 349.039062 120.300781 349.03125 121.207031 349.242188 C 122.804688 349.609375 122.816406 349.617188 122.816406 349.851562 C 122.816406 350.082031 122.804688 350.082031 121.09375 349.828125 Z M 98.210938 349.714844 C 96.121094 349.597656 95.34375 349.441406 95.34375 349.121094 C 95.34375 348.496094 96.34375 348.390625 100.050781 348.636719 C 102.03125 348.769531 104.339844 348.914062 105.183594 348.960938 C 107.089844 349.074219 107.695312 349.195312 107.609375 349.457031 C 107.539062 349.65625 100.566406 349.851562 98.210938 349.714844 Z M 200.046875 349.101562 C 199.503906 348.558594 200.058594 348.472656 205.085938 348.296875 C 211.539062 348.070312 214.6875 348.09375 215.179688 348.367188 C 215.488281 348.542969 215.332031 348.605469 214.34375 348.710938 C 210.910156 349.085938 200.320312 349.378906 200.046875 349.109375 Z M 145.023438 347.039062 C 144.863281 346.929688 144.839844 346.765625 144.964844 346.574219 C 145.128906 346.3125 147.828125 346.253906 164.996094 346.140625 C 180.164062 346.046875 185.976562 345.9375 189.65625 345.679688 C 192.308594 345.5 194.800781 345.292969 195.191406 345.234375 C 195.671875 345.160156 196.046875 345.234375 196.320312 345.441406 C 196.730469 345.75 196.730469 345.761719 196.332031 346.066406 C 196.097656 346.242188 195.496094 346.375 194.894531 346.375 C 194.328125 346.375 192.335938 346.527344 190.472656 346.714844 C 187.6875 346.984375 183.425781 347.050781 166.183594 347.121094 C 154.675781 347.164062 145.15625 347.121094 145.023438 347.035156 Z M 121.28125 346.660156 C 120.941406 346.609375 119.910156 346.46875 118.980469 346.351562 C 117.152344 346.105469 116.460938 345.699219 117.328125 345.371094 C 117.671875 345.234375 119.050781 345.328125 121.707031 345.667969 C 123.839844 345.941406 126.226562 346.171875 127.023438 346.175781 C 127.8125 346.175781 128.828125 346.265625 129.277344 346.359375 C 129.925781 346.492188 129.644531 346.539062 127.945312 346.554688 C 126.757812 346.574219 124.914062 346.613281 123.84375 346.660156 C 122.769531 346.707031 121.621094 346.707031 121.28125 346.660156 Z M 210.65625 345.324219 C 210.355469 344.828125 211.179688 344.710938 214.320312 344.792969 C 216.101562 344.84375 217.609375 344.933594 217.671875 344.996094 C 217.738281 345.066406 217.726562 345.210938 217.648438 345.335938 C 217.460938 345.640625 210.851562 345.632812 210.65625 345.335938 Z M 36.886719 343.957031 C 36.875 343.875 36.875 343.730469 36.890625 343.636719 C 36.910156 343.542969 34.867188 343.496094 32.355469 343.53125 C 28.121094 343.589844 27.273438 343.53125 27.273438 343.121094 C 27.273438 343.035156 29.71875 342.957031 32.703125 342.941406 C 37.296875 342.917969 38.140625 342.964844 38.140625 343.210938 C 38.140625 343.390625 38.351562 343.5 38.695312 343.5 C 39.019531 343.5 39.171875 343.578125 39.054688 343.683594 C 38.800781 343.910156 36.914062 344.15625 36.886719 343.957031 Z M 22.144531 342.101562 C 22.144531 342 22.34375 341.75 22.582031 341.535156 C 23.007812 341.148438 22.984375 341.140625 20.433594 341.035156 C 17.675781 340.925781 16.953125 340.675781 17.71875 340.109375 C 18.035156 339.878906 18.675781 339.84375 20.941406 339.949219 L 23.773438 340.078125 L 24.890625 339.128906 C 25.503906 338.601562 26.105469 338.167969 26.226562 338.167969 C 26.640625 338.167969 26.460938 338.859375 25.890625 339.464844 L 25.328125 340.066406 L 26.246094 339.945312 C 26.753906 339.878906 28.371094 339.769531 29.835938 339.707031 C 31.304688 339.640625 32.886719 339.542969 33.351562 339.484375 C 34.199219 339.382812 34.207031 339.371094 34.03125 338.753906 C 33.929688 338.410156 33.855469 338.0625 33.867188 337.992188 C 33.871094 337.925781 33.871094 337.648438 33.859375 337.390625 L 33.835938 336.917969 L 30.707031 337 C 28.988281 337.042969 25.855469 337.207031 23.746094 337.351562 C 20.636719 337.574219 19.855469 337.574219 19.597656 337.351562 C 19.191406 337.011719 19.328125 336.8125 20.3125 336.3125 C 20.972656 335.972656 21.519531 335.902344 23.523438 335.902344 C 24.855469 335.902344 26.269531 335.808594 26.660156 335.6875 C 27.058594 335.5625 28.828125 335.414062 30.601562 335.347656 L 33.824219 335.230469 L 33.882812 324.445312 C 33.914062 318.515625 33.960938 255.578125 33.988281 184.59375 C 34.019531 113.609375 34.09375 51.238281 34.164062 45.992188 C 34.28125 37.023438 34.3125 36.433594 34.671875 36.058594 C 34.925781 35.796875 35.128906 35.726562 35.261719 35.855469 C 35.390625 35.984375 35.507812 89.644531 35.601562 186.785156 L 35.746094 337.515625 L 40.011719 337.578125 C 44.445312 337.648438 45.074219 337.773438 44.503906 338.460938 C 44.28125 338.722656 43.550781 338.777344 39.785156 338.777344 C 36.070312 338.777344 35.28125 338.828125 35.0625 339.082031 C 34.847656 339.34375 34.894531 339.390625 35.367188 339.390625 C 36.117188 339.390625 35.933594 339.839844 35.15625 339.902344 C 33.679688 340.019531 31.753906 340.261719 30.144531 340.527344 C 29.1875 340.6875 27.347656 340.878906 26.0625 340.957031 C 23.886719 341.089844 23.679688 341.136719 23.066406 341.679688 C 22.378906 342.28125 22.152344 342.386719 22.152344 342.089844 Z M 214.996094 339.820312 C 212.996094 339.730469 212.519531 339.648438 212.339844 339.355469 C 211.867188 338.601562 212.410156 338.507812 215.273438 338.847656 C 216.742188 339.023438 218.035156 339.226562 218.144531 339.289062 C 218.449219 339.476562 218.15625 340.019531 217.777344 339.972656 C 217.589844 339.949219 216.339844 339.886719 214.996094 339.820312 Z M 212.753906 337.75 C 211.609375 337.554688 211.5 337.484375 211.667969 337.054688 C 211.757812 336.824219 212.078125 336.734375 212.820312 336.734375 C 213.386719 336.734375 213.851562 336.644531 213.851562 336.527344 C 213.851562 336.222656 214.246094 336.28125 214.601562 336.632812 C 214.769531 336.808594 215.277344 336.941406 215.761719 336.941406 C 216.882812 336.941406 217.308594 337.199219 216.9375 337.644531 C 216.640625 338 214.566406 338.050781 212.753906 337.75 Z M 228.925781 334.222656 C 229.015625 333.632812 229.097656 331.714844 229.121094 329.96875 C 229.148438 327.847656 229.285156 326.277344 229.515625 325.257812 C 229.816406 323.949219 229.84375 323.113281 229.726562 319.695312 C 229.621094 316.789062 229.644531 315.636719 229.816406 315.53125 C 229.984375 315.425781 230.046875 313.417969 230.046875 308.546875 C 230.046875 301.816406 230.136719 300.878906 230.695312 301.703125 C 230.90625 302.003906 230.765625 307.992188 230.453125 312.417969 C 230.3125 314.292969 230.324219 315.144531 230.480469 315.339844 C 230.777344 315.695312 230.535156 322.511719 230.140625 324.742188 C 229.984375 325.640625 229.757812 328.257812 229.632812 330.554688 C 229.398438 334.824219 229.335938 335.300781 228.980469 335.300781 C 228.855469 335.300781 228.832031 334.898438 228.925781 334.222656 Z M 30.964844 333.480469 L 30.964844 332.476562 L 29.578125 332.347656 C 28.820312 332.269531 27.851562 332.160156 27.425781 332.09375 L 26.660156 331.984375 L 26.660156 332.914062 C 26.660156 334.234375 26.28125 334.308594 26.210938 333 L 26.144531 331.917969 L 25.222656 331.816406 C 24.5625 331.738281 24.28125 331.609375 24.234375 331.351562 C 24.160156 330.945312 24.960938 330.554688 25.5625 330.710938 C 25.855469 330.785156 25.992188 330.640625 26.164062 330.082031 L 26.390625 329.355469 L 24.574219 329.355469 C 22.753906 329.355469 22.1875 329.109375 23.429688 328.859375 C 24.609375 328.621094 28.375 328.503906 29.289062 328.671875 C 30.71875 328.941406 30.292969 329.246094 28.398438 329.308594 L 26.660156 329.367188 L 26.660156 330.058594 C 26.660156 330.898438 26.757812 330.9375 29.082031 331.113281 L 30.898438 331.253906 L 31.035156 328.738281 C 31.238281 324.886719 31.203125 317.980469 30.921875 309.300781 C 30.679688 301.554688 30.707031 300.90625 31.308594 300.707031 C 31.722656 300.566406 32.089844 310.042969 32.089844 321.011719 L 32.089844 331.628906 L 32.550781 331.746094 C 32.804688 331.808594 32.96875 331.929688 32.910156 332.023438 C 32.855469 332.113281 32.628906 332.140625 32.414062 332.082031 C 32.085938 331.996094 31.992188 332.117188 31.886719 332.765625 C 31.582031 334.625 30.964844 335.101562 30.964844 333.480469 Z M 20.222656 333.703125 C 19.726562 332.902344 22.613281 332.542969 24.632812 333.152344 C 25.300781 333.355469 25.835938 333.597656 25.835938 333.691406 C 25.835938 333.910156 20.363281 333.921875 20.222656 333.691406 Z M 319.648438 324.6875 C 319.652344 320.453125 319.730469 319.71875 320.160156 319.71875 C 320.640625 319.71875 320.679688 320.355469 320.464844 324.097656 C 320.226562 328.171875 320.148438 328.738281 319.847656 328.738281 C 319.722656 328.738281 319.648438 327.199219 319.648438 324.6875 Z M 28.84375 324.46875 C 28.773438 322.359375 28.558594 318.242188 28.363281 315.304688 C 28.03125 310.246094 28.0625 308.945312 28.5 309.382812 C 28.78125 309.660156 29.292969 314.011719 29.503906 317.875 C 29.738281 322.125 29.574219 328.066406 29.222656 328.199219 C 29.035156 328.269531 28.941406 327.324219 28.84375 324.46875 Z M 26.898438 325.921875 C 26.175781 325.871094 25.835938 325.765625 25.890625 325.601562 C 26.070312 325.058594 28.710938 325.222656 28.710938 325.777344 C 28.710938 325.9375 28.546875 326.054688 28.347656 326.03125 C 28.15625 326.015625 27.5 325.960938 26.898438 325.921875 Z M 319.246094 317.476562 C 319.128906 317.261719 319.035156 316.863281 319.035156 316.601562 C 319.035156 316.167969 318.929688 316.109375 318.070312 316.074219 C 317.347656 316.046875 316.996094 316.132812 316.667969 316.441406 C 316.25 316.832031 316.191406 316.839844 315.4375 316.519531 C 313.632812 315.769531 305.097656 314.078125 290.222656 311.523438 C 284.925781 310.613281 280.40625 309.832031 280.175781 309.777344 C 279.710938 309.671875 279.136719 308.433594 279.457031 308.238281 C 279.585938 308.15625 279.679688 291.597656 279.714844 261.746094 C 279.757812 226.699219 279.828125 215.320312 280.007812 215.140625 C 280.1875 214.953125 281.988281 215.023438 287.59375 215.429688 C 294.894531 215.964844 299.328125 216.253906 303.453125 216.484375 C 304.632812 216.546875 307.398438 216.738281 309.601562 216.902344 C 311.796875 217.066406 314.238281 217.222656 315.015625 217.253906 C 315.832031 217.28125 316.46875 217.398438 316.511719 217.535156 C 316.5625 217.691406 314.953125 217.796875 310.992188 217.882812 C 301.855469 218.09375 285.867188 218.136719 285.679688 217.953125 C 285.585938 217.859375 285.714844 217.617188 285.964844 217.410156 L 286.425781 217.039062 L 285.554688 216.910156 C 282.839844 216.5 282.8125 216.5 283.203125 216.9375 C 283.570312 217.347656 283.507812 217.640625 283.078125 217.511719 C 282.953125 217.46875 282.4375 217.382812 281.941406 217.3125 L 281.035156 217.183594 L 281.152344 262.523438 C 281.21875 287.457031 281.296875 307.886719 281.339844 307.925781 C 281.503906 308.085938 283.273438 307.5 283.496094 307.214844 C 283.816406 306.792969 284.875 306.859375 288.320312 307.5 C 291.71875 308.132812 297.371094 308.898438 297.984375 308.808594 C 298.222656 308.773438 296.90625 308.535156 295.042969 308.273438 C 291.25 307.742188 286.730469 306.800781 285.542969 306.296875 C 284.5 305.847656 284.570312 305.265625 285.671875 305.265625 C 286.386719 305.265625 286.484375 305.183594 287.058594 304.183594 C 287.472656 303.460938 287.800781 303.109375 288.074219 303.109375 C 288.632812 303.109375 288.585938 303.394531 287.871094 304.441406 C 287.53125 304.929688 287.25 305.425781 287.25 305.539062 C 287.25 305.867188 295.375 307.640625 300.480469 308.429688 C 302.054688 308.675781 305.050781 309.183594 307.144531 309.5625 C 309.226562 309.941406 311.277344 310.308594 311.703125 310.378906 C 312.125 310.449219 312.46875 310.589844 312.46875 310.691406 C 312.46875 310.957031 313.339844 311.046875 313.730469 310.816406 C 313.964844 310.683594 314.351562 310.730469 314.96875 310.964844 C 316.628906 311.601562 316.632812 311.578125 315.511719 308.734375 C 314.398438 305.914062 314.398438 305.925781 315.664062 305.175781 L 316.363281 304.761719 L 316.363281 305.363281 C 316.363281 305.695312 316.597656 306.671875 316.878906 307.535156 C 317.160156 308.398438 317.398438 309.441406 317.410156 309.847656 C 317.453125 311.179688 317.65625 311.59375 318.375 311.742188 L 319.035156 311.875 L 319.039062 310.515625 C 319.046875 309.648438 319.15625 309.011719 319.347656 308.761719 C 319.730469 308.253906 319.730469 307.453125 319.335938 306.527344 C 319.070312 305.878906 319.035156 300.613281 319.035156 263.410156 L 319.035156 221.03125 L 317.960938 222.5 C 316.960938 223.871094 316.363281 224.320312 316.363281 223.707031 C 316.363281 223.566406 316.714844 222.847656 317.148438 222.113281 C 317.578125 221.378906 317.996094 220.605469 318.070312 220.402344 C 318.152344 220.203125 318.390625 219.988281 318.613281 219.929688 C 318.910156 219.851562 319.027344 219.613281 319.074219 218.976562 C 319.132812 218.136719 319.144531 218.125 320.003906 218.058594 L 320.878906 218 L 320.878906 316.867188 L 320.371094 317.371094 C 319.765625 317.980469 319.523438 318.003906 319.246094 317.476562 Z M 316.773438 315.203125 C 317 314.984375 317.371094 314.796875 317.597656 314.796875 C 318.082031 314.796875 318.128906 314.539062 317.695312 314.183594 C 317.527344 314.042969 317.316406 313.644531 317.230469 313.300781 L 317.066406 312.667969 L 304.460938 310.875 C 297.535156 309.890625 290.199219 308.785156 288.15625 308.421875 C 286.109375 308.0625 284.230469 307.820312 283.957031 307.898438 C 283.40625 308.050781 282.617188 308.59375 282.757812 308.726562 C 282.804688 308.773438 286.953125 309.515625 291.96875 310.378906 C 306.832031 312.933594 312.808594 314.210938 316.3125 315.597656 C 316.339844 315.597656 316.550781 315.433594 316.773438 315.203125 Z M 319.035156 313.773438 C 319.035156 312.878906 318.976562 312.746094 318.613281 312.746094 C 318.246094 312.746094 318.226562 312.796875 318.445312 313.207031 C 318.585938 313.464844 318.679688 313.925781 318.65625 314.234375 C 318.632812 314.542969 318.707031 314.796875 318.824219 314.796875 C 318.941406 314.796875 319.035156 314.335938 319.035156 313.773438 Z M 291.410156 217.46875 C 291.152344 217.417969 290.691406 217.417969 290.378906 217.46875 C 290.070312 217.515625 290.277344 217.558594 290.84375 217.558594 C 291.402344 217.558594 291.660156 217.515625 291.410156 217.46875 Z M 272.738281 307.890625 C 272.363281 307.710938 272.136719 307.496094 272.222656 307.417969 C 272.308594 307.34375 273.191406 307.324219 274.179688 307.371094 C 275.539062 307.4375 275.976562 307.523438 275.976562 307.746094 C 275.976562 307.949219 275.691406 308.03125 274.96875 308.03125 C 274.414062 308.03125 273.835938 308.074219 273.683594 308.125 C 273.535156 308.183594 273.109375 308.078125 272.738281 307.890625 Z M 265.519531 306.792969 C 262.800781 306.640625 261.078125 306.285156 261.15625 305.878906 C 261.226562 305.472656 262.152344 305.457031 264.179688 305.8125 C 265.3125 306.015625 266.632812 306.179688 267.125 306.179688 C 268.085938 306.179688 268.882812 306.503906 268.6875 306.8125 C 268.625 306.917969 268.507812 306.992188 268.425781 306.976562 C 268.351562 306.953125 267.042969 306.875 265.519531 306.792969 Z M 282.835938 306.132812 C 282.78125 305.992188 282.757812 286.21875 282.789062 262.183594 C 282.828125 228.28125 282.898438 218.429688 283.089844 218.195312 C 283.390625 217.835938 284.464844 217.871094 284.929688 218.257812 C 285.457031 218.691406 287.25 221.132812 287.25 221.40625 C 287.25 221.546875 287.441406 221.898438 287.675781 222.195312 C 287.910156 222.492188 288.054688 222.738281 287.992188 222.738281 C 287.59375 222.738281 285.871094 221.277344 285.070312 220.265625 C 284.546875 219.597656 284.019531 219.046875 283.910156 219.046875 C 283.769531 219.046875 283.738281 233.097656 283.828125 262.34375 C 283.910156 290.632812 283.878906 305.765625 283.75 306.011719 C 283.519531 306.445312 282.980469 306.515625 282.835938 306.132812 Z M 256.5 305.042969 C 255.3125 304.773438 250.929688 303.863281 246.757812 303.003906 C 242.589844 302.152344 237.84375 301.128906 236.226562 300.742188 C 233.25 300.023438 231.175781 299.839844 231.03125 300.265625 C 230.976562 300.429688 230.75 300.394531 230.292969 300.160156 L 229.640625 299.820312 L 229.640625 212.539062 L 230.292969 212.40625 C 230.683594 212.332031 231 212.367188 231.082031 212.503906 C 231.1875 212.667969 231.363281 212.65625 231.714844 212.457031 C 232.589844 211.957031 241.476562 212.097656 251.265625 212.761719 C 256.003906 213.082031 259.988281 213.382812 260.121094 213.417969 C 260.300781 213.46875 260.367188 224.292969 260.382812 258.792969 C 260.40625 301.246094 260.382812 304.136719 260.058594 304.832031 C 259.636719 305.714844 259.546875 305.71875 256.5 305.042969 Z M 258.957031 302.308594 C 258.957031 301.035156 258.878906 300.445312 258.703125 300.375 C 258.507812 300.300781 258.519531 300.21875 258.75 300.058594 C 258.914062 299.941406 259.003906 299.808594 258.953125 299.757812 C 258.902344 299.703125 256.621094 299.628906 253.902344 299.59375 L 248.941406 299.523438 L 251.542969 300.175781 C 252.972656 300.53125 254.585938 300.882812 255.128906 300.960938 C 256.378906 301.125 256.296875 301.507812 254.957031 301.753906 C 254.132812 301.90625 253.929688 301.882812 253.71875 301.597656 C 253.394531 301.144531 252.691406 300.953125 249.21875 300.359375 C 246.4375 299.878906 244.820312 299.679688 239.90625 299.214844 C 238.621094 299.089844 236.503906 298.808594 235.195312 298.59375 C 233.113281 298.242188 232.699219 298.226562 231.90625 298.472656 L 230.996094 298.738281 L 232.625 298.863281 C 233.519531 298.925781 235.496094 299.273438 237.023438 299.632812 C 239.59375 300.242188 258.128906 304.078125 258.703125 304.121094 C 258.890625 304.144531 258.957031 303.644531 258.957031 302.308594 Z M 244.859375 298.875 C 244.71875 298.816406 244.492188 298.816406 244.351562 298.875 C 244.207031 298.925781 244.324219 298.972656 244.601562 298.972656 C 244.890625 298.972656 245 298.925781 244.859375 298.875 Z M 259.003906 257.132812 C 259.035156 234.097656 259.035156 215.214844 259.003906 215.164062 C 258.976562 215.117188 258.84375 215.1875 258.707031 215.320312 C 258.277344 215.753906 240.875 215.570312 232.765625 215.050781 L 231.070312 214.945312 L 231.070312 297.988281 L 231.589844 297.988281 C 231.875 297.988281 232.351562 297.828125 232.636719 297.640625 C 233.121094 297.320312 233.324219 297.332031 235.960938 297.742188 C 239.925781 298.367188 243.609375 298.839844 243.714844 298.738281 C 243.761719 298.695312 243.21875 298.546875 242.511719 298.40625 C 240.457031 298.015625 236.121094 296.96875 235.789062 296.777344 C 235.589844 296.667969 235.402344 296.71875 235.257812 296.917969 C 235.136719 297.085938 234.917969 297.179688 234.773438 297.132812 C 234.597656 297.082031 234.738281 296.753906 235.207031 296.152344 C 235.976562 295.140625 236.402344 294.898438 236.402344 295.457031 C 236.402344 295.765625 236.816406 295.9375 238.710938 296.398438 C 244.871094 297.917969 251.921875 298.972656 256.03125 298.996094 L 258.953125 299.015625 L 259.003906 257.136719 Z M 232.382812 296.871094 C 232.320312 296.714844 232.316406 278.503906 232.367188 256.414062 C 232.4375 226.570312 232.519531 216.125 232.695312 215.800781 C 232.996094 215.238281 233.464844 215.226562 233.640625 215.777344 C 233.714844 216.015625 233.898438 216.15625 234.042969 216.097656 C 234.1875 216.042969 234.492188 216.195312 234.710938 216.441406 C 235.082031 216.855469 236.199219 218.765625 236.199219 218.988281 C 236.199219 219.039062 235.644531 218.601562 234.972656 218.019531 L 233.738281 216.949219 L 233.738281 256.734375 C 233.738281 292.625 233.710938 296.550781 233.417969 296.835938 C 233.015625 297.238281 232.53125 297.25 232.382812 296.871094 Z M 256.523438 295.777344 C 256.347656 295.453125 256.121094 295.441406 253.960938 295.605469 C 251.324219 295.8125 247.109375 295.445312 243.679688 294.714844 C 242.121094 294.382812 238.171875 293.226562 236.96875 292.753906 C 236.636719 292.621094 236.613281 291.011719 236.628906 264.695312 C 236.652344 230.367188 236.789062 220.34375 237.226562 220.070312 C 237.808594 219.699219 243.796875 219.859375 249.320312 220.394531 C 254.386719 220.886719 256.761719 221.078125 257.878906 221.089844 C 258.136719 221.089844 258.339844 221.191406 258.339844 221.300781 C 258.339844 221.417969 258.160156 221.503906 257.929688 221.503906 C 257.523438 221.503906 257.523438 221.640625 257.523438 258.292969 C 257.523438 281.703125 257.453125 295.277344 257.324219 295.609375 C 257.089844 296.222656 256.796875 296.289062 256.523438 295.777344 Z M 256.359375 282.148438 C 256.4375 275.128906 256.496094 258.796875 256.496094 245.855469 C 256.5 223.585938 256.476562 222.328125 256.136719 222.328125 C 255.9375 222.328125 254.304688 222.234375 252.5 222.125 C 250.695312 222.015625 246.980469 221.78125 244.246094 221.617188 C 240.683594 221.402344 239.101562 221.226562 238.667969 220.996094 C 238.335938 220.828125 238.015625 220.6875 237.949219 220.6875 C 237.890625 220.6875 237.816406 236.695312 237.789062 256.261719 C 237.742188 288.695312 237.765625 291.832031 238.0625 291.832031 C 238.242188 291.832031 238.9375 292.023438 239.601562 292.25 C 243.265625 293.523438 249.484375 294.539062 255.695312 294.878906 L 256.226562 294.910156 Z M 249.730469 214.113281 C 244.382812 213.703125 240.75 213.535156 236.988281 213.523438 L 231.726562 213.503906 L 231.945312 213.964844 C 232.164062 214.421875 232.191406 214.425781 236.074219 214.367188 C 238.230469 214.339844 242.066406 214.390625 244.601562 214.492188 C 247.144531 214.589844 251.015625 214.671875 253.21875 214.679688 L 257.210938 214.679688 L 249.730469 214.101562 Z M 313.703125 304.164062 C 313.703125 304.074219 312.339844 303.832031 310.675781 303.632812 C 306.726562 303.167969 292.171875 300.753906 290.796875 300.347656 C 290.210938 300.164062 289.609375 299.902344 289.464844 299.757812 C 289.3125 299.605469 289.054688 299.441406 288.890625 299.382812 C 288.628906 299.296875 288.597656 294.722656 288.65625 262.597656 C 288.699219 242.425781 288.761719 225.453125 288.808594 224.894531 C 288.867188 224.097656 289.007812 223.761719 289.429688 223.390625 C 289.726562 223.128906 290.101562 222.972656 290.269531 223.035156 C 290.433594 223.09375 291.085938 223.195312 291.730469 223.253906 L 292.890625 223.355469 L 291.804688 223.078125 C 290.554688 222.75 290.367188 222.621094 290.695312 222.289062 C 290.878906 222.105469 291.628906 222.160156 293.863281 222.5 C 297.65625 223.078125 311.808594 224.582031 313.46875 224.582031 C 313.597656 224.582031 313.703125 224.71875 313.703125 224.886719 C 313.703125 225.113281 314.0625 225.195312 315.289062 225.242188 L 316.878906 225.300781 L 317.03125 263.742188 C 317.113281 284.890625 317.128906 302.476562 317.070312 302.835938 C 316.941406 303.65625 316.421875 304.144531 316.136719 303.714844 C 316.015625 303.53125 315.992188 289.390625 316.085938 264.921875 C 316.179688 239.230469 316.15625 226.429688 316.015625 226.429688 C 315.613281 226.429688 315.511719 238.617188 315.664062 269.792969 C 315.816406 302.28125 315.808594 302.699219 315.023438 302.699219 C 314.863281 302.699219 314.683594 302.488281 314.613281 302.234375 C 314.546875 301.96875 314.523438 284.8125 314.558594 264.09375 L 314.625 226.429688 L 313.292969 226.429688 C 310.671875 226.429688 299.390625 225.441406 293.195312 224.671875 C 291.789062 224.496094 290.449219 224.332031 290.222656 224.316406 C 289.8125 224.28125 289.8125 224.402344 289.8125 261.628906 L 289.8125 298.980469 L 291.25 299.398438 C 293.050781 299.921875 300.859375 301.234375 307.941406 302.203125 C 310.921875 302.613281 313.574219 303.027344 313.835938 303.125 C 314.339844 303.3125 314.402344 303.476562 314.191406 304.019531 C 314.0625 304.359375 313.703125 304.46875 313.703125 304.171875 Z M 285.660156 303.230469 C 286.179688 302.734375 286.632812 302.109375 286.671875 301.847656 C 286.765625 301.1875 287.535156 301.1875 287.628906 301.847656 C 287.710938 302.429688 287.273438 302.945312 286.109375 303.621094 C 284.785156 304.398438 284.609375 304.242188 285.660156 303.238281 Z M 30.542969 272.714844 C 30.539062 271.898438 30.457031 270.582031 30.367188 269.792969 C 30.175781 268.117188 30.433594 267.441406 30.917969 268.363281 C 31.144531 268.796875 31.175781 269.460938 31.058594 271.558594 C 30.898438 274.398438 30.5625 275.164062 30.542969 272.714844 Z M 30.648438 262.703125 C 30.574219 262.582031 30.679688 262.050781 30.882812 261.523438 C 31.128906 260.894531 31.257812 260.042969 31.25 259.03125 C 31.25 258.183594 31.226562 254.546875 31.199219 250.941406 C 31.175781 247.339844 31.203125 244.019531 31.261719 243.558594 C 31.320312 243.105469 31.460938 238.757812 31.570312 233.910156 C 31.851562 222.117188 31.957031 220.074219 32.300781 220.074219 C 32.484375 220.074219 32.621094 220.523438 32.722656 221.457031 C 32.925781 223.378906 32.667969 238.636719 32.285156 247.035156 C 32.113281 250.867188 31.929688 255.824219 31.882812 258.042969 C 31.824219 260.828125 31.71875 262.21875 31.535156 262.503906 C 31.25 262.960938 30.859375 263.050781 30.648438 262.703125 Z M 314.117188 219.15625 C 313.871094 218.859375 313.871094 218.785156 314.121094 218.625 C 314.285156 218.519531 314.53125 218.4375 314.675781 218.433594 C 314.816406 218.433594 314.929688 218.335938 314.929688 218.21875 C 314.929688 218.082031 315.285156 218.023438 315.804688 218.058594 C 316.292969 218.09375 316.628906 218.210938 316.570312 218.328125 C 316.515625 218.445312 316.292969 218.507812 316.085938 218.480469 C 315.757812 218.433594 315.738281 218.480469 315.957031 218.742188 C 316.292969 219.152344 316.160156 219.261719 315.195312 219.390625 C 314.605469 219.472656 314.328125 219.414062 314.117188 219.15625 Z M 311.445312 218.742188 C 311.300781 218.566406 311.25 218.359375 311.324219 218.28125 C 311.5 218.105469 312.089844 218.457031 312.089844 218.738281 C 312.089844 219.074219 311.726562 219.074219 311.445312 218.738281 Z M 274.972656 216.378906 C 273.933594 216.226562 272.847656 215.546875 273.152344 215.238281 C 273.222656 215.167969 273.753906 215.214844 274.332031 215.339844 C 274.910156 215.460938 275.964844 215.558594 276.679688 215.558594 C 278.542969 215.558594 279.253906 215.742188 279.253906 216.203125 C 279.253906 216.546875 279.089844 216.582031 277.664062 216.558594 C 276.796875 216.535156 275.582031 216.460938 274.972656 216.378906 Z M 271.160156 215.453125 C 270.78125 215.316406 265.851562 214.765625 263.726562 214.632812 C 262.359375 214.539062 261.675781 214.421875 261.757812 214.28125 C 261.925781 214.007812 265.828125 214.199219 268.898438 214.632812 C 271.433594 214.992188 271.667969 215.050781 271.667969 215.351562 C 271.667969 215.566406 271.535156 215.589844 271.160156 215.453125 Z M 319.132812 210.710938 C 319.132812 209.445312 319.210938 208.90625 319.394531 208.84375 C 319.605469 208.777344 319.648438 209.160156 319.605469 210.554688 C 319.523438 212.933594 319.132812 213.058594 319.132812 210.707031 Z M 229.570312 210.710938 C 229.359375 210.363281 229.375 198.265625 229.585938 198.195312 C 229.714844 198.15625 229.828125 200.136719 229.878906 203.621094 C 229.941406 207.570312 230.042969 209.253906 230.234375 209.601562 C 230.464844 210.023438 230.445312 210.140625 230.09375 210.492188 C 229.875 210.71875 229.632812 210.8125 229.570312 210.710938 Z M 330.359375 209.421875 C 330.1875 209.160156 329.878906 209.011719 329.472656 209.011719 C 329.042969 209.011719 328.640625 208.808594 328.214844 208.386719 C 327.695312 207.863281 327.613281 207.644531 327.707031 207.066406 C 327.765625 206.683594 327.679688 205.945312 327.492188 205.386719 C 327.214844 204.550781 327.152344 202.695312 327.078125 193.253906 L 326.988281 182.113281 L 325.417969 182.238281 C 324.554688 182.316406 323.15625 182.4375 322.308594 182.519531 L 320.773438 182.667969 L 320.773438 185.535156 C 320.773438 188.214844 320.738281 188.464844 320.261719 189.3125 C 319.734375 190.242188 319.238281 190.621094 319.238281 190.089844 C 319.238281 189.832031 318.066406 189.773438 311.394531 189.679688 C 302.960938 189.558594 280.265625 188.765625 280.082031 188.582031 C 279.902344 188.402344 279.863281 113.359375 280.027344 81.222656 C 280.105469 64.789062 280.152344 51.34375 280.117188 51.34375 C 280.089844 51.34375 279.167969 51.605469 278.070312 51.925781 C 276.976562 52.25 274.726562 52.773438 273.074219 53.09375 C 270.925781 53.511719 270.097656 53.742188 270.171875 53.929688 C 270.277344 54.210938 270.398438 54.171875 265.519531 55.320312 C 262.042969 56.136719 261.007812 56.238281 261.007812 55.753906 C 261.007812 55.589844 261.261719 55.398438 261.570312 55.332031 C 261.878906 55.269531 262.691406 55.085938 263.367188 54.929688 C 264.046875 54.773438 265.429688 54.539062 266.441406 54.414062 C 267.457031 54.292969 268.605469 54.113281 269.003906 54.011719 C 269.664062 53.855469 269.683594 53.824219 269.25 53.691406 C 268.992188 53.609375 268.816406 53.441406 268.859375 53.316406 C 268.957031 53.015625 275.265625 51.628906 277.964844 51.308594 C 279.980469 51.074219 280.066406 51.039062 280.257812 50.496094 C 280.492188 49.832031 279.792969 50.039062 288.890625 47.875 C 300.480469 45.125 314.367188 42.277344 317.492188 42.027344 L 318.929688 41.90625 L 316.988281 42.636719 C 314.757812 43.464844 313.585938 43.746094 302.886719 46.003906 C 298.570312 46.917969 292.34375 48.304688 289.042969 49.101562 C 285.75 49.890625 282.792969 50.589844 282.484375 50.660156 C 282.175781 50.722656 281.921875 50.839844 281.921875 50.917969 C 281.921875 50.992188 282.285156 51.40625 282.730469 51.84375 L 283.542969 52.632812 L 289.339844 51.253906 C 297.808594 49.246094 317.28125 45.421875 317.566406 45.707031 C 318.007812 46.144531 314.847656 46.941406 304.164062 49.066406 C 299.09375 50.074219 292.464844 51.484375 289.445312 52.195312 L 283.945312 53.492188 L 284.074219 184.601562 L 283.636719 185.039062 C 283.378906 185.292969 283.085938 185.417969 282.945312 185.328125 C 282.757812 185.214844 282.71875 170.359375 282.765625 119.296875 L 282.828125 53.410156 L 282.070312 52.898438 L 281.304688 52.378906 L 281.355469 119.367188 C 281.386719 156.210938 281.339844 186.609375 281.253906 186.917969 C 281.105469 187.433594 281.140625 187.480469 281.660156 187.480469 C 282.058594 187.472656 282.144531 187.421875 281.953125 187.296875 C 281.5625 187.050781 282.003906 186.253906 282.53125 186.253906 C 283.113281 186.253906 283.214844 186.597656 282.765625 187.046875 C 282.367188 187.445312 282.386719 187.449219 284.25 187.5625 C 285.277344 187.625 287.875 187.730469 290.019531 187.792969 C 298.445312 188.039062 310.441406 188.53125 312.777344 188.730469 C 314.132812 188.839844 316.136719 188.984375 317.234375 189.054688 L 319.238281 189.183594 L 319.238281 182.648438 L 313.515625 182.730469 L 307.796875 182.816406 L 307.546875 182.355469 C 307.039062 181.398438 308.023438 178.660156 309 178.355469 C 309.398438 178.226562 309.402344 178.203125 309.058594 177.953125 C 308.773438 177.742188 308.738281 177.589844 308.902344 177.230469 C 309.109375 176.769531 309.109375 176.769531 313.917969 176.800781 C 316.5625 176.824219 318.875 176.785156 319.050781 176.722656 C 319.347656 176.609375 319.382812 170.773438 319.429688 112.480469 C 319.476562 58.101562 319.570312 43.511719 319.875 41.757812 C 319.9375 41.378906 320.125 41.445312 320.441406 41.941406 C 320.667969 42.308594 320.734375 53.644531 320.828125 109.058594 L 320.9375 175.734375 L 320.03125 176.640625 L 322.351562 176.476562 C 323.625 176.382812 325.203125 176.304688 325.851562 176.304688 L 327.03125 176.304688 L 327.03125 173.078125 C 327.03125 170.003906 327.054688 169.800781 327.527344 169.050781 C 328.1875 168.007812 329.320312 167.097656 330.347656 166.785156 C 331.011719 166.585938 331.457031 166.59375 332.519531 166.808594 C 333.730469 167.050781 333.875 167.136719 334.132812 167.742188 C 334.3125 168.175781 334.511719 168.367188 334.703125 168.300781 C 335.183594 168.113281 335.644531 169.046875 335.503906 169.917969 C 335.433594 170.335938 335.351562 170.675781 335.3125 170.675781 C 335.277344 170.675781 334.863281 170.285156 334.386719 169.804688 C 333.675781 169.082031 333.566406 169.023438 333.710938 169.449219 C 333.808594 169.730469 333.914062 178.128906 333.945312 188.117188 C 333.992188 203.160156 333.957031 206.332031 333.722656 206.652344 C 332.988281 207.65625 332.96875 207.195312 332.976562 188.15625 L 332.988281 169.582031 L 332.222656 168.796875 C 331.601562 168.164062 331.304688 168.011719 330.691406 168.011719 C 329.734375 168.011719 328.664062 168.84375 328.664062 169.582031 C 328.664062 169.863281 328.566406 170.277344 328.441406 170.511719 C 328.175781 171.015625 328.1875 176.222656 328.453125 176.492188 C 328.554688 176.59375 329.109375 176.675781 329.699219 176.675781 C 330.710938 176.675781 330.773438 176.703125 331.046875 177.359375 C 331.472656 178.386719 331.410156 180.03125 330.894531 181.082031 C 330.441406 182.035156 329.902344 182.367188 328.835938 182.367188 L 328.203125 182.367188 L 328.308594 194.207031 C 328.417969 206.90625 328.394531 206.664062 329.484375 208.050781 C 330.085938 208.808594 331.140625 208.835938 331.539062 208.097656 C 331.773438 207.65625 331.914062 207.597656 332.480469 207.703125 C 333.070312 207.816406 333.191406 207.75 333.671875 207.042969 C 333.960938 206.613281 334.203125 206.117188 334.203125 205.933594 C 334.203125 205.757812 334.335938 205.433594 334.5 205.214844 C 334.722656 204.914062 334.851562 204.871094 335.035156 205.058594 C 335.351562 205.375 334.945312 207.167969 334.386719 207.875 C 334.171875 208.144531 333.996094 208.511719 333.996094 208.679688 C 333.996094 209.035156 333.242188 209.636719 332.800781 209.636719 C 332.617188 209.636719 332.554688 209.492188 332.617188 209.234375 C 332.675781 209.011719 332.589844 208.722656 332.425781 208.585938 C 332.1875 208.382812 332.015625 208.476562 331.515625 209.089844 C 330.796875 209.960938 330.703125 209.988281 330.351562 209.433594 Z M 320.5 181.316406 C 322.902344 181.316406 323.546875 181.265625 323.753906 181.019531 C 323.886719 180.851562 324.253906 180.714844 324.558594 180.714844 C 325.203125 180.714844 325.59375 180.074219 325.59375 179.003906 C 325.59375 177.636719 325.5 177.613281 321.59375 177.890625 C 319.675781 178.023438 316.195312 178.140625 313.855469 178.144531 C 310.957031 178.144531 309.625 178.222656 309.675781 178.367188 C 309.722656 178.492188 309.542969 178.953125 309.273438 179.394531 C 309 179.839844 308.785156 180.515625 308.785156 180.902344 L 308.777344 181.597656 L 313.136719 181.457031 C 315.53125 181.375 318.839844 181.316406 320.492188 181.316406 Z M 330.183594 180.804688 C 330.363281 180.335938 330.328125 178.605469 330.136719 178.304688 C 330.042969 178.164062 329.425781 177.953125 328.753906 177.84375 C 326.777344 177.519531 326.765625 177.519531 326.917969 178.425781 C 327 178.90625 326.941406 179.535156 326.761719 180.054688 C 326.40625 181.082031 326.417969 181.089844 328.488281 181.113281 C 329.738281 181.136719 330.085938 181.058594 330.183594 180.804688 Z M 330.363281 203.113281 C 330.113281 202.582031 329.851562 201.636719 329.785156 201.011719 C 329.675781 200.054688 329.722656 199.800781 330.101562 199.324219 C 330.679688 198.582031 331.269531 198.582031 331.402344 199.324219 C 331.5625 200.183594 331.257812 203.949219 331.023438 204.019531 C 330.914062 204.054688 330.617188 203.644531 330.363281 203.113281 Z M 335.023438 187.945312 C 335.03125 179.179688 335.113281 171.878906 335.210938 171.722656 C 335.796875 170.792969 335.84375 171.933594 335.84375 187.410156 C 335.84375 202.695312 335.800781 203.886719 335.222656 203.886719 C 335.09375 203.886719 335.023438 198.050781 335.023438 187.945312 Z M 318.941406 197.484375 C 318.835938 194.203125 318.859375 192.742188 319.027344 192.304688 L 319.269531 191.683594 L 319.554688 192.199219 C 320.015625 193.035156 319.800781 201.824219 319.3125 201.980469 C 319.15625 202.035156 319.046875 200.703125 318.941406 197.484375 Z M 26.164062 197.722656 C 26.011719 194.109375 26.085938 193.652344 26.765625 193.914062 C 27.074219 194.03125 27.09375 194.375 26.964844 197.378906 C 26.871094 199.574219 26.734375 200.800781 26.566406 200.976562 C 26.363281 201.191406 26.28125 200.542969 26.164062 197.722656 Z M 230.339844 194.609375 C 230.242188 192.546875 230.160156 190.058594 230.152344 189.074219 C 230.152344 187.722656 230.082031 187.28125 229.878906 187.28125 C 229.65625 187.28125 229.621094 177.234375 229.691406 129.40625 C 229.769531 76.339844 229.808594 71.394531 230.117188 69.804688 C 230.3125 68.851562 230.453125 67.433594 230.433594 66.65625 C 230.417969 65.652344 230.488281 65.183594 230.691406 65.058594 C 231.007812 64.851562 231.964844 64.988281 232.652344 65.324219 C 233.019531 65.507812 233.726562 65.382812 236.246094 64.707031 C 237.96875 64.246094 241.976562 63.21875 245.144531 62.421875 C 248.316406 61.628906 252.261719 60.511719 253.902344 59.953125 C 255.542969 59.390625 257.085938 58.929688 257.324219 58.929688 C 257.964844 58.929688 257.761719 59.644531 257.105469 59.671875 C 256.828125 59.6875 255.660156 60.074219 254.515625 60.535156 C 252.097656 61.511719 249.683594 62.207031 241.328125 64.332031 C 237.996094 65.179688 235.054688 65.957031 234.785156 66.054688 L 234.292969 66.238281 L 234.925781 66.6875 C 235.269531 66.9375 235.609375 67.054688 235.671875 66.949219 C 235.738281 66.84375 236.273438 66.691406 236.863281 66.617188 C 237.460938 66.539062 239.234375 66.203125 240.8125 65.867188 C 242.390625 65.535156 245.492188 64.898438 247.699219 64.460938 C 249.90625 64.023438 252.214844 63.480469 252.828125 63.253906 C 253.574219 62.972656 253.800781 62.9375 253.53125 63.140625 C 252.726562 63.75 247.453125 65.277344 242.320312 66.394531 C 239.429688 67.023438 236.847656 67.542969 236.578125 67.542969 C 236.132812 67.542969 236.121094 67.574219 236.457031 67.824219 C 236.859375 68.128906 236.917969 68.472656 236.605469 68.667969 C 236.390625 68.800781 234.632812 68.011719 233.75 67.382812 C 233.261719 67.035156 233.25 67.035156 233.414062 67.441406 C 233.5 67.660156 233.621094 93.84375 233.6875 125.609375 L 233.796875 183.378906 L 234.28125 182.726562 C 234.546875 182.367188 234.761719 181.917969 234.761719 181.726562 C 234.761719 181.171875 235.3125 180.816406 235.683594 181.125 C 235.855469 181.265625 235.992188 181.503906 235.992188 181.65625 C 235.992188 181.867188 236.296875 181.90625 237.273438 181.84375 C 240.304688 181.625 242.414062 181.546875 242.320312 181.636719 C 242.261719 181.695312 241.257812 181.9375 240.082031 182.175781 C 238.59375 182.480469 237.589844 182.574219 236.765625 182.484375 C 236.117188 182.421875 235.585938 182.445312 235.585938 182.542969 C 235.585938 182.644531 235.089844 183.214844 234.488281 183.824219 L 233.390625 184.921875 L 240.992188 184.886719 C 245.179688 184.863281 250.214844 184.769531 252.191406 184.664062 C 254.164062 184.566406 255.816406 184.511719 255.871094 184.554688 C 255.914062 184.589844 255.863281 184.710938 255.753906 184.820312 C 255.5 185.074219 241.363281 185.65625 236.386719 185.617188 C 233.914062 185.597656 232.625 185.667969 232.316406 185.835938 C 232.058594 185.972656 231.679688 186.042969 231.460938 185.984375 C 231.246094 185.925781 231.070312 185.949219 231.070312 186.03125 C 231.070312 186.105469 235.941406 186.289062 241.886719 186.429688 C 247.839844 186.566406 254.296875 186.738281 256.242188 186.808594 L 259.777344 186.9375 L 259.777344 122.035156 C 259.777344 65.996094 259.734375 57.101562 259.484375 56.890625 C 259.25 56.699219 258 56.972656 253.484375 58.210938 C 247.714844 59.792969 246.191406 60.226562 235.925781 63.234375 C 230.5 64.824219 230.207031 64.886719 229.9375 64.53125 C 229.679688 64.1875 229.773438 64.121094 231.136719 63.695312 C 236.320312 62.066406 249.101562 58.277344 254.035156 56.902344 L 259.882812 55.28125 L 260.957031 56.566406 L 261.113281 98.296875 C 261.195312 121.242188 261.203125 150.703125 261.113281 163.753906 L 260.96875 187.484375 L 265.136719 187.484375 C 272.261719 187.484375 277.613281 187.71875 277.613281 188.023438 C 277.613281 188.449219 276.382812 188.558594 274.3125 188.324219 C 273.25 188.203125 269.34375 188.09375 265.621094 188.082031 C 261.898438 188.058594 255.027344 187.929688 250.34375 187.777344 C 245.664062 187.625 239.316406 187.4375 236.234375 187.363281 L 230.636719 187.222656 L 230.75 188.429688 C 231.125 192.53125 231.078125 198.355469 230.667969 198.355469 C 230.585938 198.355469 230.441406 196.667969 230.339844 194.609375 Z M 232.296875 184.816406 C 232.578125 184.816406 232.613281 182.707031 232.636719 165.800781 C 232.648438 155.34375 232.683594 128.863281 232.710938 106.96875 C 232.757812 70.53125 232.734375 67.117188 232.429688 66.816406 C 232.25 66.632812 232.097656 66.398438 232.097656 66.296875 C 232.097656 66.191406 231.976562 66.109375 231.816406 66.109375 C 231.613281 66.109375 231.503906 66.59375 231.402344 67.902344 C 231.328125 68.886719 231.191406 70.296875 231.105469 71.027344 C 231.019531 71.761719 230.976562 97.6875 231.019531 128.640625 C 231.066406 159.597656 231.09375 185.042969 231.089844 185.191406 C 231.078125 185.394531 231.179688 185.382812 231.53125 185.136719 C 231.777344 184.960938 232.128906 184.820312 232.296875 184.820312 Z M 22.355469 189.015625 C 22.355469 188.660156 24.164062 186.765625 24.339844 186.941406 C 24.398438 187 24.183594 187.539062 23.863281 188.132812 C 23.460938 188.878906 23.132812 189.25 22.816406 189.289062 C 22.496094 189.335938 22.355469 189.25 22.355469 189.015625 Z M 317.644531 187.636719 C 317.742188 187.332031 318.824219 187.164062 318.824219 187.449219 C 318.824219 187.664062 318.339844 187.894531 317.871094 187.894531 C 317.703125 187.894531 317.601562 187.777344 317.644531 187.636719 Z M 303.230469 186.796875 C 303.171875 186.726562 298.988281 186.660156 293.9375 186.644531 C 286.007812 186.621094 284.746094 186.574219 284.644531 186.3125 C 284.582031 186.140625 284.65625 185.917969 284.816406 185.808594 C 285.347656 185.445312 316.558594 185.996094 316.964844 186.375 C 317.011719 186.421875 316.996094 186.515625 316.925781 186.578125 C 316.761719 186.75 303.382812 186.953125 303.230469 186.796875 Z M 286.644531 183.6875 C 286.636719 182.917969 289.257812 179.578125 289.742188 179.734375 C 290.339844 179.933594 290.058594 180.429688 288.402344 182.113281 C 287.4375 183.09375 286.644531 183.804688 286.644531 183.6875 Z M 25.019531 181.714844 C 25.019531 180.816406 29.46875 174.4375 29.835938 174.804688 C 30.042969 175.007812 29.660156 175.617188 27.675781 178.273438 C 26.683594 179.605469 25.8125 180.878906 25.742188 181.101562 C 25.574219 181.644531 25.019531 182.113281 25.019531 181.714844 Z M 237.070312 180.816406 C 236.550781 180.445312 236.433594 179.394531 236.898438 179.214844 C 237.261719 179.074219 237.429688 179.242188 237.429688 179.753906 C 237.429688 180.121094 237.542969 180.136719 238.914062 180.03125 C 239.730469 179.972656 243.804688 179.820312 247.957031 179.699219 L 255.507812 179.484375 L 256.121094 179.996094 C 256.855469 180.609375 256.632812 180.761719 255.144531 180.675781 C 253.808594 180.59375 238.699219 180.914062 238.042969 181.035156 C 237.765625 181.09375 237.324219 180.992188 237.070312 180.816406 Z M 258.046875 177.632812 C 257.929688 176.300781 257.84375 175.992188 257.605469 176.085938 C 257.410156 176.160156 257.222656 176.003906 257.085938 175.640625 C 256.921875 175.238281 256.910156 162.558594 257.03125 130.996094 C 257.125 106.75 257.207031 82.320312 257.210938 76.703125 C 257.210938 67.457031 257.246094 66.46875 257.550781 66.300781 C 257.738281 66.195312 257.949219 65.875 258.019531 65.582031 C 258.101562 65.265625 258.269531 65.082031 258.449219 65.113281 C 258.714844 65.171875 258.761719 72.269531 258.847656 120.542969 C 258.902344 150.988281 258.882812 176.628906 258.800781 177.519531 C 258.597656 179.710938 258.234375 179.765625 258.046875 177.632812 Z M 257.878906 77.648438 C 257.835938 76.882812 257.808594 77.449219 257.808594 78.921875 C 257.808594 80.386719 257.835938 81.011719 257.878906 80.3125 C 257.917969 79.609375 257.917969 78.414062 257.878906 77.648438 Z M 257.871094 75.078125 C 257.824219 74.820312 257.777344 74.980469 257.777344 75.433594 C 257.777344 75.886719 257.820312 76.09375 257.867188 75.898438 C 257.917969 75.703125 257.917969 75.332031 257.871094 75.078125 Z M 236.308594 178.882812 C 236.152344 178.628906 236.367188 72.867188 236.527344 71.59375 C 236.59375 71.03125 236.753906 70.617188 236.898438 70.617188 C 237.09375 70.617188 237.15625 82.351562 237.1875 124.476562 C 237.207031 154.105469 237.175781 178.507812 237.109375 178.710938 C 236.988281 179.105469 236.507812 179.203125 236.308594 178.882812 Z M 288.996094 178.328125 C 288.769531 178.261719 288.460938 178.109375 288.308594 177.988281 C 288.074219 177.796875 288.039062 168.34375 288.097656 118.703125 C 288.136719 86.222656 288.101562 59.542969 288.019531 59.414062 C 287.9375 59.285156 287.992188 59.082031 288.144531 58.960938 C 288.558594 58.613281 292.0625 57.839844 298.925781 56.578125 C 305.117188 55.441406 307.242188 54.976562 309.804688 54.1875 C 310.933594 53.84375 311.167969 53.824219 311.324219 54.070312 C 311.480469 54.316406 311.667969 54.304688 312.550781 53.984375 C 314.1875 53.382812 314.460938 53.445312 314.628906 54.46875 C 314.710938 54.941406 314.753906 58.054688 314.730469 61.390625 C 314.699219 64.71875 314.746094 90.707031 314.835938 119.144531 C 315 172.671875 314.988281 173.730469 314.210938 174.027344 C 314.074219 174.082031 313.871094 173.625 313.707031 172.890625 C 313.484375 171.878906 313.460938 162.59375 313.597656 119.757812 C 313.683594 91.203125 313.765625 67.019531 313.777344 66.003906 C 313.789062 64.988281 313.761719 61.96875 313.714844 59.292969 L 313.625 54.421875 L 313.101562 54.421875 C 312.808594 54.421875 312.09375 54.648438 311.511719 54.917969 C 310.921875 55.191406 310.414062 55.328125 310.378906 55.214844 C 310.34375 55.105469 309.179688 55.328125 307.75 55.722656 C 306.34375 56.109375 302.332031 56.945312 298.835938 57.585938 C 295.339844 58.222656 291.742188 58.902344 290.84375 59.09375 L 289.199219 59.445312 L 289.300781 96.457031 C 289.359375 116.808594 289.386719 143.253906 289.363281 155.226562 L 289.316406 177 L 289.871094 177.113281 C 290.183594 177.175781 293.703125 177.207031 297.710938 177.183594 C 303.277344 177.148438 305.167969 177.207031 305.757812 177.402344 C 306.179688 177.550781 306.523438 177.75 306.523438 177.835938 C 306.523438 178.003906 305.339844 178.25 304.492188 178.257812 C 304.214844 178.257812 303.832031 178.109375 303.632812 177.929688 C 303.300781 177.632812 303.023438 177.632812 300.339844 177.953125 C 297.378906 178.296875 289.753906 178.554688 288.996094 178.339844 Z M 24.199219 177.304688 C 24.199219 177.230469 24.597656 176.703125 25.082031 176.125 C 25.566406 175.554688 26.179688 174.757812 26.449219 174.359375 C 27.332031 173.066406 30.414062 169.234375 30.578125 169.234375 C 30.667969 169.234375 30.792969 169.332031 30.871094 169.449219 C 31.039062 169.730469 30.316406 170.804688 28.734375 172.621094 C 28.042969 173.410156 26.828125 174.816406 26.035156 175.746094 C 24.75 177.246094 24.199219 177.714844 24.199219 177.304688 Z M 315.429688 170.734375 C 315.226562 169.109375 315.519531 101.898438 315.726562 101.320312 C 315.890625 100.875 315.910156 100.882812 316.019531 101.472656 C 316.21875 102.460938 316.410156 169.859375 316.226562 170.863281 C 315.972656 172.199219 315.605469 172.140625 315.429688 170.734375 Z M 30.554688 133.992188 C 30.554688 133.652344 30.683594 133.347656 30.859375 133.28125 C 31.097656 133.191406 31.167969 133.324219 31.167969 133.875 C 31.167969 134.371094 31.074219 134.585938 30.859375 134.585938 C 30.660156 134.585938 30.554688 134.382812 30.554688 133.992188 Z M 29.996094 127.355469 C 29.972656 126.199219 29.902344 124.707031 29.84375 124.027344 C 29.707031 122.566406 29.972656 121.941406 30.457031 122.578125 C 30.957031 123.238281 30.777344 129.21875 30.246094 129.390625 C 30.125 129.429688 30.023438 128.648438 30 127.355469 Z M 30.304688 110.59375 C 30.222656 108.960938 30.066406 104.902344 29.949219 101.578125 C 29.832031 98.25 29.679688 95.320312 29.609375 95.066406 C 29.515625 94.738281 29.566406 94.605469 29.785156 94.605469 C 30.167969 94.605469 30.316406 95.480469 30.5625 99.21875 C 30.769531 102.394531 30.777344 107.585938 30.574219 111.214844 L 30.445312 113.566406 Z M 31.921875 98.867188 C 31.847656 95.222656 31.78125 89.433594 31.78125 85.996094 C 31.78125 82.554688 31.683594 77.019531 31.566406 73.6875 C 31.359375 67.972656 31.4375 64.875 31.769531 64.875 C 32.007812 64.875 32.394531 69.460938 32.632812 75.125 C 32.785156 78.613281 32.796875 83.707031 32.679688 90.40625 C 32.585938 95.929688 32.507812 101.546875 32.507812 102.890625 C 32.5 104.46875 32.425781 105.363281 32.277344 105.410156 C 32.121094 105.460938 32.015625 103.488281 31.921875 98.867188 Z M 315.691406 95.425781 C 315.601562 94.800781 315.558594 93.285156 315.589844 92.039062 C 315.625 90.800781 315.570312 81.808594 315.472656 72.054688 C 315.3125 55.953125 315.324219 54.28125 315.625 53.90625 C 316.375 52.957031 316.40625 53.582031 316.253906 69.382812 C 316.066406 89.242188 315.902344 96.898438 315.691406 95.425781 Z M 237.5 70.097656 C 237.429688 69.917969 237.453125 69.695312 237.558594 69.605469 C 237.660156 69.519531 240.691406 68.78125 244.300781 67.976562 C 247.910156 67.164062 251.734375 66.265625 252.808594 65.980469 C 256.074219 65.097656 256.84375 64.976562 257.210938 65.285156 C 257.726562 65.710938 257.480469 65.945312 256.4375 66.03125 C 255.902344 66.078125 254.304688 66.433594 252.878906 66.828125 C 251.460938 67.21875 248.207031 68.007812 245.652344 68.574219 C 243.101562 69.144531 240.507812 69.734375 239.890625 69.886719 C 237.625 70.441406 237.636719 70.441406 237.5 70.097656 Z M 229.773438 59.1875 C 229.59375 57.257812 229.605469 55.898438 229.816406 55.769531 C 229.976562 55.664062 230.246094 58.148438 230.253906 59.800781 C 230.253906 61.097656 229.910156 60.652344 229.773438 59.1875 Z M 286.539062 56.484375 C 285.230469 55.601562 284.480469 54.96875 284.480469 54.742188 C 284.480469 54.210938 285.761719 53.867188 288.285156 53.726562 C 291.292969 53.5625 302.476562 51.777344 306.570312 50.804688 C 308.292969 50.402344 308.871094 50.550781 307.324219 51 C 301.957031 52.574219 291.957031 54.554688 288.3125 54.765625 L 286.199219 54.894531 L 287.546875 56.25 C 288.804688 57.515625 289.105469 57.9375 288.738281 57.882812 C 288.652344 57.859375 287.664062 57.242188 286.539062 56.484375 Z M 316.160156 52.878906 C 316.160156 52.828125 316.386719 52.34375 316.664062 51.804688 C 316.9375 51.265625 317.316406 50.234375 317.503906 49.496094 C 317.695312 48.769531 317.882812 48.050781 317.925781 47.910156 C 318.023438 47.558594 318.554688 47.589844 318.695312 47.949219 C 318.753906 48.113281 318.695312 48.597656 318.5625 49.03125 C 318.128906 50.398438 316.160156 53.558594 316.160156 52.878906 Z M 277.71875 52.367188 C 277.789062 52.253906 277.933594 52.160156 278.050781 52.160156 C 278.164062 52.160156 278.199219 52.253906 278.128906 52.367188 C 278.058594 52.480469 277.910156 52.574219 277.792969 52.574219 C 277.683594 52.574219 277.648438 52.480469 277.71875 52.367188 Z M 312.265625 50.128906 C 312.265625 49.878906 312.398438 49.703125 312.585938 49.703125 C 312.777344 49.703125 312.882812 49.84375 312.84375 50.046875 C 312.742188 50.5625 312.265625 50.628906 312.265625 50.128906 Z M 30.328125 49.386719 C 30.308594 49.277344 30.320312 49.101562 30.351562 48.984375 C 30.378906 48.871094 30.460938 45.421875 30.53125 41.316406 C 30.625 35.613281 30.71875 33.828125 30.910156 33.761719 C 31.441406 33.589844 31.082031 48.824219 30.539062 49.386719 C 30.421875 49.507812 30.339844 49.507812 30.328125 49.386719 Z M 169.566406 49.359375 C 168.605469 49.324219 166.070312 49.199219 163.929688 49.078125 C 161.785156 48.960938 156.570312 48.78125 152.339844 48.6875 C 148.113281 48.585938 144.492188 48.445312 144.292969 48.363281 C 144.101562 48.289062 143.9375 48.109375 143.9375 47.972656 C 143.9375 47.542969 156.074219 47.738281 166.796875 48.351562 C 171.984375 48.644531 179.433594 48.949219 183.355469 49.019531 C 187.273438 49.09375 190.480469 49.230469 190.480469 49.328125 C 190.480469 49.480469 173.949219 49.503906 169.566406 49.359375 Z M 50.960938 48.691406 C 50.878906 48.5625 50.925781 48.324219 51.066406 48.15625 C 51.398438 47.75 55.804688 47.757812 59.261719 48.15625 C 60.667969 48.324219 62.390625 48.464844 63.09375 48.464844 C 63.789062 48.464844 64.402344 48.535156 64.453125 48.617188 C 64.507812 48.703125 61.519531 48.800781 57.832031 48.84375 C 52.929688 48.894531 51.066406 48.84375 50.960938 48.679688 Z M 195.09375 48.667969 C 195.164062 48.550781 195.398438 48.464844 195.613281 48.464844 C 195.835938 48.464844 196.015625 48.550781 196.015625 48.667969 C 196.015625 48.78125 195.777344 48.871094 195.492188 48.871094 C 195.191406 48.871094 195.015625 48.785156 195.09375 48.667969 Z M 197.242188 48.667969 C 197.242188 48.546875 197.925781 48.464844 198.882812 48.464844 C 199.839844 48.464844 200.523438 48.546875 200.523438 48.667969 C 200.523438 48.792969 199.839844 48.871094 198.882812 48.871094 C 197.925781 48.871094 197.242188 48.785156 197.242188 48.667969 Z M 94.789062 48.46875 C 83.859375 48.359375 82.613281 48.277344 83.488281 47.714844 C 83.914062 47.441406 96.769531 47.371094 101.253906 47.617188 C 103.472656 47.738281 107.636719 47.898438 110.515625 47.960938 C 116 48.085938 116.667969 48.136719 116.667969 48.464844 C 116.667969 48.675781 115.089844 48.675781 94.789062 48.464844 Z M 78.582031 48.207031 C 78.632812 48.042969 79.1875 47.925781 80.136719 47.890625 C 81.777344 47.820312 82.132812 48.132812 80.65625 48.328125 C 79.160156 48.535156 78.488281 48.5 78.582031 48.207031 Z M 213.542969 42.933594 C 213.90625 42.53125 215.277344 41.695312 215.585938 41.695312 C 216.1875 41.695312 214.699219 42.769531 213.339844 43.3125 C 213.226562 43.359375 213.320312 43.191406 213.542969 42.933594 Z M 319.824219 37.082031 C 319.859375 36.460938 319.980469 35.953125 320.085938 35.953125 C 320.347656 35.953125 320.21875 38.054688 319.957031 38.144531 C 319.828125 38.183594 319.777344 37.777344 319.824219 37.082031 Z M 228.601562 36.007812 C 228.589844 35.695312 228.519531 34.714844 228.4375 33.828125 C 228.324219 32.578125 228.355469 32.144531 228.570312 31.929688 C 229.300781 31.199219 229.605469 32.179688 229.261719 34.160156 C 229.132812 34.925781 229.027344 35.785156 229.027344 36.066406 C 229.027344 36.757812 228.617188 36.707031 228.601562 36.007812 Z M 146.5 32.027344 C 145.257812 31.941406 139.03125 31.824219 132.660156 31.773438 C 113.882812 31.625 108.566406 31.367188 108.566406 30.617188 C 108.566406 30.386719 108.824219 30.324219 109.59375 30.347656 C 111.457031 30.40625 117.746094 30.800781 120.695312 31.054688 C 122.730469 31.230469 126.851562 31.269531 134.535156 31.195312 C 140.550781 31.136719 146.675781 31.164062 148.140625 31.257812 C 149.609375 31.351562 153.339844 31.53125 156.441406 31.660156 C 159.542969 31.785156 162.152344 31.957031 162.246094 32.046875 C 162.46875 32.257812 149.375 32.246094 146.5 32.023438 Z M 88.007812 31.832031 C 87.757812 31.738281 87.550781 31.519531 87.550781 31.34375 C 87.550781 30.976562 87.785156 30.941406 88.113281 31.265625 C 88.457031 31.609375 89.578125 31.328125 91.136719 30.5 C 92.582031 29.734375 93.070312 29.703125 92.25 30.429688 L 91.757812 30.859375 L 93.140625 30.75 C 93.902344 30.691406 94.527344 30.71875 94.527344 30.820312 C 94.527344 31.246094 91.796875 31.621094 91.359375 31.253906 C 91.132812 31.066406 90.941406 31.078125 90.492188 31.308594 C 89.550781 31.796875 88.5 32.015625 88.007812 31.835938 Z M 96.621094 31.714844 C 95.945312 31.242188 96.0625 31.011719 96.933594 31.140625 C 97.351562 31.207031 97.976562 31.28125 98.316406 31.308594 C 99.144531 31.386719 99.257812 31.71875 98.507812 31.882812 C 97.527344 32.09375 97.113281 32.050781 96.621094 31.71875 Z M 54.542969 31.714844 C 54.261719 31.671875 51.539062 31.574219 48.496094 31.492188 L 42.960938 31.34375 L 42.960938 30.359375 L 46.03125 30.398438 C 49.957031 30.445312 56.015625 30.789062 57.4375 31.046875 C 59.664062 31.449219 67.140625 31.507812 72 31.164062 C 79.871094 30.605469 79.207031 30.835938 70.636719 31.644531 C 68.546875 31.835938 55.703125 31.894531 54.542969 31.714844 Z M 223.222656 31.507812 C 223.152344 31.398438 223.238281 31.105469 223.414062 30.855469 C 223.648438 30.515625 223.875 30.421875 224.277344 30.5 C 224.574219 30.550781 225.535156 30.714844 226.410156 30.855469 C 227.285156 31 227.921875 31.199219 227.824219 31.292969 C 227.566406 31.554688 223.367188 31.75 223.222656 31.507812 Z M 319.886719 26.441406 C 319.847656 23.6875 319.875 21.234375 319.949219 20.996094 C 320.03125 20.746094 320.230469 20.585938 320.414062 20.621094 C 320.691406 20.675781 320.726562 21.082031 320.679688 23.554688 C 320.597656 28.09375 320.382812 31.304688 320.160156 31.378906 C 320.027344 31.421875 319.925781 29.652344 319.886719 26.441406 Z M 190.320312 31.101562 C 190.070312 31.046875 189.859375 30.867188 189.859375 30.691406 C 189.859375 30.476562 189.972656 30.421875 190.222656 30.523438 C 190.421875 30.605469 191.894531 30.730469 193.492188 30.808594 C 195.09375 30.882812 196.464844 31.011719 196.546875 31.09375 C 196.707031 31.253906 191.128906 31.253906 190.320312 31.09375 Z M 173.152344 30.421875 C 172.933594 30.066406 173.253906 29.808594 173.933594 29.804688 C 175.347656 29.804688 180.230469 30.304688 180.230469 30.464844 C 180.230469 30.707031 173.300781 30.667969 173.152344 30.421875 Z M 83.363281 30.242188 C 83.148438 29.890625 83.382812 29.65625 84.222656 29.378906 C 84.644531 29.242188 86.628906 28.324219 88.628906 27.351562 C 90.628906 26.371094 92.265625 25.675781 92.265625 25.808594 C 92.265625 25.9375 91.601562 26.417969 90.78125 26.867188 C 89.964844 27.320312 88.351562 28.269531 87.195312 28.972656 C 85.117188 30.242188 83.664062 30.71875 83.363281 30.242188 Z M 214.558594 30.003906 C 214.488281 29.878906 214.484375 29.570312 214.546875 29.308594 C 214.664062 28.835938 214.640625 28.828125 212.46875 28.6875 C 205.195312 28.222656 201.335938 27.816406 201.003906 27.480469 C 200.945312 27.421875 200.964844 27.261719 201.042969 27.128906 C 201.148438 26.960938 201.546875 26.929688 202.335938 27.023438 C 203.585938 27.167969 213.503906 27.929688 216.878906 28.140625 C 218.0625 28.214844 218.980469 28.359375 218.980469 28.472656 C 218.980469 28.589844 218.222656 28.707031 217.234375 28.742188 C 215.632812 28.792969 215.492188 28.835938 215.492188 29.21875 C 215.492188 29.464844 215.65625 29.6875 215.902344 29.746094 C 216.125 29.804688 216.257812 29.9375 216.195312 30.039062 C 216.039062 30.289062 214.722656 30.265625 214.566406 30.003906 Z M 180.914062 29.296875 C 180.996094 29.039062 182.09375 29.019531 182.023438 29.273438 C 181.992188 29.378906 181.710938 29.472656 181.402344 29.476562 C 181.09375 29.476562 180.871094 29.402344 180.914062 29.289062 Z M 354.910156 15.640625 C 354.910156 14.800781 353.574219 11.394531 353.007812 10.78125 C 352.484375 10.214844 352.726562 9.613281 353.476562 9.613281 C 354.078125 9.613281 354.589844 10.3125 355.128906 11.851562 C 355.484375 12.855469 355.53125 13.328125 355.414062 14.570312 C 355.273438 16.089844 354.910156 16.855469 354.910156 15.640625 Z M 356.960938 10.878906 C 356.960938 8.824219 356.300781 7.664062 355.128906 7.664062 C 354.785156 7.664062 354.503906 7.570312 354.503906 7.453125 C 354.503906 7.085938 355.074219 7.003906 355.847656 7.257812 C 356.417969 7.445312 356.683594 7.703125 356.980469 8.351562 C 357.394531 9.269531 357.515625 11.445312 357.167969 11.664062 C 357.042969 11.738281 356.960938 11.433594 356.960938 10.878906 Z M 356.960938 10.878906 "/></g></g></svg>